<?xml version="1.0" encoding="UTF-8" standalone="no"?>
<svg 
   width="223.92pt"
   height="48.959999pt"
   viewBox="0 0 223.92 48.959999"
   version="1.1"
   id="svg83"
   xmlns="http://www.w3.org/2000/svg"
   xmlns:svg="http://www.w3.org/2000/svg" content="%3Cmxfile%20host%3D%22app.diagrams.net%22%20modified%3D%222023-04-27T10%3A04%3A32.186Z%22%20agent%3D%22Mozilla%2F5.0%20(Windows%20NT%2010.0%3B%20Win64%3B%20x64)%20AppleWebKit%2F537.36%20(KHTML%2C%20like%20Gecko)%20Chrome%2F112.0.0.0%20Safari%2F537.36%20Edg%2F112.0.1722.58%22%20version%3D%2221.1.7%22%20etag%3D%22L-BHzldWYKeitmEoJG3B%22%20type%3D%22device%22%3E%20%20%20%3Cdiagram%20name%3D%22Page-1%22%20id%3D%22HLeqhnC2izXMl8OnlTfb%22%3E%20%20%20%20%20%3CmxGraphModel%20dx%3D%221644%22%20dy%3D%22501%22%20grid%3D%221%22%20gridSize%3D%2210%22%20guides%3D%221%22%20tooltips%3D%221%22%20connect%3D%221%22%20arrows%3D%221%22%20fold%3D%221%22%20page%3D%221%22%20pageScale%3D%221%22%20pageWidth%3D%22850%22%20pageHeight%3D%221100%22%20math%3D%221%22%20shadow%3D%220%22%3E%20%20%20%20%20%20%20%3Croot%3E%20%20%20%20%20%20%20%20%20%3CmxCell%20id%3D%220%22%20%2F%3E%20%20%20%20%20%20%20%20%20%3CmxCell%20id%3D%221%22%20parent%3D%220%22%20%2F%3E%20%20%20%20%20%20%20%20%20%3CmxCell%20id%3D%222%22%20value%3D%22%24%24%5Cfrac%7B%5Cfrac%7B2%7D%7Bmgl%7D%7D%7B%5Cfrac%7B2l%7D%7B3g%7D%20s%5E2%20%2B%20%5Cfrac%7B2b%7D%7Bmgl%7D%20s%20%2B%201%7D%24%24%22%20style%3D%22rounded%3D0%3BwhiteSpace%3Dwrap%3Bhtml%3D1%3B%22%20vertex%3D%221%22%20parent%3D%221%22%3E%20%20%20%20%20%20%20%20%20%20%20%3CmxGeometry%20x%3D%22-485%22%20y%3D%2270%22%20width%3D%22120%22%20height%3D%2260%22%20as%3D%22geometry%22%20%2F%3E%20%20%20%20%20%20%20%20%20%3C%2FmxCell%3E%20%20%20%20%20%20%20%20%20%3CmxCell%20id%3D%223%22%20value%3D%22%22%20style%3D%22endArrow%3Dclassic%3Bhtml%3D1%3Brounded%3D0%3BentryX%3D0%3BentryY%3D0.5%3BentryDx%3D0%3BentryDy%3D0%3B%22%20edge%3D%221%22%20target%3D%222%22%20parent%3D%221%22%3E%20%20%20%20%20%20%20%20%20%20%20%3CmxGeometry%20width%3D%2250%22%20height%3D%2250%22%20relative%3D%221%22%20as%3D%22geometry%22%3E%20%20%20%20%20%20%20%20%20%20%20%20%20%3CmxPoint%20x%3D%22-565%22%20y%3D%22100%22%20as%3D%22sourcePoint%22%20%2F%3E%20%20%20%20%20%20%20%20%20%20%20%20%20%3CmxPoint%20x%3D%22-435%22%20y%3D%22100%22%20as%3D%22targetPoint%22%20%2F%3E%20%20%20%20%20%20%20%20%20%20%20%3C%2FmxGeometry%3E%20%20%20%20%20%20%20%20%20%3C%2FmxCell%3E%20%20%20%20%20%20%20%20%20%3CmxCell%20id%3D%224%22%20value%3D%22%22%20style%3D%22endArrow%3Dclassic%3Bhtml%3D1%3Brounded%3D0%3BentryX%3D0%3BentryY%3D0.5%3BentryDx%3D0%3BentryDy%3D0%3B%22%20edge%3D%221%22%20parent%3D%221%22%3E%20%20%20%20%20%20%20%20%20%20%20%3CmxGeometry%20width%3D%2250%22%20height%3D%2250%22%20relative%3D%221%22%20as%3D%22geometry%22%3E%20%20%20%20%20%20%20%20%20%20%20%20%20%3CmxPoint%20x%3D%22-365%22%20y%3D%2299.69%22%20as%3D%22sourcePoint%22%20%2F%3E%20%20%20%20%20%20%20%20%20%20%20%20%20%3CmxPoint%20x%3D%22-285%22%20y%3D%2299.69%22%20as%3D%22targetPoint%22%20%2F%3E%20%20%20%20%20%20%20%20%20%20%20%3C%2FmxGeometry%3E%20%20%20%20%20%20%20%20%20%3C%2FmxCell%3E%20%20%20%20%20%20%20%20%20%3CmxCell%20id%3D%225%22%20value%3D%22%24%24%5Ctext%7BT%7D(s)%24%24%22%20style%3D%22text%3Bhtml%3D1%3BstrokeColor%3Dnone%3BfillColor%3Dnone%3Balign%3Dcenter%3BverticalAlign%3Dmiddle%3BwhiteSpace%3Dwrap%3Brounded%3D0%3B%22%20vertex%3D%221%22%20parent%3D%221%22%3E%20%20%20%20%20%20%20%20%20%20%20%3CmxGeometry%20x%3D%22-545%22%20y%3D%2270%22%20width%3D%2260%22%20height%3D%2230%22%20as%3D%22geometry%22%20%2F%3E%20%20%20%20%20%20%20%20%20%3C%2FmxCell%3E%20%20%20%20%20%20%20%20%20%3CmxCell%20id%3D%226%22%20value%3D%22%24%24%5CTheta(s)%24%24%22%20style%3D%22text%3Bhtml%3D1%3BstrokeColor%3Dnone%3BfillColor%3Dnone%3Balign%3Dcenter%3BverticalAlign%3Dmiddle%3BwhiteSpace%3Dwrap%3Brounded%3D0%3B%22%20vertex%3D%221%22%20parent%3D%221%22%3E%20%20%20%20%20%20%20%20%20%20%20%3CmxGeometry%20x%3D%22-365%22%20y%3D%2270%22%20width%3D%2260%22%20height%3D%2230%22%20as%3D%22geometry%22%20%2F%3E%20%20%20%20%20%20%20%20%20%3C%2FmxCell%3E%20%20%20%20%20%20%20%3C%2Froot%3E%20%20%20%20%20%3C%2FmxGraphModel%3E%20%20%20%3C%2Fdiagram%3E%20%3C%2Fmxfile%3E%20">
  <defs
     id="defs5">
    <clipPath
       id="clip-0">
      <path
         clip-rule="nonzero"
         d="M 200 10 L 223.921875 10 L 223.921875 37 L 200 37 Z M 200 10 "
         id="path2" />
    </clipPath>
  </defs>
  <path
     fill-rule="nonzero"
     fill="rgb(100%, 100%, 100%)"
     fill-opacity="1"
     stroke-width="1"
     stroke-linecap="butt"
     stroke-linejoin="miter"
     stroke="rgb(0%, 0%, 0%)"
     stroke-opacity="1"
     stroke-miterlimit="4"
     d="M 87.999938 1.001849 L 208.002321 1.001849 L 208.002321 60.997843 L 87.999938 60.997843 Z M 87.999938 1.001849 "
     transform="matrix(0.751678, 0, 0, 0.751678, 0.375839, 0.375839)"
     id="path7" />
  <path
     fill-rule="nonzero"
     fill="rgb(0%, 0%, 0%)"
     fill-opacity="1"
     stroke-width="15.804218"
     stroke-linecap="butt"
     stroke-linejoin="miter"
     stroke="rgb(0%, 0%, 0%)"
     stroke-opacity="0.0944"
     stroke-miterlimit="4"
     d="M 108.898851 428.818489 C 91.215372 428.818489 76.652508 434.992012 66.250462 446.824597 C 55.328314 459.171642 50.127291 473.576528 50.127291 491.068176 C 50.127291 538.398516 67.810769 579.555334 103.177725 614.024169 C 138.544682 648.493004 182.233275 665.984651 234.763607 665.984651 C 295.615576 665.984651 346.585601 647.464083 387.153581 609.908487 C 427.72156 572.867351 448.525652 524.50809 449.045754 464.830704 C 449.045754 436.535392 442.284424 408.75454 428.761765 383.031529 C 415.759207 356.794058 399.636036 334.157808 380.912353 315.12278 C 362.18867 295.573292 335.663453 270.879201 300.816599 241.040508 C 276.891893 220.462099 243.605346 189.594486 200.956958 148.952128 L 142.185398 92.875964 L 218.120333 91.847044 C 322.660896 91.847044 378.311842 93.904885 385.073171 96.991646 C 389.754092 98.535027 397.555627 127.859259 408.997877 185.993264 L 408.997877 189.080026 L 449.045754 189.080026 L 449.045754 185.993264 C 448.525652 183.935423 443.844731 153.58227 436.043197 94.933805 C 428.241662 36.28534 423.040639 5.417726 420.96023 2.845425 L 420.96023 -0.241336 L 50.127291 -0.241336 L 50.127291 31.140738 C 50.127291 35.77088 52.2077 40.915482 55.848416 46.060084 C 60.009234 51.204686 69.891178 63.037271 86.014349 81.043379 C 105.258135 102.136248 121.901408 121.171276 135.94417 137.119543 C 142.185398 143.807526 153.107546 156.154571 169.75082 174.160679 C 186.914195 192.166787 197.836344 204.513832 204.077571 211.201815 C 209.798697 217.889798 219.68064 228.693463 233.2033 244.127269 C 246.205858 259.561076 255.567699 270.879201 260.768722 278.081644 C 266.489847 285.284087 273.771279 295.573292 284.173325 307.920337 C 294.055269 320.781842 300.816599 331.585507 304.977417 339.816871 C 309.138236 348.562694 313.819156 358.337439 320.060384 369.141103 C 325.781509 379.430308 330.46243 390.233972 333.062942 401.037637 C 335.663453 411.841302 337.743862 421.616046 339.824271 430.87633 C 341.904681 440.136614 342.944885 451.454739 342.944885 463.801784 C 342.944885 505.987522 331.502635 542.514198 309.138236 572.867351 C 286.253735 603.734964 254.007392 619.168771 211.879106 619.168771 C 190.034809 619.168771 170.791024 613.509709 154.147751 602.191584 C 137.504477 590.873459 125.542124 579.555334 118.780794 568.751669 C 112.539567 558.462465 108.898851 551.774482 108.898851 550.231101 C 108.898851 549.202181 110.459157 549.202181 114.099874 549.202181 C 126.062226 549.202181 138.544682 544.572039 151.027137 534.797295 C 163.509592 525.537011 169.75082 510.103204 169.75082 489.010335 C 169.75082 472.547608 164.549797 458.142722 154.147751 446.824597 C 143.225602 435.506472 128.142636 429.847409 108.898851 428.818489 Z M 108.898851 428.818489 "
     transform="matrix(0.00751054, 0, 0, -0.00759291, 109.369611, 11.822386)"
     id="path9" />
  <path
     fill-rule="nonzero"
     fill="rgb(0%, 0%, 0%)"
     fill-opacity="1"
     stroke-width="15.804218"
     stroke-linecap="butt"
     stroke-linejoin="miter"
     stroke="rgb(0%, 0%, 0%)"
     stroke-opacity="0.0944"
     stroke-miterlimit="4"
     d="M 21.249057 287.220392 C 21.769159 290.821614 22.809364 296.480676 23.849568 303.168659 C 25.409875 309.856642 29.570694 322.203687 35.811921 341.238715 C 42.573251 359.759283 49.334581 375.19309 56.095911 388.054596 C 62.857241 400.916101 73.259287 412.748686 87.822151 425.095732 C 102.905118 436.928317 117.467982 442.587379 132.030847 442.072919 C 146.593711 441.558459 161.156575 438.986158 175.199337 434.870476 C 189.242099 430.754794 199.124043 425.095732 204.845168 416.864368 C 211.086396 409.147465 216.287419 401.430561 220.96834 395.257039 C 225.64926 388.569056 228.249772 381.881073 228.769874 376.22201 L 230.850283 369.019567 C 230.850283 367.476187 231.370386 366.961727 231.890488 366.961727 L 242.812636 377.765391 C 282.860513 420.46559 330.189823 442.072919 383.760359 442.072919 C 395.20261 442.072919 405.604656 441.558459 414.966497 440.015078 C 424.328339 438.471697 433.170078 436.413856 440.971612 432.812635 C 448.773147 429.725874 455.534477 426.124652 460.215397 423.037891 C 464.896318 419.436669 469.577239 415.835448 474.778262 411.205306 C 480.499387 406.575164 483.620001 401.945022 485.180308 397.82934 C 486.220512 394.228118 488.821024 389.597976 492.981842 384.967834 C 497.142661 380.337692 498.182865 376.22201 497.142661 373.135249 C 495.582354 369.534028 496.622558 366.447266 499.743172 363.874965 C 503.383888 361.302664 503.90399 359.244823 501.823581 357.186982 L 510.145218 366.961727 C 551.753402 416.864368 601.683223 442.072919 658.894476 442.072919 C 694.781534 442.072919 723.907263 432.812635 745.75156 414.806527 C 768.115958 396.800419 779.558209 370.562948 780.078311 336.094113 C 780.078311 302.139739 767.075754 249.150336 742.110844 178.154825 C 716.625831 106.644854 704.143376 63.944656 704.143376 50.05423 C 704.663478 40.793946 706.223785 34.105963 708.824296 31.019202 C 711.424808 27.41798 716.625831 25.874599 723.907263 25.874599 C 742.630946 25.874599 759.794322 36.163804 775.917493 56.227753 C 792.040664 75.777241 805.043222 103.558093 814.925165 138.026928 C 817.005575 145.229371 819.085984 149.859513 821.166393 150.888433 C 823.246802 152.431814 828.447825 152.946274 836.769462 152.946274 C 850.292122 152.946274 857.053452 150.373973 857.053452 145.229371 C 857.053452 144.20045 855.493145 139.570308 852.892633 129.795564 C 847.69161 110.760536 840.410178 91.725508 831.048337 73.20494 C 821.686495 54.169912 806.083426 35.649344 784.759232 17.128776 C 763.435038 -1.906253 740.550537 -10.652076 716.105729 -10.137616 C 684.899591 -10.137616 662.015089 -0.877332 647.972327 17.128776 C 633.929565 35.134883 627.168235 53.655451 627.168235 73.20494 C 627.168235 85.551985 639.130588 125.679882 663.055294 193.074172 C 686.98 260.468461 699.462455 310.885562 699.982557 344.839937 C 699.982557 384.453374 685.419693 404.002862 655.773862 404.002862 L 651.092941 404.002862 C 593.881688 404.002862 545.512174 370.562948 505.9844 303.168659 L 499.22307 290.821614 L 465.936523 157.061956 C 444.092226 69.603718 431.089669 22.787838 427.969055 16.099855 C 419.127316 -1.906253 405.084554 -11.166537 384.800564 -11.166537 C 376.478927 -11.166537 369.197495 -8.594235 363.996472 -3.964093 C 358.795449 0.666049 355.154733 4.78173 353.074324 7.868492 C 350.993914 11.469713 349.95371 14.556475 349.95371 18.157696 C 349.95371 25.360139 361.39596 73.20494 383.760359 161.177638 L 420.16752 306.769881 C 422.247929 317.059085 422.768032 329.920591 422.768032 344.839937 C 422.768032 384.453374 408.205167 404.002862 379.079439 404.002862 L 373.878416 404.002862 C 316.667163 404.002862 268.297649 370.562948 228.769874 303.168659 L 222.008544 290.821614 L 189.242099 157.061956 C 166.877701 69.603718 154.395245 22.787838 150.754529 16.099855 C 142.432892 -1.906253 127.870028 -11.166537 108.106141 -11.166537 C 99.264402 -11.166537 92.503072 -9.108696 86.781946 -4.993014 C 81.580923 -0.877332 77.940207 3.23835 75.859798 6.839571 C 73.779389 10.955253 73.259287 14.556475 73.779389 17.128776 C 73.779389 25.874599 86.781946 80.407383 111.746857 181.241586 C 137.751972 283.619171 150.754529 337.123034 150.754529 341.753176 C 152.834938 352.04238 153.875143 360.788204 153.875143 369.019567 C 153.875143 393.199198 145.553506 405.031783 128.910233 405.031783 C 114.347368 405.031783 101.864913 395.771499 91.982969 377.250931 C 82.101026 358.215903 74.299491 338.151954 69.098468 316.030165 C 63.897445 293.908375 59.736627 282.07579 57.136115 280.017949 C 55.575809 278.474568 50.374786 277.960108 41.012944 277.960108 L 26.970182 277.960108 C 22.809364 282.07579 21.249057 285.162551 21.249057 287.220392 Z M 21.249057 287.220392 "
     transform="matrix(0.00751054, 0, 0, -0.00759291, 105.039627, 19.758963)"
     id="path11" />
  <path
     fill-rule="nonzero"
     fill="rgb(0%, 0%, 0%)"
     fill-opacity="1"
     stroke-width="15.804218"
     stroke-linecap="butt"
     stroke-linejoin="miter"
     stroke="rgb(0%, 0%, 0%)"
     stroke-opacity="0.0944"
     stroke-miterlimit="4"
     d="M 310.877317 42.851787 C 300.995374 34.105963 286.432509 24.845679 267.188724 15.070935 C 247.424837 4.78173 227.140847 0.151588 205.816653 0.151588 C 164.208469 0.151588 130.401819 15.070935 104.916807 44.909628 C 79.431794 74.748321 66.429237 113.332837 65.909134 160.148717 C 65.909134 230.115308 91.914249 294.422835 142.884275 353.071301 C 194.374402 411.719766 251.585655 441.558459 313.997931 442.072919 C 345.204069 442.072919 374.329798 426.124652 400.855015 394.228118 L 403.975629 397.82934 C 405.535936 399.887181 407.096243 401.945022 409.176652 404.002862 C 411.257061 406.060703 413.857573 408.633004 418.018391 412.234226 C 422.179209 415.320987 426.340028 417.893288 431.020948 418.922209 C 435.701869 420.46559 440.902892 421.49451 447.14412 422.00897 C 456.505961 422.00897 463.787393 418.922209 470.028621 412.748686 C 475.749746 407.089624 479.390462 400.916101 479.910565 394.228118 C 479.910565 383.938914 461.186882 303.168659 423.219414 151.917354 C 385.251946 0.666049 364.967956 -76.502985 362.887547 -80.104206 C 350.925194 -116.116422 325.440182 -145.440654 285.912407 -169.105825 C 246.904735 -192.256535 201.655834 -204.08912 151.205911 -205.11804 C 57.067395 -205.11804 10.258188 -182.48179 10.258188 -137.209291 C 10.258188 -119.717643 15.979314 -104.283837 27.941667 -90.907871 C 39.904019 -77.531905 55.507088 -70.843922 74.230771 -70.843922 C 84.112715 -70.843922 93.474556 -73.930684 101.796193 -80.104206 C 110.637932 -85.763269 115.318853 -96.566933 115.838955 -110.97182 C 115.838955 -117.659802 115.318853 -123.833325 113.758546 -130.006848 C 112.718341 -136.18037 110.11783 -140.810512 106.997216 -143.897274 C 103.876602 -147.498495 100.755988 -150.585257 99.195682 -154.186478 C 97.115272 -157.27324 94.514761 -159.845541 91.914249 -161.903382 L 89.83384 -163.961222 L 90.874045 -163.961222 C 97.635375 -166.019063 117.919364 -167.047984 151.205911 -167.047984 C 176.170822 -167.047984 196.454812 -162.932302 211.017676 -155.215399 C 226.100643 -147.498495 240.663507 -136.694831 254.186167 -121.775484 C 267.188724 -107.370598 276.550566 -91.422331 281.751589 -74.959604 C 285.912407 -62.098098 291.11343 -41.51969 297.87476 -13.224377 C 306.716499 19.186617 310.877317 37.707185 310.877317 42.851787 Z M 384.211742 327.86275 L 380.050923 339.180875 C 377.970514 346.383318 376.410207 351.52792 374.8499 354.100221 C 373.809696 356.672522 371.729286 361.302664 369.128775 367.990647 C 366.528263 374.67863 362.887547 379.308772 359.246831 381.881073 C 355.086013 384.453374 350.925194 388.569056 346.244274 393.199198 C 341.563353 397.82934 335.322125 400.916101 328.040693 401.945022 C 320.759261 403.488402 313.477829 404.517323 306.196397 405.031783 C 276.550566 405.031783 248.465041 387.540135 220.89962 352.04238 C 201.135732 325.804909 184.492459 286.191472 170.969799 233.202069 C 157.447139 179.698206 151.205911 141.113689 151.205911 116.934059 C 151.205911 64.459116 171.489901 38.221645 213.098085 38.221645 C 250.545451 38.221645 286.952612 61.372355 322.83967 108.188235 L 331.161307 117.962979 Z M 384.211742 327.86275 "
     transform="matrix(0.00751054, 0, 0, -0.00759291, 111.633893, 19.758963)"
     id="path13" />
  <path
     fill-rule="nonzero"
     fill="rgb(0%, 0%, 0%)"
     fill-opacity="1"
     stroke-width="15.804218"
     stroke-linecap="butt"
     stroke-linejoin="miter"
     stroke="rgb(0%, 0%, 0%)"
     stroke-opacity="0.0944"
     stroke-miterlimit="4"
     d="M 116.813678 58.800054 C 116.813678 37.192724 125.135315 25.874599 141.778589 25.874599 C 166.743499 25.874599 187.547591 60.857895 205.231069 130.824485 C 208.871785 144.20045 212.512501 151.402894 215.113013 151.917354 C 216.153217 152.431814 219.793934 152.946274 224.994957 152.946274 L 229.155775 152.946274 C 234.8769 152.946274 239.037719 152.946274 241.118128 152.946274 C 243.198537 152.946274 244.758844 152.431814 245.799049 150.888433 C 247.359355 149.859513 247.879458 147.287212 247.879458 144.20045 C 247.359355 140.084769 246.319151 134.425706 244.758844 128.252184 C 243.718639 121.564201 240.077923 108.702695 233.836696 90.182127 C 228.11557 71.147099 221.35424 55.713292 214.072808 42.851787 C 206.791376 30.504741 196.38933 18.157696 182.86667 5.810651 C 169.864113 -6.021934 154.261044 -11.680997 137.097668 -11.166537 C 113.172962 -11.166537 90.808563 -3.449633 70.004471 10.955253 C 49.200379 25.874599 38.798333 50.56869 37.758129 85.037525 C 37.758129 92.754428 38.278231 98.413491 38.798333 102.014712 L 103.811121 359.759283 C 145.939407 530.045617 166.743499 617.503855 166.743499 623.162917 C 166.743499 625.220758 166.743499 626.764139 166.223397 627.793059 C 165.183192 629.33644 164.142988 630.87982 162.062578 631.908741 C 159.982169 633.452121 158.421862 633.966582 156.861555 633.966582 C 155.821351 633.966582 153.220839 634.481042 149.060021 634.995502 C 144.899202 635.509962 142.298691 636.024423 141.258486 636.024423 C 139.698179 636.024423 136.577566 636.538883 131.896645 637.053343 C 127.215724 637.567803 124.095111 637.567803 122.014701 637.053343 C 115.253371 637.053343 111.092553 637.053343 109.012144 637.053343 C 106.931735 637.053343 104.331223 637.567803 101.210609 638.082263 C 97.569893 638.596724 95.489484 639.625644 94.969382 641.169025 C 94.449279 642.197945 93.929177 644.255786 93.929177 646.828087 C 93.929177 648.371468 94.449279 653.00161 96.009586 661.232973 C 99.1302 673.580019 102.770916 680.782462 106.931735 681.811382 C 111.092553 683.354763 135.017259 685.412604 179.225954 687.984905 C 189.107898 688.499365 200.550149 689.528286 213.032604 690.042746 C 225.515059 690.557206 235.917105 691.586126 243.198537 693.129507 C 250.479969 694.158428 254.120685 694.672888 254.120685 694.158428 C 261.92222 694.158428 266.083038 691.586126 266.083038 685.927064 C 266.083038 678.724621 241.63823 578.919338 192.748614 385.996755 C 144.3791 193.588632 119.41419 92.239968 117.853883 82.979684 C 117.853883 81.436303 117.853883 78.864002 117.853883 74.748321 C 117.853883 71.147099 117.853883 67.545877 116.813678 64.973576 Z M 116.813678 58.800054 "
     transform="matrix(0.00751054, 0, 0, -0.00759291, 115.216416, 19.758963)"
     id="path15" />
  <path
     fill-rule="nonzero"
     fill="rgb(0%, 0%, 0%)"
     fill-opacity="1"
     d="M 103.976563 13.691406 L 118.519531 13.691406 L 118.519531 13.046875 L 103.976563 13.046875 Z M 103.976563 13.691406 "
     id="path17" />
  <path
     fill-rule="nonzero"
     fill="rgb(0%, 0%, 0%)"
     fill-opacity="1"
     stroke-width="15.804218"
     stroke-linecap="butt"
     stroke-linejoin="miter"
     stroke="rgb(0%, 0%, 0%)"
     stroke-opacity="0.0944"
     stroke-miterlimit="4"
     d="M 109.047587 428.94423 C 90.844007 428.94423 76.801245 435.117752 65.879096 446.950337 C 55.47705 458.782922 49.755925 473.702269 49.755925 491.193916 C 49.755925 538.524257 67.439403 579.166614 102.806359 614.149909 C 138.173316 648.618744 182.382011 666.110392 234.912343 666.110392 C 295.764312 666.110392 346.214236 647.589824 386.782215 610.034228 C 427.870296 572.478631 448.154286 524.119371 449.194491 464.956445 C 449.194491 436.146673 442.433161 408.880281 428.910501 383.15727 C 415.907944 356.919798 399.784772 334.283549 381.06109 315.248521 C 362.337407 295.699032 335.81219 271.004941 300.965335 241.166249 C 277.04063 220.58784 243.754083 189.720226 201.105694 149.077869 L 141.814032 93.001705 L 217.748968 91.972784 C 322.809632 91.972784 378.460578 93.516165 385.221908 97.117386 C 389.902829 98.146307 397.704363 127.985 409.146614 186.119005 L 409.146614 189.205766 L 449.194491 189.205766 L 449.194491 186.119005 C 448.154286 184.061164 443.993468 153.708011 436.191933 95.059546 C 427.870296 36.41108 423.189376 5.543467 421.108967 2.971166 L 421.108967 -0.115595 L 49.755925 -0.115595 L 49.755925 30.752018 C 49.755925 35.89662 51.836334 40.526762 55.997153 46.185825 C 60.157971 51.330427 70.039915 63.163012 86.163086 81.16912 C 105.406871 102.261989 122.050145 120.782557 136.092907 137.245284 C 141.814032 143.418806 153.256282 155.765852 169.899556 173.77196 C 186.54283 191.778067 197.98508 204.125113 204.226308 210.813096 C 209.947433 217.501078 219.829377 228.819203 232.831934 244.25301 C 246.354594 259.172356 255.716435 270.490481 260.917458 278.207385 C 266.118481 285.409828 273.920016 295.184572 283.80196 308.046077 C 294.204006 320.907583 300.965335 331.196787 305.126154 339.942611 C 308.76687 348.688435 313.967893 358.463179 320.209121 368.752384 C 325.930246 379.556048 330.091064 390.359713 333.211678 401.163378 C 335.81219 411.452582 337.892599 421.741786 339.973008 431.00207 C 342.053417 440.262354 343.093622 451.580479 343.093622 463.927525 C 343.093622 506.113263 331.651371 542.125478 308.76687 572.993092 C 286.402471 603.860705 254.156129 618.780051 212.027842 618.780051 C 190.183546 618.780051 170.419658 613.120989 153.776385 601.802864 C 137.133111 590.484739 125.690861 579.681075 118.929531 568.87741 C 112.168201 558.588205 109.047587 551.900223 109.047587 549.842382 C 109.047587 549.327921 110.607894 548.813461 114.24861 548.813461 C 126.210963 548.813461 138.173316 544.183319 151.175873 534.923035 C 163.658328 525.662751 169.899556 510.228945 169.899556 489.136076 C 169.899556 472.158888 164.698533 458.268462 153.776385 446.950337 C 143.374339 435.632212 128.291372 429.45869 109.047587 428.94423 Z M 109.047587 428.94423 "
     transform="matrix(0.00751054, 0, 0, -0.00759291, 76.763025, 31.096779)"
     id="path19" />
  <path
     fill-rule="nonzero"
     fill="rgb(0%, 0%, 0%)"
     fill-opacity="1"
     stroke-width="15.804218"
     stroke-linecap="butt"
     stroke-linejoin="miter"
     stroke="rgb(0%, 0%, 0%)"
     stroke-opacity="0.0944"
     stroke-miterlimit="4"
     d="M 117.187294 59.04733 C 117.187294 36.925541 125.508931 26.121876 142.152204 26.121876 C 166.597012 26.121876 187.921206 61.105171 205.084582 131.071761 C 209.245401 144.447727 212.366015 151.13571 214.966526 152.16463 C 216.526833 152.67909 219.647447 153.193551 224.84847 153.193551 L 229.009288 153.193551 C 235.250516 153.193551 238.891232 153.193551 240.971641 153.193551 C 243.05205 153.193551 244.612357 152.16463 246.172664 151.13571 C 247.212869 149.592329 248.253073 147.534488 248.253073 143.933267 C 247.212869 139.817585 246.172664 134.672983 245.132459 127.985 C 243.572152 121.297017 239.931436 108.435511 234.210311 89.914943 C 227.969083 71.394375 221.207754 55.446109 213.926321 43.099063 C 206.644889 30.237558 196.242843 17.890512 183.240286 6.057927 C 169.717626 -5.774658 154.114557 -11.43372 136.951181 -10.91926 C 113.026475 -10.91926 90.662076 -3.716817 69.857985 11.202529 C 49.573995 25.607416 38.651847 50.301506 38.131744 84.770341 C 38.131744 93.001705 38.131744 98.660767 39.171949 101.747528 L 104.184736 360.00656 C 145.79292 529.778433 167.117114 617.751131 167.117114 622.895733 C 167.117114 624.953574 166.597012 626.496955 166.07691 628.040335 C 165.556808 629.583716 163.996501 630.612637 161.916091 632.156017 C 159.835682 633.184938 158.275375 634.213858 157.235171 634.213858 C 155.674864 634.213858 153.074352 634.213858 148.913534 635.242778 C 144.752716 635.757239 142.152204 635.757239 141.112 635.757239 C 139.551693 635.757239 136.431079 636.271699 131.750158 636.786159 C 127.58934 637.81508 123.948624 637.81508 121.868214 636.786159 C 115.106885 636.786159 110.946066 636.786159 108.865657 636.786159 C 106.785248 636.786159 104.184736 637.300619 101.064122 637.81508 C 97.423406 638.844 95.863099 639.87292 94.822895 640.901841 C 94.302793 642.445222 93.78269 644.503062 93.78269 647.075364 C 93.78269 648.104284 94.822895 653.248886 95.863099 660.96579 C 99.503816 673.827295 103.144532 680.515278 106.785248 682.058659 C 110.946066 683.087579 134.870772 685.14542 179.079467 688.232181 C 188.961411 688.746642 200.403662 689.261102 212.886117 689.775562 C 225.888674 690.804482 235.770618 691.833403 243.05205 692.862323 C 250.333482 694.405704 253.974198 694.920164 253.974198 693.891244 C 261.775733 693.891244 265.936551 691.318943 265.936551 686.17434 C 265.936551 678.457437 241.491743 578.652154 193.122229 386.244031 C 144.232613 193.321448 119.267703 92.487244 118.227498 83.22696 C 118.227498 81.68358 118.227498 79.111279 118.227498 74.995597 C 118.227498 70.879915 117.707396 67.793154 117.187294 65.220853 Z M 117.187294 59.04733 "
     transform="matrix(0.00751054, 0, 0, -0.00759291, 80.518297, 31.096779)"
     id="path21" />
  <path
     fill-rule="nonzero"
     fill="rgb(0%, 0%, 0%)"
     fill-opacity="1"
     stroke-width="15.804218"
     stroke-linecap="butt"
     stroke-linejoin="miter"
     stroke="rgb(0%, 0%, 0%)"
     stroke-opacity="0.0944"
     stroke-miterlimit="4"
     d="M 126.805863 462.776689 C 109.122385 462.776689 95.079623 468.435751 85.197679 479.753876 C 74.795633 491.586461 69.59461 505.991348 69.074508 523.997455 C 69.074508 560.524131 85.197679 593.449585 116.923919 621.744898 C 149.170262 650.55467 187.657832 664.959556 232.906732 664.959556 C 256.311336 664.959556 270.8742 664.445096 277.115428 663.930636 C 326.525146 656.213732 363.972511 638.207625 389.977626 610.941233 C 415.982741 583.674841 429.505401 553.836148 430.025503 521.939615 C 430.025503 487.47078 418.583253 453.516405 396.218854 421.105411 C 373.334353 388.179957 342.128215 364.514787 302.080338 350.1099 L 298.959724 348.05206 C 298.959724 347.537599 302.080338 346.508679 307.801463 344.965298 C 314.042691 343.421918 323.924634 340.849616 336.927192 336.219474 C 350.449852 331.589332 362.932307 324.386889 374.89466 315.126605 C 429.505401 279.62885 457.070823 232.81297 457.070823 175.193425 C 457.070823 122.204022 436.266731 76.417062 395.178649 36.803625 C 353.570465 -2.295351 301.560236 -21.84484 238.107755 -21.84484 C 184.537218 -21.84484 138.768216 -7.439954 99.760543 20.855359 C 61.272973 49.665131 42.029188 86.191807 42.029188 129.920926 C 42.029188 148.441494 47.750314 163.8753 60.232769 175.193425 C 72.195122 186.51155 86.757986 192.170612 104.961566 193.199533 C 123.685249 193.199533 138.768216 187.02601 151.250671 175.193425 C 163.213024 162.84638 168.934149 147.927033 168.934149 129.920926 C 168.934149 122.718482 167.893945 116.0305 165.813535 109.856977 C 164.253229 104.197914 161.652717 98.538852 159.052206 93.90871 C 156.451694 89.278568 152.810978 85.162886 148.130057 82.076125 C 143.449137 78.474903 139.288318 75.902602 136.167704 73.844761 C 132.526988 71.78692 129.406375 70.758 125.765658 70.24354 C 122.645045 69.214619 120.044533 68.185699 117.964124 67.156778 L 113.803306 66.127858 C 148.130057 35.774705 189.218139 20.855359 238.107755 20.855359 C 274.514916 20.855359 302.080338 38.861466 320.804021 73.844761 C 332.246271 95.966551 337.967397 129.920926 337.967397 175.193425 L 337.967397 194.742913 C 337.967397 258.535981 316.643202 300.721719 273.994814 321.814588 C 264.11287 325.93027 243.82888 328.502571 213.142845 329.017031 L 171.014558 330.045952 L 167.893945 332.103793 C 166.85374 334.161634 165.813535 339.306236 165.813535 348.05206 C 165.813535 359.884645 168.414047 366.058167 174.135172 366.058167 C 192.858855 366.058167 212.10264 367.601548 231.866527 371.20277 C 254.751029 374.289531 275.555121 388.179957 293.758701 412.874048 C 312.482384 437.568138 321.844225 475.123734 321.844225 525.026376 L 321.844225 532.743279 C 321.844225 570.813336 310.401975 597.565267 286.997371 611.970153 C 272.434507 621.230437 256.831438 625.860579 240.188164 625.860579 C 218.86397 625.860579 199.100083 622.259358 180.896502 615.056915 C 163.213024 607.854472 150.210466 600.137568 142.929034 591.906205 C 135.647602 584.189301 132.006886 580.07362 132.006886 580.07362 L 135.1275 580.07362 C 137.207909 579.559159 139.808421 578.530239 142.929034 578.015779 C 146.56975 577.501319 149.690364 575.443478 152.810978 572.871177 C 156.451694 570.298875 160.09241 568.241035 164.773331 566.183194 C 169.454252 564.125353 173.094968 560.524131 175.175377 554.865069 C 177.255786 549.720467 179.856298 544.575864 182.976911 539.945722 C 186.097525 535.31558 187.13773 528.627597 186.097525 519.881774 C 186.097525 505.476887 181.416604 492.100922 172.054763 480.782797 C 162.692922 469.464672 147.609955 463.805609 126.805863 462.776689 Z M 126.805863 462.776689 "
     transform="matrix(0.00751054, 0, 0, -0.00759291, 76.090588, 39.033353)"
     id="path23" />
  <path
     fill-rule="nonzero"
     fill="rgb(0%, 0%, 0%)"
     fill-opacity="1"
     stroke-width="15.804218"
     stroke-linecap="butt"
     stroke-linejoin="miter"
     stroke="rgb(0%, 0%, 0%)"
     stroke-opacity="0.0944"
     stroke-miterlimit="4"
     d="M 310.741106 42.977148 C 300.859162 34.231324 286.296297 24.97104 267.052512 15.196296 C 247.808727 4.907092 227.524738 -0.237511 206.200543 -0.237511 C 164.072257 -0.237511 130.265608 15.196296 104.780595 45.034989 C 79.815685 74.873682 66.813127 113.458198 65.772923 159.759618 C 65.772923 230.240669 91.778038 294.548197 142.748063 353.196662 C 194.23819 411.845127 251.449443 441.16936 313.861719 442.19828 C 345.58796 442.19828 374.193586 426.250013 401.238906 393.839019 L 403.839417 397.954701 C 405.399724 400.012542 406.960031 402.070383 409.04044 404.128224 C 411.120849 406.186065 414.241463 408.758366 417.882179 411.845127 C 422.042998 415.446349 426.203816 417.50419 430.884737 419.04757 C 435.565657 420.076491 440.76668 421.105411 447.007908 422.134332 C 456.369749 422.134332 464.171284 419.04757 469.892409 412.874048 C 476.133637 407.214985 479.25425 400.527002 479.774353 393.839019 C 479.774353 384.064275 461.05067 303.29402 423.083202 152.042715 C 385.115734 0.79141 364.831745 -76.892084 362.751335 -79.978845 C 350.788983 -115.99106 325.30397 -145.829753 285.776195 -168.980463 C 246.768523 -192.131173 201.519623 -204.478219 151.0697 -204.992679 C 56.931183 -204.992679 10.121977 -182.356429 10.121977 -137.08393 C 10.121977 -119.592282 15.843102 -104.158475 27.805455 -90.78251 C 39.767808 -77.921004 55.370877 -71.233021 74.094559 -71.233021 C 83.976503 -71.233021 93.338344 -73.805322 102.180084 -79.978845 C 110.50172 -86.152368 115.182641 -96.441572 116.222846 -110.846458 C 116.222846 -117.534441 115.182641 -124.222424 114.142436 -129.881486 C 112.58213 -136.055009 110.50172 -140.685151 106.861004 -143.771912 C 103.74039 -147.373134 101.139879 -150.459895 99.05947 -154.061117 C 96.979061 -157.147878 94.898651 -160.23464 91.778038 -161.77802 L 90.217731 -163.835861 L 91.257935 -163.835861 C 97.499163 -165.893702 117.783153 -166.922622 151.0697 -166.922622 C 176.554712 -166.922622 196.3186 -162.806941 210.881464 -155.090037 C 226.484533 -147.887594 240.527295 -136.569469 254.049955 -122.164583 C 267.572615 -107.245237 276.414354 -91.81143 282.135479 -74.834243 C 285.776195 -62.487197 291.49732 -41.908789 298.25865 -13.099016 C 306.580287 18.797518 310.741106 37.832546 310.741106 42.977148 Z M 384.07553 327.988111 L 379.914711 338.791776 C 377.834302 346.508679 376.273995 351.138821 375.233791 354.225582 C 373.673484 356.797883 371.593075 361.428025 368.992563 368.116008 C 366.392052 374.803991 362.751335 379.434133 359.110619 382.006434 C 354.949801 384.578735 350.788983 388.179957 346.108062 392.810099 C 341.427141 397.440241 335.185914 400.527002 327.904481 402.070383 C 320.623049 403.099303 313.341617 404.128224 306.060185 405.157144 C 276.414354 405.157144 248.32883 387.151036 220.763408 352.167741 C 200.99952 325.93027 184.356247 286.316833 170.833587 232.81297 C 157.83103 179.823567 151.0697 141.23905 151.0697 117.05942 C 151.0697 64.584477 171.873792 37.832546 212.961873 37.832546 C 250.409239 37.832546 286.8164 61.497716 323.223561 107.799136 L 331.025095 118.08834 Z M 384.07553 327.988111 "
     transform="matrix(0.00751054, 0, 0, -0.00759291, 79.845853, 39.033353)"
     id="path25" />
  <path
     fill-rule="nonzero"
     fill="rgb(0%, 0%, 0%)"
     fill-opacity="1"
     d="M 75.027344 32.964844 L 84.492188 32.964844 L 84.492188 32.320313 L 75.027344 32.320313 Z M 75.027344 32.964844 "
     id="path27" />
  <path
     fill-rule="nonzero"
     fill="rgb(0%, 0%, 0%)"
     fill-opacity="1"
     stroke-width="11.173582"
     stroke-linecap="butt"
     stroke-linejoin="miter"
     stroke="rgb(0%, 0%, 0%)"
     stroke-opacity="0.1335"
     stroke-miterlimit="4"
     d="M 130.858732 289.165948 C 130.858732 310.261903 136.374418 332.085305 147.038076 353.908706 C 157.701734 376.095831 176.455063 396.464339 202.930352 415.01423 C 229.773353 433.564122 262.13204 442.657206 300.006411 441.929759 C 341.190194 441.929759 371.342606 432.836675 390.095936 415.01423 C 408.849265 396.828062 418.409786 376.823278 419.145211 354.999876 C 419.145211 333.540198 413.261813 317.900094 401.862731 308.079563 C 390.83136 297.895309 377.961428 292.803182 363.988359 292.075735 C 355.163263 292.075735 347.441304 294.621799 340.087057 300.077649 C 332.73281 305.169776 328.687974 313.899137 327.952549 325.902007 C 327.952549 336.813708 330.894248 345.906792 337.145358 353.908706 C 343.028756 361.91062 348.544441 368.093917 354.060126 372.094874 C 359.208099 376.095831 363.620647 377.914448 366.930058 377.914448 C 367.665483 377.914448 368.033195 378.278171 368.033195 379.005618 C 368.033195 380.824235 365.826921 384.097745 361.04666 388.098702 C 356.2664 392.099659 348.176728 395.736892 336.042221 399.010403 C 323.907714 402.283913 311.037782 404.466253 297.064712 404.829976 C 265.073738 404.829976 241.540148 396.464339 226.831654 379.005618 C 212.490873 361.546897 204.768914 344.088175 204.033489 325.902007 C 204.033489 309.170733 210.284599 297.531585 223.154531 290.984565 C 235.656751 284.437545 254.042368 278.617971 277.94367 273.889567 C 301.844973 269.161163 319.495165 264.43276 330.158823 258.976909 C 373.916593 239.699571 395.979333 207.691916 395.979333 162.953943 C 395.979333 144.404051 392.30221 125.490437 384.947963 106.940546 C 377.593716 88.390654 366.562346 69.840763 351.853852 50.927148 C 337.51307 32.377257 316.185754 17.828323 288.975041 6.916622 C 261.764327 -3.631356 230.508778 -9.450929 194.84068 -10.178376 C 143.728664 -10.178376 107.325142 -0.357845 85.997826 18.919493 C 64.67051 38.196831 53.63914 61.111402 52.903715 86.935761 C 52.903715 113.123843 59.89025 131.673734 73.863319 142.949158 C 87.836388 154.224582 102.544882 160.044156 117.9888 160.044156 C 127.917034 160.044156 137.477555 157.134369 145.934938 150.951072 C 154.760035 145.131498 159.172583 134.583521 159.908008 120.034586 C 159.908008 102.575865 154.02461 88.026931 141.890103 76.02406 C 130.123308 64.021189 119.827362 57.837892 111.002266 57.837892 C 109.531416 57.474169 108.795992 57.110445 108.060567 57.110445 C 107.325142 57.110445 106.95743 56.382999 106.95743 54.928105 C 107.692855 53.109488 110.266841 50.199702 115.047101 46.926191 C 119.827362 43.652681 130.123308 39.288001 145.934938 33.83215 C 162.114282 28.740023 180.499899 26.19396 201.09179 26.921407 C 224.993093 26.921407 245.584984 30.55864 262.867464 37.833107 C 280.149945 45.471298 293.019877 54.564382 301.109548 65.839806 C 308.831507 77.478953 314.714905 87.663207 318.024316 97.120015 C 321.333727 106.213099 323.172289 114.578736 323.172289 121.853203 C 323.172289 140.766818 315.818042 154.588305 301.844973 164.045113 C 287.871904 173.50192 272.060273 178.957771 254.042368 181.140111 C 236.024463 182.958727 216.167996 188.050854 194.84068 196.052768 C 173.513364 204.054682 158.069446 215.69383 148.141213 230.970211 C 136.74213 247.701485 130.858732 266.978823 130.858732 289.165948 Z M 130.858732 289.165948 "
     transform="matrix(0.0106231, 0, 0, -0.0107396, 85.766123, 35.328188)"
     id="path29" />
  <path
     fill-rule="nonzero"
     fill="rgb(0%, 0%, 0%)"
     fill-opacity="1"
     stroke-width="15.804218"
     stroke-linecap="butt"
     stroke-linejoin="miter"
     stroke="rgb(0%, 0%, 0%)"
     stroke-opacity="0.0944"
     stroke-miterlimit="4"
     d="M 109.053831 428.779921 C 90.850251 428.779921 76.807489 434.953444 65.88534 446.786029 C 55.483294 459.133074 49.762169 473.537961 49.762169 491.029608 C 49.762169 538.359949 67.445647 579.516766 102.812604 613.985601 C 138.17956 648.454436 182.388255 665.946084 234.918588 665.946084 C 295.770557 665.946084 346.22048 647.425516 386.788459 609.869919 C 427.876541 572.828784 448.16053 524.469523 449.200735 464.792137 C 449.200735 436.496825 442.439405 409.230433 428.916745 382.992962 C 415.914188 356.75549 399.791017 334.119241 381.067334 315.084212 C 362.343651 295.534724 335.818434 270.840633 300.97158 241.00194 C 277.046874 220.423532 243.760327 189.555918 201.111938 148.913561 L 141.820276 92.837397 L 217.755212 91.808476 C 322.815876 91.808476 378.466822 93.866317 385.228152 96.953078 C 389.909073 98.496459 397.710607 127.820692 409.152858 185.954697 L 409.152858 189.041458 L 449.200735 189.041458 L 449.200735 185.954697 C 448.16053 183.896856 443.999712 153.543703 436.198177 94.895237 C 427.876541 36.246772 423.19562 5.893619 421.115211 2.806858 L 421.115211 0.234557 L 49.762169 0.234557 L 49.762169 31.10217 C 49.762169 35.732312 51.842578 40.876914 56.003397 46.021516 C 60.164215 51.166119 70.046159 62.998704 86.16933 81.004811 C 105.413115 102.097681 122.056389 121.132709 136.099151 137.080976 C 141.820276 143.768959 153.262527 156.116004 169.9058 174.122112 C 186.549074 192.128219 197.991324 204.475265 204.232552 211.163248 C 209.953677 217.85123 219.835621 228.654895 232.838178 244.088702 C 246.360838 259.522508 255.72268 270.840633 260.923703 278.043076 C 266.124726 285.24552 273.92626 295.534724 283.808204 307.881769 C 294.21025 320.743275 300.97158 331.546939 305.132398 339.778303 C 308.773114 348.524127 313.974137 358.298871 320.215365 369.102536 C 325.93649 379.9062 330.097308 390.195405 333.217922 400.999069 C 335.818434 411.802734 337.898843 421.577478 339.979252 430.837762 C 342.059661 440.098046 343.099866 451.416171 343.099866 463.763216 C 343.099866 505.948955 331.657615 542.47563 308.773114 572.828784 C 286.408715 603.696397 254.162373 619.130203 212.034087 619.130203 C 190.18979 619.130203 170.425903 613.471141 153.782629 602.153016 C 137.139355 590.834891 125.697105 579.516766 118.935775 569.227562 C 112.174445 558.423897 109.053831 552.250375 109.053831 550.192534 C 109.053831 549.163613 110.614138 549.163613 114.254854 549.163613 C 126.217207 549.163613 138.17956 544.533471 151.182117 534.758727 C 163.664573 525.498443 169.9058 510.579097 169.9058 488.971767 C 169.9058 472.50904 164.704777 458.104154 153.782629 446.786029 C 143.380583 435.467904 128.297616 429.808842 109.053831 428.779921 Z M 109.053831 428.779921 "
     transform="matrix(0.00751054, 0, 0, -0.00759291, 91.098915, 32.224437)"
     id="path31" />
  <path
     fill-rule="nonzero"
     fill="rgb(0%, 0%, 0%)"
     fill-opacity="1"
     stroke-width="11.173582"
     stroke-linecap="butt"
     stroke-linejoin="miter"
     stroke="rgb(0%, 0%, 0%)"
     stroke-opacity="0.1335"
     stroke-miterlimit="4"
     d="M 55.819475 237.153508 C 55.819475 237.153508 55.819475 241.154465 55.819475 249.883825 C 55.819475 258.613186 60.599736 265.160207 70.160257 269.88861 L 369.110393 269.88861 L 369.110393 420.106357 L 369.845818 569.960381 C 376.832353 578.689742 383.083462 583.054422 388.96686 583.054422 C 397.791956 583.054422 404.410778 577.962295 408.823327 568.141764 L 408.823327 269.88861 L 707.038039 269.88861 C 716.966272 264.796483 722.114245 257.885739 722.114245 249.883825 C 722.114245 241.881912 716.966272 235.334891 707.038039 229.879041 L 408.823327 229.879041 L 408.823327 -68.01039 C 403.675354 -77.467197 397.791956 -81.831878 391.173134 -81.831878 L 387.128298 -81.831878 C 379.038627 -81.831878 373.155229 -77.467197 369.110393 -68.01039 L 369.110393 229.879041 L 70.160257 229.879041 C 60.599736 234.607444 55.819475 241.154465 55.819475 249.883825 Z M 55.819475 237.153508 "
     transform="matrix(0.0106231, 0, 0, -0.0107396, 97.746867, 35.328188)"
     id="path33" />
  <path
     fill-rule="nonzero"
     fill="rgb(0%, 0%, 0%)"
     fill-opacity="1"
     stroke-width="15.804218"
     stroke-linecap="butt"
     stroke-linejoin="miter"
     stroke="rgb(0%, 0%, 0%)"
     stroke-opacity="0.0944"
     stroke-miterlimit="4"
     d="M 108.832959 428.94423 C 91.149481 428.94423 76.586617 435.117752 66.184571 446.950337 C 55.262422 458.782922 50.061399 473.702269 50.061399 491.193916 C 50.061399 538.524257 67.744877 579.166614 103.111834 614.149909 C 138.47879 648.618744 182.167383 666.110392 235.217818 666.110392 C 295.549685 666.110392 346.51971 647.589824 387.087689 610.034228 C 427.655669 572.478631 448.45976 524.119371 448.979863 464.956445 C 448.979863 436.146673 442.218533 408.880281 429.215975 383.15727 C 415.693316 356.919798 399.570144 334.283549 380.846462 315.248521 C 362.122779 295.699032 335.597562 271.004941 300.750708 241.166249 C 276.826002 220.58784 243.539455 189.720226 200.891066 149.077869 L 142.119506 93.001705 L 218.054442 91.972784 C 322.595004 91.972784 378.24595 93.516165 385.00728 97.117386 C 389.688201 98.146307 397.489735 127.985 408.931986 186.119005 L 408.931986 189.205766 L 448.979863 189.205766 L 448.979863 186.119005 C 448.45976 184.061164 443.77884 153.708011 435.977305 95.059546 C 428.175771 36.41108 422.974748 5.543467 420.894339 2.971166 L 420.894339 -0.115595 L 50.061399 -0.115595 L 50.061399 30.752018 C 50.061399 35.89662 52.141808 40.526762 55.782525 46.185825 C 59.943343 51.330427 69.825287 63.163012 85.948458 81.16912 C 105.192243 102.261989 121.835517 120.782557 135.878279 137.245284 C 142.119506 143.418806 153.561757 155.765852 170.20503 173.77196 C 186.848304 191.778067 197.770452 204.125113 204.01168 210.813096 C 210.252907 217.501078 219.614749 228.819203 233.137409 244.25301 C 246.139966 259.172356 255.501807 270.490481 261.222933 278.207385 C 266.423956 285.409828 274.22549 295.184572 284.107434 308.046077 C 293.989378 320.907583 300.750708 331.196787 304.911526 339.942611 C 309.072344 348.688435 313.753265 358.463179 319.994493 368.752384 C 326.23572 379.556048 330.396539 390.359713 332.99705 401.163378 C 335.597562 411.452582 338.198073 421.741786 339.75838 431.00207 C 341.838789 440.262354 342.878994 451.580479 342.878994 463.927525 C 342.878994 506.113263 331.436743 542.125478 309.072344 572.993092 C 286.187843 603.860705 253.941501 618.780051 211.813214 618.780051 C 189.968918 618.780051 170.725133 613.120989 154.081859 601.802864 C 137.438586 590.484739 125.476233 579.681075 119.235005 568.87741 C 112.473675 558.588205 108.832959 551.900223 108.832959 549.842382 C 108.832959 549.327921 110.913368 548.813461 114.033982 548.813461 C 125.996335 548.813461 138.47879 544.183319 150.961245 534.923035 C 163.443701 525.662751 170.20503 510.228945 170.20503 489.136076 C 170.20503 472.158888 164.483905 458.268462 154.081859 446.950337 C 143.159711 435.632212 128.076744 429.45869 108.832959 428.94423 Z M 108.832959 428.94423 "
     transform="matrix(0.00751054, 0, 0, -0.00759291, 113.428699, 31.096779)"
     id="path35" />
  <path
     fill-rule="nonzero"
     fill="rgb(0%, 0%, 0%)"
     fill-opacity="1"
     stroke-width="15.804218"
     stroke-linecap="butt"
     stroke-linejoin="miter"
     stroke="rgb(0%, 0%, 0%)"
     stroke-opacity="0.0944"
     stroke-miterlimit="4"
     d="M 72.763012 647.075364 C 72.763012 653.763346 74.323319 661.48025 76.92383 670.226074 C 79.524342 678.457437 83.68516 683.087579 88.886183 683.087579 C 89.926388 683.087579 113.851093 684.63096 161.180403 688.232181 C 208.509712 691.318943 232.434418 693.376784 233.994724 693.891244 C 241.796259 693.891244 245.957077 690.804482 245.957077 685.14542 C 245.957077 678.971897 234.514827 631.127097 212.150428 542.125478 C 206.429303 519.489229 201.22828 495.824058 194.987052 472.158888 C 188.745824 447.979258 184.064904 429.97315 179.904085 418.140565 L 175.743267 399.105537 C 175.743267 397.047696 177.823676 398.076616 181.984495 402.192298 C 214.750939 428.429769 248.557589 441.805735 282.884341 441.805735 C 324.492525 441.805735 357.779072 426.886389 382.743982 396.018775 C 408.228995 365.151162 421.231552 326.566645 421.751654 279.750765 C 421.751654 206.182954 395.74654 138.788664 343.216207 79.111279 C 290.165773 18.919433 233.474622 -10.91926 173.142755 -10.91926 C 139.856208 -10.91926 109.170173 1.427785 82.124853 27.150796 C 54.559431 52.359347 40.516669 93.516165 39.996567 150.106789 L 39.996567 158.852613 C 39.996567 172.743039 42.597078 192.292528 47.798101 216.986618 C 53.519227 241.680709 69.642398 307.531617 97.20782 414.024883 C 130.494367 545.21224 147.13764 615.17883 147.13764 622.895733 C 147.13764 631.127097 134.135083 635.757239 109.170173 636.786159 C 105.529457 636.786159 102.928945 636.786159 100.848536 636.786159 L 96.167615 636.786159 C 89.406285 636.786159 85.245467 636.786159 83.165058 636.786159 C 81.084648 636.786159 78.484137 637.81508 75.883625 639.87292 C 73.283114 641.930761 72.242909 644.503062 72.763012 647.075364 Z M 335.934775 325.023265 L 335.934775 331.196787 C 335.934775 380.584969 315.650785 404.764599 275.082806 404.764599 C 263.640556 404.764599 252.198305 402.192298 240.235952 397.047696 C 227.753497 391.903094 216.831349 384.70065 206.949405 375.954827 C 197.067461 367.209003 188.225722 359.4921 180.94429 351.775196 C 173.662858 344.572753 167.42163 337.37031 162.740709 330.167867 L 157.019584 321.936503 L 136.215492 236.021646 C 121.132526 178.916562 113.851093 137.759744 113.851093 114.094574 C 113.851093 82.19804 122.17273 58.01841 137.775799 42.070143 C 148.697947 31.266478 162.220607 26.121876 177.823676 26.121876 C 200.188075 26.121876 222.552474 36.41108 244.916873 58.01841 C 261.560146 73.452216 275.082806 91.972784 284.96475 114.094574 C 294.846693 136.216363 305.768842 171.199658 318.251297 219.044459 C 330.21365 266.88926 335.934775 302.387015 335.934775 325.023265 Z M 335.934775 325.023265 "
     transform="matrix(0.00751054, 0, 0, -0.00759291, 117.183979, 31.096779)"
     id="path37" />
  <path
     fill-rule="nonzero"
     fill="rgb(0%, 0%, 0%)"
     fill-opacity="1"
     stroke-width="15.804218"
     stroke-linecap="butt"
     stroke-linejoin="miter"
     stroke="rgb(0%, 0%, 0%)"
     stroke-opacity="0.0944"
     stroke-miterlimit="4"
     d="M 21.036154 286.831293 C 21.556256 290.946975 22.596461 296.091577 24.156768 302.77956 C 25.196973 309.467543 29.357791 322.329048 36.119121 340.849616 C 42.880451 359.884645 49.121678 375.318451 55.883008 388.179957 C 62.644338 400.527002 73.566486 412.874048 88.129351 425.221093 C 102.692215 437.053678 117.25508 442.71274 131.817944 442.19828 C 146.900911 441.16936 160.943673 439.111519 174.986435 434.995837 C 189.029197 430.880155 198.911141 425.221093 205.152368 416.989729 C 210.873493 408.758366 216.074516 401.555923 220.755437 394.86794 C 225.436358 388.179957 228.556972 382.006434 229.077074 375.832912 L 231.157483 369.144929 C 231.157483 367.601548 231.157483 367.087088 232.197688 367.087088 L 243.119836 377.890752 C 283.167713 420.590951 329.97692 442.19828 384.067559 442.19828 C 395.50981 442.19828 405.911856 441.16936 414.753595 440.140439 C 424.115436 438.597059 432.957175 436.539218 440.75871 432.937996 C 449.080346 429.851235 455.321574 426.250013 460.002495 423.163252 C 464.683415 419.56203 469.884438 415.446349 475.085461 410.816207 C 480.286484 406.186065 483.407098 402.070383 484.967405 397.954701 C 486.527712 393.839019 489.128223 389.723338 492.76894 385.093196 C 496.929758 380.463054 498.490065 376.347372 496.929758 372.74615 C 495.889553 369.659389 496.409656 366.572628 500.050372 364.000326 C 503.170986 361.428025 504.21119 358.855724 502.130781 356.797883 L 509.932315 367.087088 C 552.060602 416.989729 601.47032 442.19828 659.201675 442.19828 C 695.088734 442.19828 724.214463 432.937996 746.058759 414.931888 C 767.903056 396.925781 779.345306 370.688309 779.865409 336.219474 C 779.865409 301.75064 767.382954 249.275697 741.897941 177.765726 C 716.412928 106.770216 703.930473 64.070017 703.930473 50.179591 C 704.450575 40.919307 706.530985 34.231324 709.131496 31.144563 C 711.732008 27.543341 716.412928 25.999961 724.214463 25.999961 C 742.418043 25.999961 760.101521 35.774705 776.224693 55.838654 C 791.827762 75.902602 804.830319 103.168994 815.232365 138.152289 C 816.792672 145.354732 818.873081 149.470414 820.95349 151.013795 C 823.0339 152.557175 828.234923 153.071636 837.076662 153.071636 C 850.079219 153.071636 856.840549 150.499334 856.840549 144.840272 C 856.840549 144.325812 855.800344 139.18121 853.199833 129.920926 C 847.478708 110.885897 840.197275 91.850869 830.835434 72.815841 C 821.473593 54.295273 806.390626 35.774705 785.066432 17.254137 C 763.742237 -1.780891 740.857736 -10.526715 715.892826 -10.012255 C 684.686688 -10.012255 661.802187 -0.751971 647.759425 17.254137 C 634.236765 34.745785 626.955333 53.780813 626.955333 72.815841 C 626.955333 85.677346 638.917686 125.805244 662.842391 193.199533 C 686.767097 260.079362 699.249552 311.010924 699.769655 344.965298 C 699.769655 384.578735 685.20679 404.128224 656.081062 404.128224 L 650.880039 404.128224 C 593.668786 404.128224 545.299272 370.173849 505.771497 302.77956 L 499.010167 290.946975 L 466.243722 157.187317 C 443.879323 69.72908 431.396868 22.913199 427.756152 16.225217 C 419.434515 -1.780891 404.871651 -11.041175 385.107764 -11.041175 C 376.266025 -11.041175 369.504695 -8.468874 363.783569 -3.838732 C 358.582546 0.79141 354.94183 4.907092 352.861421 7.993853 C 350.781012 11.080614 349.740807 14.681836 349.740807 17.768597 C 349.740807 25.485501 361.183058 72.815841 384.067559 160.788539 L 419.954618 306.895242 C 422.035027 317.184446 423.075231 329.531492 423.075231 344.965298 C 423.075231 384.578735 408.512367 404.128224 378.866536 404.128224 L 374.185615 404.128224 C 316.45426 404.128224 268.084746 370.173849 229.077074 302.77956 L 221.795642 290.946975 L 189.029197 157.187317 C 167.1849 69.72908 154.182343 22.913199 151.061729 16.225217 C 142.21999 -1.780891 128.177228 -11.041175 107.893238 -11.041175 C 99.571601 -11.041175 92.290169 -8.983334 87.089146 -4.867653 C 81.888123 -0.751971 78.247407 2.849251 76.166998 6.964933 C 74.086589 11.080614 73.566486 14.167376 74.086589 17.254137 C 74.086589 25.485501 86.569044 80.532744 112.054057 180.852487 C 138.059172 283.744532 151.061729 337.248395 151.061729 341.878537 C 153.142138 352.167741 154.182343 360.913565 154.182343 369.144929 C 154.182343 392.810099 145.860706 405.157144 129.217432 405.157144 C 114.134466 405.157144 102.172113 395.89686 91.770067 376.861832 C 81.888123 358.341264 74.086589 337.762855 68.885566 316.155526 C 63.684543 294.033736 59.523724 282.201151 56.923213 280.14331 C 55.883008 278.59993 50.161883 278.085469 40.800042 278.085469 L 26.757279 278.085469 C 23.116563 282.201151 21.036154 284.773452 21.036154 286.831293 Z M 21.036154 286.831293 "
     transform="matrix(0.00751054, 0, 0, -0.00759291, 110.709195, 39.033353)"
     id="path39" />
  <path
     fill-rule="nonzero"
     fill="rgb(0%, 0%, 0%)"
     fill-opacity="1"
     stroke-width="15.804218"
     stroke-linecap="butt"
     stroke-linejoin="miter"
     stroke="rgb(0%, 0%, 0%)"
     stroke-opacity="0.0944"
     stroke-miterlimit="4"
     d="M 311.187713 42.977148 C 300.785667 34.231324 286.222802 24.97104 266.979017 15.196296 C 247.735232 4.907092 227.451242 -0.237511 206.127048 -0.237511 C 163.998762 -0.237511 130.192112 15.196296 105.227202 45.034989 C 79.742189 74.873682 66.739632 113.458198 66.21953 159.759618 C 66.21953 230.240669 91.704542 294.548197 143.19467 353.196662 C 194.164695 411.845127 251.375948 441.16936 313.788224 442.19828 C 345.514464 442.19828 374.120091 426.250013 401.16541 393.839019 L 403.765922 397.954701 C 405.326229 400.012542 406.886536 402.070383 408.966945 404.128224 C 411.047354 406.186065 414.167968 408.758366 417.808684 411.845127 C 421.969502 415.446349 426.130321 417.50419 430.811241 419.04757 C 435.492162 420.076491 441.213287 421.105411 446.934413 422.134332 C 456.296254 422.134332 464.097789 419.04757 469.818914 412.874048 C 476.060141 407.214985 479.180755 400.527002 480.22096 393.839019 C 480.22096 384.064275 460.977175 303.29402 423.009707 152.042715 C 385.042239 0.79141 364.758249 -76.892084 363.197942 -79.978845 C 351.23559 -115.99106 325.230475 -145.829753 286.222802 -168.980463 C 246.695027 -192.131173 201.446127 -204.478219 150.996204 -204.992679 C 56.857688 -204.992679 10.048481 -182.356429 10.048481 -137.08393 C 10.048481 -119.592282 15.769607 -104.158475 28.252062 -90.78251 C 40.214415 -77.921004 55.297381 -71.233021 74.021064 -71.233021 C 83.903008 -71.233021 93.264849 -73.805322 102.106588 -79.978845 C 110.428225 -86.152368 115.109146 -96.441572 116.14935 -110.846458 C 116.14935 -117.534441 115.109146 -124.222424 114.068941 -129.881486 C 112.508634 -136.055009 110.428225 -140.685151 106.787509 -143.771912 C 103.666895 -147.373134 101.066384 -150.459895 98.985974 -154.061117 C 96.905565 -157.147878 94.825156 -160.23464 92.224645 -161.77802 L 90.144235 -163.835861 L 91.18444 -163.835861 C 97.425668 -165.893702 117.709657 -166.922622 150.996204 -166.922622 C 176.481217 -166.922622 196.245104 -162.806941 210.807969 -155.090037 C 226.411038 -147.887594 240.4538 -136.569469 253.97646 -122.164583 C 267.499119 -107.245237 276.860961 -91.81143 282.061984 -74.834243 C 286.222802 -62.487197 291.423825 -41.908789 298.185155 -13.099016 C 306.506792 18.797518 311.187713 37.832546 311.187713 42.977148 Z M 384.002034 327.988111 L 379.841216 338.791776 C 377.760807 346.508679 376.2005 351.138821 375.160295 354.225582 C 373.599988 356.797883 371.519579 361.428025 368.919068 368.116008 C 366.318556 374.803991 363.197942 379.434133 359.037124 382.006434 C 354.876306 384.578735 350.715487 388.179957 346.034567 392.810099 C 341.353646 397.440241 335.112418 400.527002 327.830986 402.070383 C 320.549554 403.099303 313.268122 404.128224 305.98669 405.157144 C 276.860961 405.157144 248.255334 387.151036 221.210015 352.167741 C 200.926025 325.93027 184.282752 286.316833 170.760092 232.81297 C 157.757534 179.823567 150.996204 141.23905 150.996204 117.05942 C 150.996204 64.584477 171.800296 37.832546 212.888378 37.832546 C 250.335744 37.832546 286.742904 61.497716 323.150065 107.799136 L 330.9516 118.08834 Z M 384.002034 327.988111 "
     transform="matrix(0.00751054, 0, 0, -0.00759291, 117.303437, 39.033353)"
     id="path41" />
  <path
     fill-rule="nonzero"
     fill="rgb(0%, 0%, 0%)"
     fill-opacity="1"
     stroke-width="15.804218"
     stroke-linecap="butt"
     stroke-linejoin="miter"
     stroke="rgb(0%, 0%, 0%)"
     stroke-opacity="0.0944"
     stroke-miterlimit="4"
     d="M 117.121837 58.925415 C 117.121837 36.803625 125.443473 25.999961 142.086747 25.999961 C 166.531555 25.999961 187.855749 60.983256 205.019125 130.949846 C 209.179944 144.325812 212.300557 151.528255 214.901069 152.042715 C 216.461376 152.557175 219.58199 153.071636 224.783013 153.071636 L 228.943831 153.071636 C 235.185059 153.071636 238.825775 153.071636 240.906184 153.071636 C 242.986593 153.071636 244.5469 152.557175 246.107207 151.013795 C 247.147411 149.470414 248.187616 147.412573 248.187616 143.811352 C 247.147411 140.21013 246.107207 134.551068 245.067002 127.863085 C 243.506695 121.175102 239.865979 108.828056 234.144854 89.793028 C 227.903626 71.27246 221.142297 55.838654 213.860864 42.977148 C 206.579432 30.115643 196.177386 17.768597 183.174829 5.936012 C 169.652169 -5.896573 154.569202 -11.555635 136.885724 -11.041175 C 112.961018 -11.041175 90.596619 -3.838732 69.792527 11.080614 C 49.508538 25.485501 38.58639 50.179591 38.066287 85.162886 C 38.066287 92.87979 38.58639 98.538852 39.106492 102.140074 L 104.119279 359.884645 C 146.247565 530.170978 167.051657 617.629216 167.051657 622.773818 C 167.051657 624.831659 166.531555 626.8895 166.011453 627.91842 C 165.491351 629.461801 163.931044 630.490721 161.850634 632.034102 C 159.770225 633.577483 158.209918 634.091943 157.169714 634.091943 C 155.609407 634.091943 153.008895 634.091943 148.848077 635.120863 C 145.207361 635.635324 142.086747 636.149784 141.046542 636.149784 C 139.486236 636.149784 136.885724 636.149784 132.204803 637.178704 C 127.523883 637.693164 123.883167 637.693164 121.802757 637.178704 C 115.56153 637.178704 110.880609 637.178704 108.8002 637.178704 C 107.239893 637.178704 104.119279 637.178704 100.998665 638.207625 C 97.878052 638.722085 95.797642 639.751005 94.757438 640.779926 C 94.237336 642.323306 94.237336 644.381147 94.237336 646.953448 C 94.237336 648.496829 94.757438 653.126971 95.797642 660.843874 C 99.438359 673.70538 103.079075 680.907823 107.239893 681.936744 C 110.880609 683.480124 134.805315 685.537965 179.01401 688.110266 C 188.895954 688.624726 200.338205 689.139187 212.82066 690.168107 C 225.823217 690.682567 235.705161 691.711488 242.986593 693.254868 C 250.268025 694.283789 253.908741 694.798249 253.908741 693.769329 C 262.230378 693.769329 265.871094 691.197028 265.871094 686.052425 C 265.871094 678.849982 241.426286 578.530239 193.056772 386.122116 C 144.167156 193.199533 119.202246 92.365329 118.162041 83.105045 C 118.162041 81.561665 118.162041 78.989364 118.162041 74.873682 C 118.162041 70.758 117.641939 67.671239 117.121837 65.098938 Z M 117.121837 58.925415 "
     transform="matrix(0.00751054, 0, 0, -0.00759291, 120.885977, 39.033353)"
     id="path43" />
  <path
     fill-rule="nonzero"
     fill="rgb(0%, 0%, 0%)"
     fill-opacity="1"
     d="M 109.648438 32.964844 L 124.1875 32.964844 L 124.1875 32.320313 L 109.648438 32.320313 Z M 109.648438 32.964844 "
     id="path45" />
  <path
     fill-rule="nonzero"
     fill="rgb(0%, 0%, 0%)"
     fill-opacity="1"
     stroke-width="11.173582"
     stroke-linecap="butt"
     stroke-linejoin="miter"
     stroke="rgb(0%, 0%, 0%)"
     stroke-opacity="0.1335"
     stroke-miterlimit="4"
     d="M 131.020004 289.165948 C 131.020004 310.261903 136.167977 332.085305 146.831635 353.908706 C 157.495293 376.095831 176.248622 396.464339 203.091623 415.01423 C 229.566912 433.564122 261.925599 442.657206 300.167683 441.929759 C 341.351465 441.929759 371.503877 432.836675 389.889495 415.01423 C 408.642824 396.828062 418.203345 376.823278 418.93877 354.999876 C 418.93877 333.540198 413.423085 317.900094 402.024002 308.079563 C 390.624919 297.895309 378.1227 292.803182 364.149631 292.075735 C 355.324534 292.075735 347.234863 294.621799 339.880616 300.077649 C 332.526369 305.169776 328.849245 313.899137 328.113821 325.902007 C 328.113821 336.813708 331.05552 345.906792 336.938917 353.908706 C 342.822315 361.91062 348.705712 368.093917 353.853685 372.094874 C 359.36937 376.095831 363.781918 377.914448 367.091329 377.914448 C 367.826754 377.914448 367.826754 378.278171 367.826754 379.005618 C 367.826754 380.824235 365.62048 384.097745 360.840219 388.098702 C 356.427671 392.099659 347.970287 395.736892 335.83578 399.010403 C 324.068985 402.283913 310.831341 404.466253 296.858271 404.829976 C 264.867297 404.829976 241.70142 396.464339 226.992926 379.005618 C 212.284432 361.546897 204.562473 344.088175 203.827048 325.902007 C 203.827048 309.170733 210.44587 297.531585 222.94809 290.984565 C 235.818022 284.437545 253.835927 278.617971 278.104942 273.889567 C 302.006244 269.161163 319.288724 264.43276 329.952382 258.976909 C 374.077864 239.699571 396.140605 207.691916 396.140605 162.953943 C 396.140605 144.404051 392.463481 125.490437 385.109234 106.940546 C 377.754987 88.390654 366.723617 69.840763 352.015123 50.927148 C 337.306629 32.377257 316.347026 17.828323 289.136312 6.916622 C 261.557886 -3.631356 230.302337 -9.450929 195.001952 -10.178376 C 143.522223 -10.178376 107.486414 -0.357845 86.159098 18.919493 C 64.831782 38.196831 53.800411 61.111402 53.064987 86.935761 C 53.064987 113.123843 60.051521 131.673734 74.02459 142.949158 C 87.997659 154.224582 102.706153 160.044156 118.150072 160.044156 C 128.078305 160.044156 137.271114 157.134369 146.09621 150.951072 C 154.553594 145.131498 159.333854 134.583521 160.069279 120.034586 C 160.069279 102.575865 153.818169 88.026931 142.051374 76.02406 C 129.916867 64.021189 119.620921 57.837892 111.163537 57.837892 C 109.692688 57.474169 108.589551 57.110445 107.854126 57.110445 C 107.486414 57.110445 107.118701 56.382999 107.118701 54.928105 C 107.486414 53.109488 110.428112 50.199702 114.840661 46.926191 C 119.620921 43.652681 129.916867 39.288001 146.09621 33.83215 C 161.907841 28.740023 180.293458 26.19396 200.885349 26.921407 C 225.154364 26.921407 245.746255 30.55864 263.028736 37.833107 C 280.311216 45.471298 293.181148 54.564382 300.903107 65.839806 C 308.992779 77.478953 314.508464 87.663207 317.817875 97.120015 C 321.494999 106.213099 322.965848 114.578736 322.965848 121.853203 C 322.965848 140.766818 315.979313 154.588305 302.006244 164.045113 C 288.033175 173.50192 271.853832 178.957771 253.835927 181.140111 C 235.818022 182.958727 216.329268 188.050854 195.001952 196.052768 C 173.674636 204.054682 157.863005 215.69383 147.934772 230.970211 C 136.535689 247.701485 131.020004 266.978823 131.020004 289.165948 Z M 131.020004 289.165948 "
     transform="matrix(0.0106231, 0, 0, -0.0107396, 125.463628, 35.328188)"
     id="path47" />
  <path
     fill-rule="nonzero"
     fill="rgb(0%, 0%, 0%)"
     fill-opacity="1"
     stroke-width="11.173582"
     stroke-linecap="butt"
     stroke-linejoin="miter"
     stroke="rgb(0%, 0%, 0%)"
     stroke-opacity="0.1335"
     stroke-miterlimit="4"
     d="M 56.106534 237.153508 C 56.106534 237.153508 56.106534 241.154465 56.106534 249.883825 C 56.106534 258.613186 60.519082 265.160207 70.079603 269.88861 L 369.02974 269.88861 L 369.02974 420.106357 L 370.132877 569.960381 C 376.751699 578.689742 383.002809 583.054422 388.886207 583.054422 C 397.711303 583.054422 404.330125 577.962295 409.110386 568.141764 L 409.110386 269.88861 L 706.957385 269.88861 C 716.885619 264.796483 722.033591 257.885739 722.033591 249.883825 C 722.033591 241.881912 716.885619 235.334891 706.957385 229.879041 L 409.110386 229.879041 L 409.110386 -68.01039 C 403.5947 -77.467197 397.711303 -81.831878 391.092481 -81.831878 L 387.047645 -81.831878 C 378.957973 -81.831878 373.074576 -77.467197 369.02974 -68.01039 L 369.02974 229.879041 L 70.079603 229.879041 C 60.519082 234.607444 56.106534 241.154465 56.106534 249.883825 Z M 56.106534 237.153508 "
     transform="matrix(0.0106231, 0, 0, -0.0107396, 132.806318, 35.328188)"
     id="path49" />
  <path
     fill-rule="nonzero"
     fill="rgb(0%, 0%, 0%)"
     fill-opacity="1"
     stroke-width="11.173582"
     stroke-linecap="butt"
     stroke-linejoin="miter"
     stroke="rgb(0%, 0%, 0%)"
     stroke-opacity="0.1335"
     stroke-miterlimit="4"
     d="M 213.095423 577.962295 L 199.857778 572.870168 C 190.66497 569.596658 177.427325 566.323148 160.144845 563.049637 C 142.494653 559.776127 123.373611 557.230064 102.046295 556.138893 L 82.925253 556.138893 L 82.925253 601.968037 L 102.046295 601.968037 C 133.301844 603.42293 162.351119 608.515057 188.826408 616.880694 C 215.669409 625.610055 234.422739 633.611969 245.086397 640.886436 C 255.750055 648.160903 264.942864 655.799094 273.032535 663.073561 C 274.503385 664.892178 278.180508 665.983348 285.167043 665.983348 C 291.05044 665.983348 296.566125 664.164731 302.08181 660.163774 L 302.08181 360.81945 L 302.817235 61.111402 C 307.597496 56.382999 311.642331 53.473212 314.951743 52.018318 C 318.261154 50.563425 326.350825 49.472255 338.853045 48.017361 C 351.722977 46.562468 372.314868 45.835021 400.996431 45.835021 L 427.104008 45.835021 L 427.104008 0.00587805 L 416.072638 0.00587805 C 402.099568 1.824495 349.148991 2.915665 256.853192 2.915665 C 166.395955 2.915665 114.180802 1.824495 99.840021 0.00587805 L 88.073226 0.00587805 L 88.073226 45.835021 L 114.180802 45.835021 C 128.521584 45.835021 141.391516 45.835021 152.055174 45.835021 C 162.718832 45.835021 171.176216 46.198745 177.059613 46.926191 C 182.943011 47.653638 188.458696 48.744808 192.871244 49.835978 C 197.651504 51.290872 200.225491 52.018318 200.960916 52.018318 C 201.69634 52.018318 203.534902 53.836935 206.844313 57.110445 C 210.153724 60.383956 212.359998 61.838849 213.095423 61.111402 Z M 213.095423 577.962295 "
     transform="matrix(0.0106231, 0, 0, -0.0107396, 143.431576, 35.328188)"
     id="path51" />
  <path
     fill-rule="nonzero"
     fill="rgb(0%, 0%, 0%)"
     fill-opacity="1"
     d="M 72.691406 23.894531 L 149.804688 23.894531 L 149.804688 23.25 L 72.691406 23.25 Z M 72.691406 23.894531 "
     id="path53" />
  <path
     fill="none"
     stroke-width="1"
     stroke-linecap="butt"
     stroke-linejoin="miter"
     stroke="rgb(0%, 0%, 0%)"
     stroke-opacity="1"
     stroke-miterlimit="10"
     d="M 8.001814 31.002444 L 81.628774 31.002444 "
     transform="matrix(0.751678, 0, 0, 0.751678, 0.375839, 0.375839)"
     id="path55" />
  <path
     fill-rule="nonzero"
     fill="rgb(0%, 0%, 0%)"
     fill-opacity="1"
     stroke-width="1"
     stroke-linecap="butt"
     stroke-linejoin="miter"
     stroke="rgb(0%, 0%, 0%)"
     stroke-opacity="1"
     stroke-miterlimit="10"
     d="M 86.877449 31.002444 L 79.877484 34.499829 L 81.628774 31.002444 L 79.877484 27.499863 Z M 86.877449 31.002444 "
     transform="matrix(0.751678, 0, 0, 0.751678, 0.375839, 0.375839)"
     id="path57" />
  <path
     fill="none"
     stroke-width="1"
     stroke-linecap="butt"
     stroke-linejoin="miter"
     stroke="rgb(0%, 0%, 0%)"
     stroke-opacity="1"
     stroke-miterlimit="10"
     d="M 208.002321 30.690642 L 281.62928 30.690642 "
     transform="matrix(0.751678, 0, 0, 0.751678, 0.375839, 0.375839)"
     id="path59" />
  <path
     fill-rule="nonzero"
     fill="rgb(0%, 0%, 0%)"
     fill-opacity="1"
     d="M 216.015625 23.445313 L 210.753906 26.074219 L 212.070313 23.445313 L 210.753906 20.8125 Z M 216.015625 23.445313 "
     id="path61" />
  <g
     clip-path="url(#clip-0)"
     id="g65">
    <path
       fill="none"
       stroke-width="1"
       stroke-linecap="butt"
       stroke-linejoin="miter"
       stroke="#000000"
       stroke-opacity="1"
       stroke-miterlimit="10"
       d="m 286.87796,30.690642 -6.99997,3.497384 1.75129,-3.497384 -1.75129,-3.502581 z m 0,0"
       transform="matrix(0.751678,0,0,0.751678,0.375839,0.375839)"
       id="path63" />
  </g>
  <path
     fill-rule="nonzero"
     fill="rgb(0%, 0%, 0%)"
     fill-opacity="1"
     stroke-width="11.238351"
     stroke-linecap="butt"
     stroke-linejoin="miter"
     stroke="rgb(0%, 0%, 0%)"
     stroke-opacity="0.1325"
     stroke-miterlimit="4"
     d="M 35.930417 443.132511 C 36.662081 446.473252 39.954566 484.706174 46.173706 557.831278 C 52.027013 631.327575 54.953667 668.818111 54.953667 671.045271 L 54.953667 676.984366 L 665.892653 676.984366 L 665.892653 671.045271 C 666.624316 667.704531 669.916802 629.471608 676.135941 555.975311 C 681.989249 482.850207 684.915903 444.988478 684.915903 443.132511 L 684.915903 436.822223 L 645.040244 436.822223 L 645.040244 443.132511 C 645.040244 444.246091 643.942749 456.124281 642.113591 478.024693 C 639.9186 499.925104 636.260283 521.825516 631.138639 544.097121 C 625.651163 565.997533 618.70036 582.330044 609.920399 593.094653 C 598.579615 606.82881 580.288029 617.593419 555.045639 625.017287 C 541.144034 628.358028 515.169981 629.842802 477.855145 629.842802 L 443.101131 629.842802 C 425.541208 629.842802 416.029583 626.130867 413.834592 617.964612 C 413.468761 616.851032 413.102929 523.681483 413.102929 338.82716 L 413.102929 63.030448 C 417.49291 56.348967 426.272871 51.894646 439.076982 50.038678 C 451.51526 48.182711 481.513462 46.697938 527.974091 45.955551 L 557.972293 45.955551 L 557.972293 -0.0724334 L 545.168183 -0.0724334 L 361.154824 2.897114 C 244.454502 1.783534 182.994772 0.669953 177.141464 -0.0724334 L 163.971522 -0.0724334 L 163.971522 45.955551 L 193.969724 45.955551 C 240.796185 45.955551 270.428555 47.069131 282.866834 48.925098 C 295.670944 51.152259 304.450906 55.60658 308.840886 63.030448 L 308.840886 550.036216 C 308.840886 596.806587 307.37756 621.676546 304.085074 625.017287 C 300.792588 628.358028 289.817637 629.842802 271.160218 629.842802 L 223.967926 629.842802 C 177.507296 629.842802 142.38745 620.191773 118.97422 600.889715 C 106.901773 590.496299 98.487643 574.534982 93.000167 554.119344 C 87.512691 533.332512 83.488542 510.689714 80.92772 485.819754 C 78.366898 461.320989 76.537739 446.844445 76.171907 443.132511 L 76.171907 436.822223 L 35.930417 436.822223 Z M 35.930417 443.132511 "
     transform="matrix(0.0106777, 0, 0, -0.0105235, 33.085095, 15.409394)"
     id="path67" />
  <path
     fill-rule="nonzero"
     fill="rgb(0%, 0%, 0%)"
     fill-opacity="1"
     stroke-width="11.238351"
     stroke-linecap="butt"
     stroke-linejoin="miter"
     stroke="rgb(0%, 0%, 0%)"
     stroke-opacity="0.1325"
     stroke-miterlimit="4"
     d="M 93.883674 250.111932 C 93.883674 296.139916 97.176159 339.569547 104.126962 381.14321 C 110.711933 422.345679 118.3944 457.980248 127.174361 488.046915 C 135.588491 518.113582 148.026769 547.437862 164.123366 576.019756 C 179.85413 604.601649 192.65824 626.873254 202.169865 642.834571 C 211.315658 659.167082 225.217264 676.241979 243.874682 695.172844 C 262.5321 713.732515 273.507052 724.868317 277.165369 728.951445 C 280.457855 733.034573 288.506153 740.087248 302.041927 750.10947 L 318.870186 750.10947 C 328.381811 750.10947 333.137624 747.139923 333.137624 740.829635 C 333.137624 738.973667 327.284316 731.920992 315.943533 720.042803 C 304.602749 708.164613 291.066975 690.347329 274.970379 666.962144 C 258.873783 643.576958 242.777187 614.995065 225.948928 580.84527 C 209.4865 547.066669 195.219062 501.038685 183.878279 443.132511 C 172.537495 384.855144 167.050019 320.638682 167.050019 250.111932 C 167.050019 179.213989 172.537495 115.36872 183.878279 57.83374 C 195.219062 0.669953 209.120668 -45.729224 224.851432 -80.992599 C 240.948028 -116.255974 257.410456 -144.837868 273.872884 -167.109473 C 290.701143 -189.009885 304.602749 -206.827169 315.943533 -219.818939 C 327.284316 -233.181902 333.137624 -240.234577 333.137624 -240.976963 C 333.137624 -246.916058 328.01598 -249.885606 318.138523 -249.885606 L 302.041927 -249.885606 L 273.872884 -226.129227 C 211.315658 -169.336633 165.586692 -98.809883 137.051818 -14.177783 C 108.151111 70.82551 93.883674 158.798351 93.883674 250.111932 Z M 93.883674 250.111932 "
     transform="matrix(0.0106777, 0, 0, -0.0105235, 40.794411, 15.409394)"
     id="path69" />
  <path
     fill-rule="nonzero"
     fill="rgb(0%, 0%, 0%)"
     fill-opacity="1"
     stroke-width="11.238351"
     stroke-linecap="butt"
     stroke-linejoin="miter"
     stroke="rgb(0%, 0%, 0%)"
     stroke-opacity="0.1325"
     stroke-miterlimit="4"
     d="M 131.077878 289.087241 C 131.077878 310.245266 136.199522 332.145678 147.174474 354.04609 C 157.783594 375.946502 176.441012 396.36214 203.146728 414.921811 C 229.486613 433.481482 262.045636 442.761318 300.092136 442.018931 C 341.431121 442.018931 371.429323 433.110289 390.086741 414.921811 C 408.744159 397.104527 418.255784 377.060082 418.987448 355.15967 C 418.987448 333.630452 413.499972 318.040328 402.159188 308.018106 C 390.818405 297.995884 378.014294 292.799176 364.112689 292.056789 C 355.332727 292.056789 347.284429 294.655143 339.967794 299.851851 C 332.65116 305.419752 328.627011 313.957201 327.895347 325.83539 C 327.895347 336.599999 330.822001 345.879835 337.041141 354.04609 C 342.894448 361.841152 348.747756 368.15144 353.8694 371.863374 C 359.356876 375.946502 363.746857 378.173662 367.039342 378.173662 C 367.771006 378.173662 368.136838 378.173662 368.136838 378.916049 C 368.136838 381.14321 365.576015 384.112757 360.820203 387.824691 C 356.430222 391.907819 348.016093 395.619753 335.943645 398.960494 C 323.871198 402.301235 311.067088 404.157202 297.165482 404.899589 C 264.97229 404.899589 241.55906 396.36214 226.925791 378.916049 C 212.292521 361.841152 204.610055 344.023868 203.878392 325.83539 C 203.878392 309.50288 210.463363 297.62469 222.901642 290.943209 C 235.705752 284.261727 253.997338 278.693826 278.142232 273.868311 C 301.921295 269.41399 319.481218 264.217282 330.090338 259.020574 C 373.990145 239.718516 395.940049 207.795882 395.940049 162.881478 C 395.940049 144.321807 392.281732 125.762136 384.965097 106.831272 C 377.648462 88.271601 366.673511 69.71193 352.040242 51.152259 C 337.406972 32.221394 316.188732 17.744851 289.117184 6.980242 C 261.679805 -3.784368 230.218276 -9.352269 195.09843 -10.094656 C 143.516157 -10.094656 107.298816 -0.443627 86.080575 18.858431 C 64.496503 38.160489 53.521552 61.174481 53.15572 87.15802 C 53.15572 113.14156 60.106523 131.701231 74.008128 142.837034 C 87.909734 154.34403 102.543003 159.911931 117.907936 159.911931 C 128.151224 159.911931 137.297017 156.942384 146.076979 151.003289 C 154.491108 145.064194 159.246921 134.670778 159.978584 119.823042 C 159.978584 102.748144 154.125277 87.900407 142.05283 76.022218 C 129.980383 64.144028 119.737094 57.83374 110.957133 57.83374 C 109.493806 57.462547 108.762142 57.091353 108.030479 57.091353 C 107.298816 57.091353 106.932984 56.348967 106.932984 54.864193 C 107.664647 53.008226 110.225469 50.409872 114.981282 47.069131 C 119.737094 43.72839 129.980383 39.274069 146.076979 34.077361 C 162.173575 28.50946 180.465161 26.282299 200.951738 27.024686 C 225.096632 27.024686 245.583209 30.736621 263.143132 38.160489 C 280.337223 45.213164 293.141333 54.492999 300.8238 65.999996 C 308.872098 77.506992 314.725405 87.529214 318.017891 97.180243 C 321.310376 106.460078 323.139535 114.626334 323.139535 122.050202 C 323.139535 140.609873 315.8229 154.715223 301.921295 163.995059 C 288.019689 173.274894 271.923093 178.842795 253.997338 181.069956 C 236.071584 182.925923 216.31667 188.122631 195.09843 195.917693 C 173.514358 204.083948 158.149426 215.590944 147.906137 231.181068 C 136.565354 247.513578 131.077878 266.815636 131.077878 289.087241 Z M 131.077878 289.087241 "
     transform="matrix(0.0106777, 0, 0, -0.0105235, 44.948043, 15.409394)"
     id="path71" />
  <path
     fill-rule="nonzero"
     fill="rgb(0%, 0%, 0%)"
     fill-opacity="1"
     stroke-width="11.238351"
     stroke-linecap="butt"
     stroke-linejoin="miter"
     stroke="rgb(0%, 0%, 0%)"
     stroke-opacity="0.1325"
     stroke-miterlimit="4"
     d="M 60.102618 748.99589 L 64.126767 750.10947 C 67.419253 750.10947 70.711738 750.10947 74.004224 750.10947 L 86.076671 750.10947 L 113.879882 725.981898 C 176.802939 669.189304 222.166074 598.662554 251.06678 514.030454 C 279.601655 429.398354 293.869092 341.425514 293.869092 250.111932 C 293.869092 204.826335 290.576607 161.025511 283.991636 119.080655 C 277.406665 77.135798 269.724198 41.50123 260.944237 12.176949 C 252.164275 -17.518524 240.091828 -46.842804 223.995232 -76.167085 C 207.898636 -105.491365 195.460357 -127.76297 185.948733 -142.9819 C 176.802939 -158.200831 162.901334 -175.275728 144.975579 -193.835399 C 127.049824 -212.766264 116.440704 -223.530873 113.148219 -226.871614 C 109.489901 -230.212354 102.173267 -236.522642 90.10082 -246.173671 C 87.905829 -248.029638 86.808334 -249.514412 86.076671 -249.885606 L 74.004224 -249.885606 C 68.516748 -249.885606 64.858431 -249.885606 63.029272 -249.885606 C 60.834282 -249.885606 59.370955 -249.143219 57.907628 -246.916058 C 56.810133 -245.060091 55.712637 -242.090544 54.980974 -238.007416 C 55.712637 -237.265029 59.370955 -233.181902 65.955926 -225.015646 C 169.486305 -117.740748 221.068578 40.758843 221.068578 250.111932 C 221.068578 459.465022 169.486305 617.593419 65.955926 724.868317 C 59.370955 733.034573 55.712637 737.488894 54.980974 737.860087 C 54.980974 743.427988 56.810133 747.139923 60.102618 748.99589 Z M 60.102618 748.99589 "
     transform="matrix(0.0106777, 0, 0, -0.0105235, 49.955897, 15.409394)"
     id="path73" />
  <path
     fill-rule="nonzero"
     fill="rgb(0%, 0%, 0%)"
     fill-opacity="1"
     stroke-width="11.403062"
     stroke-linecap="butt"
     stroke-linejoin="miter"
     stroke="rgb(0%, 0%, 0%)"
     stroke-opacity="0.1307"
     stroke-miterlimit="4"
     d="M 55.884211 339.94074 C 55.884211 395.24856 66.040064 446.844445 85.975625 493.98601 C 105.911187 541.498768 131.865032 580.102883 163.83716 610.16955 C 196.18543 639.865024 231.166699 663.25021 269.909395 679.953914 C 308.652091 696.657617 348.147072 704.823873 388.018196 704.823873 C 476.787868 704.823873 554.273259 670.302885 620.850513 600.889715 C 687.80391 531.847739 721.280608 444.988478 722.032893 341.05432 C 722.032893 286.860081 712.253184 237.120162 693.069907 191.092178 C 673.510488 145.064194 648.308929 106.460078 617.089086 74.908638 C 585.493101 43.72839 550.13569 19.972011 509.888423 4.010694 C 470.017299 -11.950623 429.39389 -20.488072 388.018196 -21.972845 C 346.642501 -23.457619 306.395235 -14.92017 266.900253 2.897114 C 227.781415 21.085592 192.047861 44.841971 160.075733 74.166251 C 128.103605 103.490531 102.902046 141.723453 84.847197 188.865018 C 67.168492 236.377776 57.388782 286.488887 55.884211 339.94074 Z M 609.942375 338.82716 C 609.942375 398.218107 603.171807 450.185186 590.006813 495.09959 C 576.84182 539.6428 558.410829 574.163789 535.089983 597.920168 C 511.769137 622.04774 487.696005 639.493831 462.870588 651.000827 C 438.421314 662.507823 412.091327 668.075724 383.880626 668.075724 C 349.2755 668.075724 317.679515 658.053502 289.092671 638.009057 C 260.505828 617.964612 237.561125 593.83704 221.010847 565.997533 C 185.653435 512.174487 167.974729 436.451029 167.974729 338.82716 C 167.974729 295.768723 170.607728 260.876541 175.873725 234.893002 C 184.525007 183.66831 201.82757 140.23868 228.157558 104.975305 C 254.111402 69.71193 286.08353 44.099584 324.07394 28.138267 C 345.514073 19.972011 366.578063 15.888884 388.018196 15.888884 C 406.073044 15.888884 424.127893 18.487238 442.182741 24.055139 C 459.861447 29.251847 479.797009 39.274069 500.860999 54.121806 C 522.301132 68.598349 540.35598 87.529214 555.025544 110.914399 C 569.695109 134.299585 582.48396 165.851026 594.144383 204.826335 C 605.428663 244.172837 610.694661 289.087241 609.942375 338.82716 Z M 222.89156 263.103702 L 222.89156 421.974486 L 263.138827 421.974486 L 263.138827 387.824691 L 514.025993 387.824691 L 514.025993 421.974486 L 553.897116 421.974486 L 553.897116 263.103702 L 514.025993 263.103702 L 514.025993 296.882303 L 263.138827 296.882303 L 263.138827 263.103702 Z M 222.89156 263.103702 "
     transform="matrix(0.010385, 0, 0, -0.0105235, 168.384485, 15.409394)"
     id="path75" />
  <path
     fill-rule="nonzero"
     fill="rgb(0%, 0%, 0%)"
     fill-opacity="1"
     stroke-width="11.403062"
     stroke-linecap="butt"
     stroke-linejoin="miter"
     stroke="rgb(0%, 0%, 0%)"
     stroke-opacity="0.1307"
     stroke-miterlimit="4"
     d="M 94.115005 250.111932 C 94.115005 296.139916 97.500289 339.569547 103.894715 381.14321 C 110.665283 422.345679 118.188136 457.980248 126.839418 488.046915 C 135.4907 518.113582 147.903408 547.437862 164.077543 576.019756 C 179.875536 604.601649 192.664387 626.873254 202.067954 642.834571 C 211.47152 659.167082 225.3888 676.241979 243.819791 695.172844 C 262.626925 713.732515 273.535062 724.868317 276.920346 728.951445 C 280.30563 733.034573 288.580769 740.087248 302.121906 750.10947 L 319.048326 750.10947 C 328.451893 750.10947 332.965605 747.139923 332.965605 740.829635 C 332.965605 738.973667 327.323465 731.920992 316.039185 720.042803 C 304.754905 708.164613 290.837625 690.347329 275.039633 666.962144 C 258.865498 643.576958 242.691363 614.995065 226.141085 580.84527 C 209.214664 547.066669 195.297385 501.038685 184.013105 443.132511 C 172.728825 384.855144 167.086685 320.638682 167.086685 250.111932 C 167.086685 179.213989 172.728825 115.36872 184.013105 57.83374 C 195.297385 0.669953 208.838522 -45.729224 225.012657 -80.992599 C 241.186792 -116.255974 257.360927 -144.837868 273.911205 -167.109473 C 290.837625 -189.009885 304.754905 -206.827169 316.039185 -219.818939 C 327.323465 -233.181902 332.965605 -240.234577 332.965605 -240.976963 C 332.965605 -246.916058 328.075751 -249.885606 317.919898 -249.885606 L 302.121906 -249.885606 L 273.911205 -226.129227 C 211.47152 -169.336633 165.582114 -98.809883 136.99527 -14.177783 C 108.408427 70.82551 94.115005 158.798351 94.115005 250.111932 Z M 94.115005 250.111932 "
     transform="matrix(0.010385, 0, 0, -0.0105235, 176.46402, 15.409394)"
     id="path77" />
  <path
     fill-rule="nonzero"
     fill="rgb(0%, 0%, 0%)"
     fill-opacity="1"
     stroke-width="11.403062"
     stroke-linecap="butt"
     stroke-linejoin="miter"
     stroke="rgb(0%, 0%, 0%)"
     stroke-opacity="0.1307"
     stroke-miterlimit="4"
     d="M 130.908299 289.087241 C 130.908299 310.245266 136.174296 332.145678 147.082434 354.04609 C 157.614429 375.946502 176.421563 396.36214 203.127693 414.921811 C 229.833823 433.481482 262.182093 442.761318 300.172504 442.018931 C 341.172056 442.018931 371.26347 433.110289 390.070604 414.921811 C 408.501595 397.104527 418.281305 377.060082 419.03359 355.15967 C 419.03359 333.630452 413.39145 318.040328 402.10717 308.018106 C 390.822889 297.995884 378.034038 292.799176 364.116759 292.056789 C 355.465478 292.056789 347.190339 294.655143 340.043628 299.851851 C 332.520774 305.419752 328.759347 313.957201 328.007062 325.83539 C 328.007062 336.599999 331.016203 345.879835 337.034486 354.04609 C 343.052769 361.841152 348.694909 368.15144 353.960907 371.863374 C 359.226904 375.946502 363.740616 378.173662 367.125901 378.173662 C 367.502043 378.173662 367.878186 378.173662 367.878186 378.916049 C 367.878186 381.14321 365.62133 384.112757 361.107618 387.824691 C 356.217763 391.907819 347.942624 395.619753 335.906058 398.960494 C 323.869493 402.301235 311.080642 404.157202 297.163362 404.899589 C 264.815092 404.899589 241.494246 396.36214 226.824682 378.916049 C 212.155117 361.841152 204.632264 344.023868 203.879978 325.83539 C 203.879978 309.50288 210.274404 297.62469 223.063255 290.943209 C 235.852106 284.261727 253.906955 278.693826 277.980086 273.868311 C 302.053217 269.41399 319.35578 264.217282 329.887775 259.020574 C 373.896469 239.718516 396.088887 207.795882 396.088887 162.881478 C 396.088887 144.321807 392.32746 125.762136 385.180749 106.831272 C 377.657895 88.271601 366.749758 69.71193 352.080193 51.152259 C 337.410629 32.221394 316.346639 17.744851 288.888224 6.980242 C 261.805951 -3.784368 230.209966 -9.352269 194.852554 -10.094656 C 143.69715 -10.094656 107.21131 -0.443627 86.14732 18.858431 C 64.707188 38.160489 53.79905 61.174481 53.046765 87.15802 C 53.046765 113.14156 59.817333 131.701231 74.110755 142.837034 C 88.028034 154.34403 102.697598 159.911931 118.119448 159.911931 C 127.899158 159.911931 137.302724 156.942384 145.954006 151.003289 C 154.605288 145.064194 159.495142 134.670778 159.871285 119.823042 C 159.871285 102.748144 153.853002 87.900407 141.816437 76.022218 C 130.156014 64.144028 119.624019 57.83374 110.972737 57.83374 C 109.844309 57.462547 108.715881 57.091353 107.963596 57.091353 C 107.21131 57.091353 106.835168 56.348967 106.835168 54.864193 C 107.587453 53.008226 110.220452 50.409872 115.110307 47.069131 C 119.624019 43.72839 130.156014 39.274069 145.954006 34.077361 C 162.128141 28.50946 180.18299 26.282299 200.870837 27.024686 C 224.943968 27.024686 245.631816 30.736621 262.934379 38.160489 C 280.236942 45.213164 293.025793 54.492999 300.924789 65.999996 C 308.823785 77.506992 314.842068 87.529214 317.85121 97.180243 C 321.236494 106.460078 323.117207 114.626334 323.117207 122.050202 C 323.117207 140.609873 315.970496 154.715223 302.053217 163.995059 C 288.135938 173.274894 271.961803 178.842795 253.906955 181.069956 C 235.852106 182.925923 216.292687 188.122631 194.852554 195.917693 C 173.788564 204.083948 157.990572 215.590944 147.834719 231.181068 C 136.550439 247.513578 130.908299 266.815636 130.908299 289.087241 Z M 130.908299 289.087241 "
     transform="matrix(0.010385, 0, 0, -0.0105235, 180.503796, 15.409394)"
     id="path79" />
  <path
     fill-rule="nonzero"
     fill="rgb(0%, 0%, 0%)"
     fill-opacity="1"
     stroke-width="11.403062"
     stroke-linecap="butt"
     stroke-linejoin="miter"
     stroke="rgb(0%, 0%, 0%)"
     stroke-opacity="0.1307"
     stroke-miterlimit="4"
     d="M 59.867131 748.99589 L 64.0047 750.10947 C 67.389984 750.10947 70.775269 750.10947 74.160553 750.10947 L 85.820976 750.10947 L 114.031676 725.981898 C 176.847504 669.189304 222.360768 598.662554 250.947611 514.030454 C 279.534455 429.398354 293.827876 341.425514 293.827876 250.111932 C 293.827876 204.826335 290.818735 161.025511 284.048167 119.080655 C 277.277599 77.135798 269.754745 41.50123 261.103463 12.176949 C 252.452182 -17.518524 240.039473 -46.842804 223.865338 -76.167085 C 208.067346 -105.491365 195.278495 -127.76297 185.874928 -142.9819 C 176.847504 -158.200831 162.930225 -175.275728 144.875376 -193.835399 C 126.820527 -212.766264 116.288533 -223.530873 112.903248 -226.871614 C 109.517964 -230.212354 101.995111 -236.522642 89.958545 -246.173671 C 88.077832 -248.029638 86.573261 -249.514412 85.820976 -249.885606 L 74.160553 -249.885606 C 68.518412 -249.885606 65.133128 -249.885606 62.876272 -249.885606 C 60.995559 -249.885606 59.490988 -249.143219 57.986417 -246.916058 C 56.481847 -245.060091 55.729561 -242.090544 54.977276 -238.007416 C 55.729561 -237.265029 59.490988 -233.181902 65.885414 -225.015646 C 169.32465 -117.740748 220.856197 40.758843 220.856197 250.111932 C 220.856197 459.465022 169.32465 617.593419 65.885414 724.868317 C 59.490988 733.034573 55.729561 737.488894 54.977276 737.860087 C 54.977276 743.427988 56.481847 747.139923 59.867131 748.99589 Z M 59.867131 748.99589 "
     transform="matrix(0.010385, 0, 0, -0.0105235, 185.374372, 15.409394)"
     id="path81" />
</svg>
