<?xml version="1.0" encoding="UTF-8" standalone="no"?>
<svg 
   width="223.92pt"
   height="48.959999pt"
   viewBox="0 0 223.92 48.959999"
   version="1.1"
   id="svg71"
   xmlns="http://www.w3.org/2000/svg"
   xmlns:svg="http://www.w3.org/2000/svg" content="%3Cmxfile%20host%3D%22app.diagrams.net%22%20modified%3D%222023-04-05T09%3A17%3A51.542Z%22%20agent%3D%22Mozilla%2F5.0%20(Windows%20NT%2010.0%3B%20Win64%3B%20x64%3B%20rv%3A109.0)%20Gecko%2F20100101%20Firefox%2F111.0%22%20etag%3D%22YkZkEja9U2brMIQycuMo%22%20version%3D%2221.1.2%22%3E%20%20%20%3Cdiagram%20name%3D%22pendule%22%20id%3D%2217q1BwtK06HFn6PT9vOx%22%3E%20%20%20%20%20%3CmxGraphModel%20dx%3D%221056%22%20dy%3D%22328%22%20grid%3D%221%22%20gridSize%3D%2210%22%20guides%3D%221%22%20tooltips%3D%221%22%20connect%3D%221%22%20arrows%3D%221%22%20fold%3D%221%22%20page%3D%220%22%20pageScale%3D%221%22%20pageWidth%3D%22850%22%20pageHeight%3D%221100%22%20math%3D%221%22%20shadow%3D%220%22%3E%20%20%20%20%20%20%20%3Croot%3E%20%20%20%20%20%20%20%20%20%3CmxCell%20id%3D%220%22%20%2F%3E%20%20%20%20%20%20%20%20%20%3CmxCell%20id%3D%221%22%20parent%3D%220%22%20%2F%3E%20%20%20%20%20%20%20%20%20%3CmxCell%20id%3D%223n9F5vre9CEriXd3ix8L-3%22%20value%3D%22%24%24%5Cfrac%7B%5Cfrac%7B3%7D%7Bml%5E2%7D%7D%7Bs%5E2%20%2B%20%5Cfrac%7B3b%7D%7Bml%5E2%7D%20s%7D%24%24%22%20style%3D%22rounded%3D0%3BwhiteSpace%3Dwrap%3Bhtml%3D1%3B%22%20vertex%3D%221%22%20parent%3D%221%22%3E%20%20%20%20%20%20%20%20%20%20%20%3CmxGeometry%20x%3D%22-200%22%20y%3D%22250%22%20width%3D%22120%22%20height%3D%2260%22%20as%3D%22geometry%22%20%2F%3E%20%20%20%20%20%20%20%20%20%3C%2FmxCell%3E%20%20%20%20%20%20%20%20%20%3CmxCell%20id%3D%223n9F5vre9CEriXd3ix8L-4%22%20value%3D%22%22%20style%3D%22endArrow%3Dclassic%3Bhtml%3D1%3Brounded%3D0%3BentryX%3D0%3BentryY%3D0.5%3BentryDx%3D0%3BentryDy%3D0%3B%22%20edge%3D%221%22%20parent%3D%221%22%20target%3D%223n9F5vre9CEriXd3ix8L-3%22%3E%20%20%20%20%20%20%20%20%20%20%20%3CmxGeometry%20width%3D%2250%22%20height%3D%2250%22%20relative%3D%221%22%20as%3D%22geometry%22%3E%20%20%20%20%20%20%20%20%20%20%20%20%20%3CmxPoint%20x%3D%22-280%22%20y%3D%22280%22%20as%3D%22sourcePoint%22%20%2F%3E%20%20%20%20%20%20%20%20%20%20%20%20%20%3CmxPoint%20x%3D%22-150%22%20y%3D%22280%22%20as%3D%22targetPoint%22%20%2F%3E%20%20%20%20%20%20%20%20%20%20%20%3C%2FmxGeometry%3E%20%20%20%20%20%20%20%20%20%3C%2FmxCell%3E%20%20%20%20%20%20%20%20%20%3CmxCell%20id%3D%223n9F5vre9CEriXd3ix8L-5%22%20value%3D%22%22%20style%3D%22endArrow%3Dclassic%3Bhtml%3D1%3Brounded%3D0%3BentryX%3D0%3BentryY%3D0.5%3BentryDx%3D0%3BentryDy%3D0%3B%22%20edge%3D%221%22%20parent%3D%221%22%3E%20%20%20%20%20%20%20%20%20%20%20%3CmxGeometry%20width%3D%2250%22%20height%3D%2250%22%20relative%3D%221%22%20as%3D%22geometry%22%3E%20%20%20%20%20%20%20%20%20%20%20%20%20%3CmxPoint%20x%3D%22-80%22%20y%3D%22279.69%22%20as%3D%22sourcePoint%22%20%2F%3E%20%20%20%20%20%20%20%20%20%20%20%20%20%3CmxPoint%20y%3D%22279.69%22%20as%3D%22targetPoint%22%20%2F%3E%20%20%20%20%20%20%20%20%20%20%20%3C%2FmxGeometry%3E%20%20%20%20%20%20%20%20%20%3C%2FmxCell%3E%20%20%20%20%20%20%20%20%20%3CmxCell%20id%3D%223n9F5vre9CEriXd3ix8L-6%22%20value%3D%22%24%24%5Ctilde%7B%5Ctext%7BT%7D%7D(s)%24%24%22%20style%3D%22text%3Bhtml%3D1%3BstrokeColor%3Dnone%3BfillColor%3Dnone%3Balign%3Dcenter%3BverticalAlign%3Dmiddle%3BwhiteSpace%3Dwrap%3Brounded%3D0%3B%22%20vertex%3D%221%22%20parent%3D%221%22%3E%20%20%20%20%20%20%20%20%20%20%20%3CmxGeometry%20x%3D%22-260%22%20y%3D%22250%22%20width%3D%2260%22%20height%3D%2230%22%20as%3D%22geometry%22%20%2F%3E%20%20%20%20%20%20%20%20%20%3C%2FmxCell%3E%20%20%20%20%20%20%20%20%20%3CmxCell%20id%3D%223n9F5vre9CEriXd3ix8L-7%22%20value%3D%22%24%24%5CTheta(s)%24%24%22%20style%3D%22text%3Bhtml%3D1%3BstrokeColor%3Dnone%3BfillColor%3Dnone%3Balign%3Dcenter%3BverticalAlign%3Dmiddle%3BwhiteSpace%3Dwrap%3Brounded%3D0%3B%22%20vertex%3D%221%22%20parent%3D%221%22%3E%20%20%20%20%20%20%20%20%20%20%20%3CmxGeometry%20x%3D%22-80%22%20y%3D%22250%22%20width%3D%2260%22%20height%3D%2230%22%20as%3D%22geometry%22%20%2F%3E%20%20%20%20%20%20%20%20%20%3C%2FmxCell%3E%20%20%20%20%20%20%20%3C%2Froot%3E%20%20%20%20%20%3C%2FmxGraphModel%3E%20%20%20%3C%2Fdiagram%3E%20%3C%2Fmxfile%3E%20">
  <defs
     id="defs5">
    <clipPath
       id="clip-0">
      <path
         clip-rule="nonzero"
         d="M 200 10 L 223.921875 10 L 223.921875 37 L 200 37 Z M 200 10 "
         id="path2" />
    </clipPath>
  </defs>
  <path
     fill-rule="nonzero"
     fill="rgb(100%, 100%, 100%)"
     fill-opacity="1"
     stroke-width="1"
     stroke-linecap="butt"
     stroke-linejoin="miter"
     stroke="rgb(0%, 0%, 0%)"
     stroke-opacity="1"
     stroke-miterlimit="4"
     d="M 87.999938 1.001849 L 208.002321 1.001849 L 208.002321 60.997843 L 87.999938 60.997843 Z M 87.999938 1.001849 "
     transform="matrix(0.751678, 0, 0, 0.751678, 0.375839, 0.375839)"
     id="path7" />
  <path
     fill-rule="nonzero"
     fill="rgb(0%, 0%, 0%)"
     fill-opacity="1"
     stroke-width="15.915973"
     stroke-linecap="butt"
     stroke-linejoin="miter"
     stroke="rgb(0%, 0%, 0%)"
     stroke-opacity="0.0942"
     stroke-miterlimit="4"
     d="M 126.965176 462.78142 C 108.828419 462.78142 94.837207 468.480499 84.99154 479.878657 C 75.145872 491.276815 69.445748 505.783562 68.927555 523.916995 C 68.927555 560.70196 84.99154 593.34214 117.119508 621.837535 C 149.247477 650.851028 187.593762 664.839677 233.194749 664.839677 C 256.513436 664.839677 271.022841 664.839677 277.241158 663.803481 C 326.469497 656.032009 363.779396 638.416674 390.207241 610.957475 C 416.116893 583.498276 429.589912 553.966685 430.108105 521.844603 C 430.108105 487.13203 418.707858 453.455654 395.907364 420.815474 C 373.10687 388.175294 342.015288 364.86088 302.114424 349.836035 L 299.005266 347.763643 C 299.005266 347.245544 302.114424 346.209348 307.814547 345.173152 C 314.032864 343.618858 323.878532 340.510269 336.833358 335.847386 C 350.306377 331.184503 362.74301 324.449228 375.179643 315.123463 C 429.589912 279.892792 457.054143 232.745865 457.054143 175.236977 C 457.054143 122.390971 436.326422 76.280241 394.870978 36.904785 C 353.415535 -2.47067 301.078038 -22.158398 237.858487 -22.158398 C 184.484603 -22.158398 138.883616 -7.651651 100.019138 20.843744 C 61.15466 49.857238 41.981517 86.124104 41.981517 130.162442 C 41.981517 148.813974 48.199834 163.838819 60.118274 175.236977 C 72.036713 186.117037 87.064312 192.334214 105.201068 192.852312 C 123.856018 192.852312 138.883616 187.153233 150.802056 175.236977 C 163.238689 162.802622 168.938812 147.777778 168.938812 130.162442 C 168.938812 122.909069 167.902426 116.173794 165.829654 109.956617 C 163.756882 104.257538 161.68411 98.558459 159.093144 93.895576 C 156.502179 89.232693 152.874828 85.087908 148.211091 81.97932 C 143.547353 78.870731 139.401809 75.762142 135.774458 74.207848 C 132.665299 72.135456 129.556141 70.581161 125.92879 70.063063 C 122.819632 69.544965 120.228666 68.508769 118.155894 66.954475 L 114.01035 65.918279 C 148.211091 35.868589 189.148341 20.843744 237.858487 20.843744 C 274.650193 20.843744 302.114424 38.45908 320.769373 74.207848 C 332.16962 95.967968 337.869744 129.644344 337.869744 175.236977 L 337.869744 194.924704 C 337.869744 258.132672 316.623829 300.616716 274.132 321.858738 C 263.768139 326.003523 243.55861 328.075915 212.985221 329.112111 L 171.011584 330.148307 L 167.902426 332.2207 C 166.86604 333.774994 165.829654 339.474073 165.829654 347.763643 C 165.829654 360.197997 168.420619 365.897076 174.120743 365.897076 C 192.775692 365.897076 211.948835 367.45137 232.158363 371.078057 C 254.440664 374.186645 275.168386 388.175294 293.823335 413.044003 C 312.478285 437.912711 321.805759 475.215774 321.805759 524.953191 L 321.805759 533.242761 C 321.805759 571.063922 310.405512 597.486925 287.086826 611.993671 C 272.57742 621.319437 256.513436 625.98232 239.931259 625.98232 C 218.685344 625.98232 198.994009 622.355633 180.857252 615.10226 C 163.238689 607.848887 150.283863 600.077415 143.02916 591.787846 C 135.774458 584.016374 132.147106 579.871589 132.147106 579.871589 L 135.256265 579.871589 C 136.810844 579.353491 139.920002 578.835393 143.02916 577.799197 C 146.138318 577.281099 149.76567 575.726805 152.874828 573.136314 C 156.502179 570.545824 160.129531 567.955333 164.793268 565.882941 C 169.457005 563.810548 173.084357 560.183862 175.157129 555.002881 C 177.229901 549.8219 179.820866 544.640919 182.930024 539.978036 C 186.557376 535.315153 187.075569 528.579878 186.039183 519.77221 C 186.039183 505.265464 181.375445 492.313011 172.04797 480.914853 C 162.720496 469.516695 147.692898 463.817616 126.965176 462.78142 Z M 126.965176 462.78142 "
     transform="matrix(0.00753821, 0, 0, -0.0075396, 109.363222, 12.532153)"
     id="path9" />
  <path
     fill-rule="nonzero"
     fill="rgb(0%, 0%, 0%)"
     fill-opacity="1"
     stroke-width="15.915973"
     stroke-linecap="butt"
     stroke-linejoin="miter"
     stroke="rgb(0%, 0%, 0%)"
     stroke-opacity="0.0942"
     stroke-miterlimit="4"
     d="M 20.98179 287.139147 C 21.499983 290.765834 22.53637 296.464913 24.090949 303.200188 C 25.127335 309.417365 29.272879 322.369818 36.009389 341.021349 C 42.745898 359.672881 49.482408 375.215824 56.218917 388.168276 C 62.437234 400.60263 73.319288 413.036985 87.828693 424.953241 C 102.856291 436.869497 117.365696 442.568576 131.875101 442.050478 C 146.902699 441.53238 160.893912 438.941889 174.885124 434.797105 C 188.876336 431.170418 199.240197 424.953241 204.94032 417.181769 C 211.158637 408.8922 216.340567 401.638826 221.004304 394.903551 C 225.668042 388.168276 228.259007 381.951099 228.7772 376.25202 L 230.849972 368.998646 C 230.849972 367.444352 231.368165 366.926254 231.886358 366.926254 L 242.768412 377.806314 C 283.187469 420.808456 329.824843 442.050478 384.235112 442.050478 C 395.117166 442.050478 405.481027 441.53238 414.808502 439.978086 C 424.135976 438.423791 432.945258 436.351399 441.236347 433.24281 C 449.009242 429.616124 455.227559 426.507535 459.891296 422.880848 C 464.555034 419.77226 469.736964 415.627475 474.918895 410.964592 C 480.100825 406.301709 483.728176 402.156925 484.764562 398.01214 C 486.319141 393.867355 488.910107 389.72257 493.055651 385.059687 C 497.201195 380.396805 498.237581 376.25202 497.201195 373.143431 C 495.646616 369.516745 496.683002 366.408156 499.792161 363.817665 C 503.419512 361.227175 503.937705 359.154783 501.864933 357.08239 L 510.156021 366.926254 C 552.129658 417.181769 601.87619 442.050478 658.877424 442.050478 C 695.150937 442.050478 724.169747 433.24281 745.933855 415.109377 C 768.216156 396.975944 779.09821 370.552941 780.134596 335.840368 C 780.134596 302.163992 767.17977 249.317986 741.788311 177.820449 C 716.915045 106.84101 703.960219 63.838868 703.960219 49.85022 C 704.478412 40.524454 706.551184 34.307277 709.142149 31.198688 C 711.733114 27.572001 716.915045 26.017707 724.169747 26.017707 C 742.824697 26.017707 759.925067 35.861571 775.989052 56.067397 C 792.053036 75.755124 805.007862 103.214323 814.85353 137.926896 C 816.926302 145.180269 818.999074 149.843152 821.071846 150.879348 C 823.144618 152.433643 828.326549 152.951741 837.13583 152.951741 C 850.090656 152.951741 856.827166 150.36125 856.827166 145.180269 C 856.827166 144.144073 855.79078 139.48119 853.199815 130.155424 C 847.499691 110.467697 840.244989 91.816165 830.917514 73.164634 C 821.590039 54.513102 806.562441 35.861571 784.798333 17.21004 C 763.552419 -1.441492 740.751925 -10.767258 715.878659 -10.249159 C 684.787076 -10.249159 661.986582 -0.923394 647.99537 17.21004 C 634.004158 34.825375 626.749456 53.476906 626.749456 73.164634 C 626.749456 85.598988 639.186089 125.492542 663.022969 192.845294 C 686.859848 260.198046 699.296481 310.97166 699.814674 345.166134 C 699.814674 384.541589 685.305269 404.229317 655.768266 404.229317 L 651.104529 404.229317 C 593.585101 404.229317 545.393148 370.552941 506.010477 303.200188 L 498.755774 290.765834 L 466.109613 157.096525 C 443.827312 69.537947 431.390679 22.909119 427.763328 16.173843 C 419.472239 -1.95959 404.962834 -10.767258 384.753305 -10.767258 C 376.462217 -10.767258 369.207514 -8.694865 364.025584 -4.031982 C 358.843653 0.630901 355.216302 4.775685 353.14353 7.884274 C 351.070758 11.510961 350.034372 14.619549 350.034372 18.246236 C 350.034372 25.499609 361.434618 73.164634 384.235112 161.24131 L 419.990432 306.826875 C 422.063204 317.188837 423.09959 329.623191 423.09959 345.166134 C 423.09959 384.541589 408.590185 404.229317 379.053182 404.229317 L 373.871251 404.229317 C 316.870017 404.229317 268.159871 370.552941 228.7772 303.200188 L 222.04069 290.765834 L 188.876336 157.096525 C 167.112228 69.537947 154.157402 22.909119 151.048244 16.173843 C 142.238962 -1.95959 128.24775 -10.767258 108.038221 -10.767258 C 99.22894 -10.767258 92.49243 -9.212963 86.792307 -5.068179 C 81.610376 -0.923394 77.983025 3.221391 75.910253 6.848078 C 73.837481 10.992862 73.319288 14.101451 73.837481 17.21004 C 73.837481 25.499609 86.792307 80.418007 112.183766 180.929038 C 138.093418 283.512461 151.048244 337.394663 151.048244 342.057545 C 153.121016 351.901409 154.157402 361.227175 154.157402 368.998646 C 154.157402 392.831159 145.866313 404.747415 128.765943 404.747415 C 114.256538 404.747415 101.819905 395.421649 91.974237 376.770118 C 82.128569 358.118586 74.355674 337.912761 69.173743 316.152641 C 63.47362 293.874423 59.846268 281.958166 57.255303 279.885774 C 55.700724 278.849578 50.518794 277.813382 41.191319 277.813382 L 27.200107 277.813382 C 23.054563 281.958166 20.98179 285.066755 20.98179 287.139147 Z M 20.98179 287.139147 "
     transform="matrix(0.00753821, 0, 0, -0.0075396, 104.986366, 21.246944)"
     id="path11" />
  <path
     fill-rule="nonzero"
     fill="rgb(0%, 0%, 0%)"
     fill-opacity="1"
     stroke-width="15.915973"
     stroke-linecap="butt"
     stroke-linejoin="miter"
     stroke="rgb(0%, 0%, 0%)"
     stroke-opacity="0.0942"
     stroke-miterlimit="4"
     d="M 117.184722 59.175985 C 117.184722 36.897767 125.47581 26.017707 142.057988 26.017707 C 166.413061 26.017707 187.658975 61.248378 204.759346 131.191621 C 208.90489 144.144073 212.532241 151.397446 215.123206 151.915544 C 216.159592 152.433643 219.786944 152.951741 224.968874 152.951741 L 229.114419 152.951741 C 234.814542 152.951741 238.960086 152.951741 241.032858 152.951741 C 243.105631 152.951741 244.66021 152.433643 246.214789 150.879348 C 247.251175 149.843152 247.769368 147.252662 247.769368 144.144073 C 247.251175 139.999288 246.214789 134.818307 245.178403 128.083032 C 243.623824 121.347757 239.996472 108.913402 233.778156 89.743773 C 228.078032 71.092242 221.341523 55.549299 214.08682 43.114944 C 206.832118 30.162492 196.468257 18.246236 182.995238 5.811881 C 169.522219 -6.104375 154.494621 -11.803454 136.876057 -10.767258 C 113.039177 -10.767258 90.756876 -3.513884 70.029155 10.992862 C 49.301433 25.499609 38.419379 50.368318 37.901186 85.08089 C 37.901186 92.852362 38.419379 98.551441 38.937572 102.178127 L 104.229896 360.190979 C 146.203532 530.127154 166.931254 617.685732 166.931254 622.866713 C 166.931254 624.939106 166.413061 626.4934 165.894867 628.047694 C 165.376674 629.08389 163.822095 630.638185 161.749323 632.192479 C 160.194744 633.228675 158.121972 633.746773 157.085586 633.746773 C 155.531007 633.746773 152.940041 634.264871 148.794497 634.782969 C 145.167146 635.819166 142.576181 635.819166 141.021601 635.819166 C 139.467022 635.819166 136.876057 636.337264 132.21232 636.855362 C 127.548582 637.891558 123.921231 637.891558 121.848459 636.855362 C 115.111949 636.855362 110.966405 636.855362 108.893633 636.855362 C 106.820861 636.855362 104.229896 637.37346 101.120737 637.891558 C 97.493386 638.409656 95.420614 639.445852 94.902421 641.000147 C 94.384228 642.554441 93.866035 644.108735 93.866035 647.217324 C 93.866035 648.25352 94.902421 652.916403 95.938807 661.205972 C 99.566158 673.640327 103.193509 680.8937 106.820861 681.929896 C 110.966405 683.48419 134.803285 685.556583 178.849694 688.147073 C 189.213554 688.665171 200.095608 689.183269 213.050434 690.219466 C 225.487067 690.737564 235.850928 691.77376 243.105631 692.809956 C 250.360333 694.36425 253.987684 694.882349 253.987684 693.846152 C 261.76058 693.846152 265.906124 691.255662 265.906124 686.074681 C 265.906124 678.821308 241.551051 578.828375 192.840906 386.095884 C 144.13076 193.363392 119.257494 92.334263 118.221108 83.008498 C 118.221108 81.454203 118.221108 78.863713 118.221108 75.237026 C 118.221108 71.092242 117.702915 67.465555 117.184722 64.875064 Z M 117.184722 59.175985 "
     transform="matrix(0.00753821, 0, 0, -0.0075396, 111.604918, 21.246944)"
     id="path13" />
  <path
     fill-rule="nonzero"
     fill="rgb(0%, 0%, 0%)"
     fill-opacity="1"
     stroke-width="19.795986"
     stroke-linecap="butt"
     stroke-linejoin="miter"
     stroke="rgb(0%, 0%, 0%)"
     stroke-opacity="0.0758"
     stroke-miterlimit="4"
     d="M 109.170628 428.789644 C 91.124106 428.789644 76.944695 435.23365 65.987878 446.832861 C 55.031061 459.076472 49.874912 473.897685 49.874912 491.2965 C 49.874912 538.337743 67.921434 579.57938 102.725441 613.73261 C 138.173967 648.530242 182.645754 665.929057 234.851765 665.929057 C 295.436518 665.929057 346.353491 647.241441 386.958166 609.866207 C 427.562841 572.490973 448.187437 524.16093 448.831956 464.876077 C 448.831956 436.522451 442.38677 408.813226 428.851878 383.037203 C 415.961505 357.26118 399.848539 334.062759 381.157498 314.730742 C 362.466457 295.398725 335.396674 270.911503 301.237185 241.269076 C 276.745477 220.648257 243.875026 189.71703 200.692276 149.119793 L 142.041079 93.056943 L 218.09428 91.768142 C 322.506301 91.768142 378.579423 93.701343 385.02461 96.923346 C 389.53624 98.212147 397.914983 127.854574 408.8718 185.850626 L 408.8718 189.072629 L 448.831956 189.072629 L 448.831956 185.850626 C 448.187437 183.917424 444.320326 153.630597 435.941583 94.990145 C 428.207359 36.349692 423.05121 5.418464 421.117654 2.840862 L 421.117654 0.263259 L 49.874912 0.263259 L 49.874912 31.194487 C 49.874912 35.705291 51.808468 40.860496 56.320099 46.015701 C 60.187211 51.170905 69.85499 62.770116 85.967956 80.813332 C 105.303516 102.078551 122.061001 120.766168 136.240411 136.876182 C 142.041079 143.964589 153.642415 156.2082 169.755381 174.251416 C 186.512866 192.294632 198.114201 204.538243 203.914869 210.982249 C 209.715537 217.426255 219.383317 228.381064 232.918209 243.846678 C 246.4531 259.312292 255.476361 270.911503 261.277029 277.999909 C 266.433178 285.088315 274.167402 295.398725 283.835182 308.286736 C 294.14748 320.530347 301.237185 331.485157 305.104297 339.862364 C 308.971409 348.883973 314.127558 358.549981 319.928226 368.860391 C 325.728894 379.8152 330.240525 390.12561 332.818599 401.080419 C 335.396674 411.390829 337.974748 421.701238 339.908304 430.722846 C 341.84186 440.388855 343.130898 451.343665 343.130898 464.231676 C 343.130898 506.117714 331.529562 542.204146 308.971409 573.135374 C 286.413256 603.422201 254.187324 618.887815 212.293612 618.887815 C 189.735459 618.887815 170.3999 613.08821 154.286933 602.1334 C 137.529448 590.53419 125.928113 579.57938 118.838408 569.268971 C 112.393221 558.314161 109.170628 551.870155 109.170628 549.936953 C 109.170628 549.292553 110.459665 549.292553 113.682258 549.292553 C 125.928113 549.292553 138.173967 544.137348 151.06434 535.11574 C 163.954713 525.449731 169.755381 510.628518 169.755381 488.718898 C 169.755381 472.608884 164.599232 458.432071 154.286933 446.832861 C 143.330116 435.878051 128.506187 429.434045 109.170628 428.789644 Z M 109.170628 428.789644 "
     transform="matrix(0.00606072, 0, 0, -0.00606184, 114.100066, 19.068002)"
     id="path15" />
  <path
     fill-rule="nonzero"
     fill="rgb(0%, 0%, 0%)"
     fill-opacity="1"
     d="M 103.921875 14.386719 L 118.578125 14.386719 L 118.578125 13.746094 L 103.921875 13.746094 Z M 103.921875 14.386719 "
     id="path17" />
  <path
     fill-rule="nonzero"
     fill="rgb(0%, 0%, 0%)"
     fill-opacity="1"
     stroke-width="11.252594"
     stroke-linecap="butt"
     stroke-linejoin="miter"
     stroke="rgb(0%, 0%, 0%)"
     stroke-opacity="0.1333"
     stroke-miterlimit="4"
     d="M 130.898431 289.050643 C 130.898431 310.295775 136.393869 331.907202 147.018381 353.884925 C 157.642893 375.862647 176.32738 396.375188 203.071842 415.056252 C 229.816304 433.737316 262.056203 442.528405 300.157902 442.16211 C 341.190501 442.16211 371.232225 433.004726 389.916712 415.056252 C 408.601199 397.107779 418.492986 376.961533 418.859349 354.983811 C 418.859349 333.738679 413.363912 317.987978 402.006674 308.098003 C 390.649437 297.841732 377.82675 292.713597 363.904975 291.981006 C 355.478638 291.981006 347.418663 294.545074 340.091413 300.039504 C 332.764164 305.16764 328.734176 313.958729 328.001451 326.046476 C 328.001451 336.669042 330.932351 345.826426 337.160514 353.884925 C 343.022313 361.943423 348.517751 368.170444 354.013188 371.833398 C 359.508625 375.862647 363.538613 378.060419 366.835875 378.060419 C 367.5686 378.060419 367.934963 378.426715 367.934963 379.159306 C 367.934963 380.990782 365.736788 383.921145 360.974075 387.950395 C 356.211363 391.979644 348.151388 395.642597 336.061426 398.939256 C 323.971464 402.235914 311.148777 404.433686 296.86064 405.166277 C 264.987103 405.166277 241.539904 396.375188 226.885404 379.159306 C 212.230904 361.577127 204.537292 343.994949 204.17093 326.046476 C 204.17093 309.196889 210.399092 297.841732 222.855417 290.88212 C 235.678104 284.288803 253.996228 278.794373 278.176153 274.032533 C 301.989714 269.270693 319.208751 264.508853 329.833264 259.014422 C 374.163125 239.600767 396.144874 207.73307 396.144874 163.045034 C 396.144874 144.36397 392.48125 125.682906 385.154 107.001841 C 377.82675 88.320777 366.835875 69.639713 352.181376 50.958649 C 337.160514 32.277585 316.277852 17.62577 289.167027 7.003204 C 261.68984 -3.619362 230.182666 -9.480088 195.011867 -9.846383 C 143.721119 -9.846383 107.451232 -0.322704 85.835845 19.090951 C 64.586821 38.504606 53.595946 60.848624 52.863221 86.855596 C 52.863221 112.862567 59.824108 131.543632 74.112245 142.898788 C 88.03402 154.253945 102.68852 160.114671 118.075744 160.114671 C 127.967532 160.114671 137.492956 156.818013 145.919294 150.957287 C 154.711993 145.09656 159.474706 134.84029 159.841068 119.82218 C 159.841068 102.606297 153.979268 87.954482 141.889306 75.866735 C 130.165706 64.145282 119.541194 57.918261 111.114857 57.918261 C 109.649407 57.18567 108.55032 56.819375 107.817595 56.819375 C 107.451232 56.819375 107.08487 56.45308 107.08487 54.987898 C 107.817595 53.156421 110.382132 50.226058 115.144844 46.9294 C 119.541194 43.632741 130.165706 39.237197 145.919294 34.109062 C 162.039243 28.614631 180.357368 26.416859 200.873667 27.14945 C 225.053591 27.14945 245.569891 30.812403 263.15529 38.138311 C 280.374328 45.464218 292.830652 54.621603 300.890627 65.976759 C 308.950602 77.331916 314.812402 87.588187 318.109664 97.111866 C 321.406926 106.269251 322.872376 114.694044 322.872376 122.019952 C 322.872376 140.701016 315.911489 154.62024 301.989714 164.14392 C 288.06794 173.301304 271.94799 179.16203 253.996228 180.993507 C 236.044466 182.824984 216.260892 187.953119 195.011867 196.011618 C 173.762843 204.070116 158.009256 215.791568 148.117468 231.175974 C 136.760231 247.659266 130.898431 267.072921 130.898431 289.050643 Z M 130.898431 289.050643 "
     transform="matrix(0.0106623, 0, 0, -0.0106642, 88.795734, 35.242652)"
     id="path19" />
  <path
     fill-rule="nonzero"
     fill="rgb(0%, 0%, 0%)"
     fill-opacity="1"
     stroke-width="15.915973"
     stroke-linecap="butt"
     stroke-linejoin="miter"
     stroke="rgb(0%, 0%, 0%)"
     stroke-opacity="0.0942"
     stroke-miterlimit="4"
     d="M 108.854051 429.056602 C 91.235488 429.056602 76.726082 434.755681 65.844029 447.190036 C 55.480168 459.106292 49.780044 473.613038 49.780044 491.228374 C 49.780044 538.3753 67.916801 579.30505 103.153928 614.017622 C 138.391054 648.730195 182.437463 665.827432 234.77496 665.827432 C 295.921739 665.827432 346.186464 647.1759 387.123714 609.872838 C 427.542771 572.569775 448.270493 524.386652 448.788686 464.805371 C 448.788686 436.309976 442.57037 408.850777 429.09735 382.945872 C 415.624331 357.040967 399.560347 334.244651 380.905398 315.075021 C 362.250448 295.905392 335.822603 271.036683 301.103669 240.986994 C 276.748596 220.26307 243.584242 189.695282 201.092412 148.765533 L 142.018406 92.810938 L 218.192783 91.774742 C 322.867777 91.774742 378.314432 93.847134 385.050942 96.955723 C 389.714679 98.510017 397.487575 128.041609 408.887822 186.068595 L 408.887822 189.177184 L 448.788686 189.177184 L 448.788686 186.068595 C 448.270493 183.996203 444.124949 153.428415 435.83386 94.883331 C 428.060964 36.338246 422.879034 5.770458 420.806262 3.179968 L 420.806262 0.0713792 L 49.780044 0.0713792 L 49.780044 31.157265 C 49.780044 35.820148 51.852816 40.483031 55.998361 46.18211 C 60.143905 51.363091 69.989573 62.761249 86.053557 80.894682 C 105.2267 102.136704 121.808877 120.788235 135.800089 136.849276 C 142.018406 143.584552 153.418653 156.018906 170.00083 174.152339 C 186.583007 191.767674 197.983254 204.202029 204.201571 210.937304 C 209.901694 217.672579 219.747362 228.552639 233.220381 244.095582 C 246.175207 259.120427 255.502682 270.518585 261.202805 277.771958 C 266.384736 285.54343 274.157631 295.387294 284.003299 307.821648 C 293.848967 320.7741 301.103669 331.136062 305.249214 339.94373 C 308.876565 348.751397 314.058495 358.077163 319.758619 368.957223 C 325.976935 379.837283 330.12248 390.199245 333.231638 401.079305 C 335.822603 411.441267 337.895375 421.803229 339.968147 431.128995 C 342.04092 440.45476 343.077306 451.33482 343.077306 463.769175 C 343.077306 506.253218 331.677059 542.520085 308.876565 573.087873 C 286.076071 603.65566 253.948103 619.198603 211.974466 619.198603 C 190.210358 619.198603 170.519023 613.499524 153.936846 602.101366 C 137.354668 590.703208 125.436228 579.823148 119.217912 568.943088 C 112.481402 558.581126 108.854051 551.845851 108.854051 549.773458 C 108.854051 549.25536 110.40863 549.25536 114.035981 549.25536 C 125.954421 549.25536 138.391054 544.074379 150.827687 534.748614 C 163.782513 525.422848 170.00083 510.398003 170.00083 489.155981 C 170.00083 472.576842 164.818899 458.588194 153.936846 447.190036 C 143.572985 435.791877 128.545387 429.5747 108.854051 429.056602 Z M 108.854051 429.056602 "
     transform="matrix(0.00753821, 0, 0, -0.0075396, 94.148185, 32.160694)"
     id="path21" />
  <path
     fill-rule="nonzero"
     fill="rgb(0%, 0%, 0%)"
     fill-opacity="1"
     stroke-width="11.252594"
     stroke-linecap="butt"
     stroke-linejoin="miter"
     stroke="rgb(0%, 0%, 0%)"
     stroke-opacity="0.1333"
     stroke-miterlimit="4"
     d="M 56.023814 237.0367 C 56.023814 237.0367 56.023814 241.432244 56.023814 249.857038 C 56.023814 258.648127 60.786527 265.241444 69.945589 270.003284 L 368.897381 270.003284 L 368.897381 419.818092 L 369.996469 569.999196 C 376.590994 578.790285 382.819156 582.819534 389.047318 582.819534 C 397.840018 582.819534 404.434543 578.057694 408.830893 568.167719 L 408.830893 270.003284 L 707.04996 270.003284 C 716.941747 264.508853 722.070822 257.915536 722.070822 249.857038 C 722.070822 242.164835 716.941747 235.205223 707.04996 230.077088 L 408.830893 230.077088 L 408.830893 -68.087348 C 403.701818 -77.244732 397.840018 -82.006572 390.879131 -82.006572 L 386.849143 -82.006572 C 379.155531 -82.006572 372.927369 -77.244732 368.897381 -68.087348 L 368.897381 230.077088 L 69.945589 230.077088 C 60.786527 234.838928 56.023814 241.432244 56.023814 249.857038 Z M 56.023814 237.0367 "
     transform="matrix(0.0106623, 0, 0, -0.0106642, 100.820629, 35.242652)"
     id="path23" />
  <path
     fill-rule="nonzero"
     fill="rgb(0%, 0%, 0%)"
     fill-opacity="1"
     stroke-width="15.915973"
     stroke-linecap="butt"
     stroke-linejoin="miter"
     stroke="rgb(0%, 0%, 0%)"
     stroke-opacity="0.0942"
     stroke-miterlimit="4"
     d="M 126.781101 462.912388 C 109.162537 462.912388 95.171325 468.611467 84.807464 480.009625 C 74.961796 491.407783 69.779866 505.91453 68.74348 524.047963 C 68.74348 560.832928 84.807464 593.473108 116.935433 621.968503 C 149.063401 650.463899 187.409686 664.970645 233.010674 664.970645 C 256.329361 664.970645 270.838766 664.452547 277.057083 663.934449 C 326.285421 656.162978 364.113513 638.547643 390.023166 611.088443 C 415.932818 583.629244 429.405837 554.097653 429.92403 521.975571 C 429.92403 487.262999 418.523783 453.586622 396.241482 420.946442 C 373.440988 388.306262 341.831213 364.47375 301.930349 349.967003 L 298.82119 347.894611 C 298.82119 347.376513 301.930349 346.340317 308.148665 344.786022 C 313.848788 343.749826 323.694456 340.641238 337.167475 335.978355 C 350.122301 331.315472 363.077127 324.580197 374.995567 315.254431 C 429.92403 279.505662 456.870068 232.876834 456.870068 174.849847 C 456.870068 122.521939 436.142346 76.411209 395.205096 37.035754 C 353.749653 -2.339702 301.412155 -22.027429 238.192604 -22.027429 C 184.818721 -22.027429 138.699541 -7.520683 99.835062 20.974713 C 61.488777 49.470108 41.797442 86.255073 41.797442 129.775313 C 41.797442 148.426844 48.015758 163.451689 59.934198 174.849847 C 71.852638 186.248005 86.880236 192.465182 105.016993 192.98328 C 123.671942 192.98328 139.217734 186.766103 151.136174 174.849847 C 163.054613 162.933591 168.754737 147.908746 168.754737 129.775313 C 168.754737 122.521939 168.236544 115.786664 166.163772 110.087585 C 164.091 103.870408 161.500034 98.689427 158.909069 94.026544 C 156.318104 89.363661 152.690753 85.218877 148.027015 82.110288 C 143.363278 78.483601 139.217734 75.893111 136.108575 73.820718 C 132.481224 71.748326 129.372066 70.71213 125.744715 70.194032 C 122.635556 69.157836 120.044591 68.121639 117.971819 67.085443 L 113.826275 66.049247 C 148.027015 35.999557 189.482459 20.974713 238.192604 20.974713 C 274.466117 20.974713 302.448542 38.590048 321.103491 73.820718 C 332.503738 96.098937 338.203861 129.775313 338.203861 174.849847 L 338.203861 195.055673 C 338.203861 258.26364 316.439754 300.747684 273.947924 321.989706 C 264.102257 326.134491 243.892728 328.206883 212.801145 329.24308 L 170.827509 329.761178 L 168.236544 331.83357 C 166.681965 333.905962 166.163772 339.086943 166.163772 347.894611 C 166.163772 359.810867 168.754737 366.028044 173.936667 366.028044 C 192.591617 366.028044 211.764759 367.582339 231.974288 371.209025 C 254.774782 374.317614 275.502503 388.306262 294.157453 413.174971 C 312.812402 437.525581 322.139877 474.828644 322.139877 525.08416 L 322.139877 532.855631 C 322.139877 571.19489 310.221437 597.099795 286.90275 612.12464 C 272.393345 621.450405 256.847554 626.113288 239.747184 626.113288 C 218.501269 626.113288 198.809933 622.486602 181.19137 615.233228 C 163.054613 607.461757 150.099787 600.208383 142.845085 591.918814 C 135.590382 584.147343 131.963031 580.002558 131.963031 580.002558 L 135.072189 580.002558 C 137.144961 579.48446 139.735927 578.448263 142.845085 577.930165 C 146.472436 577.412067 149.581594 575.857773 153.208946 572.749184 C 156.318104 570.158694 160.463648 568.086302 165.127386 566.013909 C 169.791123 563.941517 172.900281 560.31483 174.973053 555.133849 C 177.045826 549.43477 179.636791 544.771887 182.745949 540.109004 C 186.3733 535.446122 187.409686 528.710846 185.855107 519.903179 C 185.855107 505.396432 181.19137 492.44398 171.863895 481.045822 C 162.53642 469.647663 147.508822 463.430486 126.781101 462.912388 Z M 126.781101 462.912388 "
     transform="matrix(0.00753821, 0, 0, -0.0075396, 116.591172, 31.040953)"
     id="path25" />
  <path
     fill-rule="nonzero"
     fill="rgb(0%, 0%, 0%)"
     fill-opacity="1"
     stroke-width="15.915973"
     stroke-linecap="butt"
     stroke-linejoin="miter"
     stroke="rgb(0%, 0%, 0%)"
     stroke-opacity="0.0942"
     stroke-miterlimit="4"
     d="M 72.946041 646.837212 C 72.946041 653.572487 74.500621 661.343959 77.091586 670.151626 C 79.682551 678.441196 83.828095 683.104079 89.010026 683.104079 C 89.528219 683.104079 113.883292 684.658373 161.038858 687.766962 C 208.194425 691.393648 232.549498 693.466041 234.104077 693.984139 C 241.876973 693.984139 246.022517 690.87555 246.022517 685.176471 C 246.022517 678.959294 234.62227 631.294269 211.821776 542.181397 C 206.639846 519.385081 200.939723 496.070666 195.239599 472.238154 C 189.021283 447.887543 183.839352 429.75411 180.212001 417.837854 L 176.066457 399.186322 C 176.066457 397.11393 178.139229 398.150126 181.76658 401.776813 C 214.412742 428.717914 248.095289 442.188464 282.814223 442.188464 C 324.269666 442.188464 357.434021 426.645521 382.82548 396.077734 C 408.216939 365.509946 421.171765 326.652589 422.208151 280.02376 C 422.208151 205.935733 395.780306 139.101078 342.924616 79.001699 C 290.587119 18.90232 233.585884 -11.147369 172.957298 -11.147369 C 139.792944 -11.147369 109.219554 1.805083 81.755323 27.19189 C 54.809285 52.578697 40.818073 93.508446 39.781687 149.981138 L 39.781687 158.788806 C 39.781687 172.777455 42.890845 192.465182 48.072775 216.815793 C 53.254706 241.684501 69.836883 307.48296 96.782921 414.211167 C 130.465469 545.289985 147.047646 615.233228 147.047646 623.0047 C 147.047646 630.776171 134.09282 635.439054 109.219554 636.993348 C 105.592203 636.993348 103.001238 636.993348 100.928466 636.993348 L 95.746535 636.993348 C 89.528219 636.993348 84.864481 636.993348 82.791709 636.993348 C 81.23713 636.993348 78.646165 638.029544 76.0552 640.101937 C 73.464234 642.174329 72.427848 644.246722 72.946041 646.837212 Z M 336.188106 325.098295 L 336.188106 330.797374 C 336.188106 380.534791 315.460385 404.885401 275.041327 404.885401 C 263.641081 404.885401 252.240834 402.294911 239.804201 397.11393 C 227.885761 391.414851 217.003707 384.679576 207.158039 375.871908 C 196.794178 367.582339 188.50309 359.292769 181.248387 352.039396 C 173.475491 344.786022 167.775368 337.532649 163.111631 329.761178 L 156.893314 321.989706 L 136.165592 235.985422 C 121.137994 178.476534 113.883292 138.064882 113.883292 114.23237 C 113.883292 82.110288 122.17438 57.759677 138.238365 42.216735 C 148.602225 31.336675 162.075244 26.155694 178.139229 26.155694 C 199.903336 26.155694 222.185637 36.517656 244.986131 57.759677 C 261.568308 73.30262 275.041327 91.954152 284.886995 114.23237 C 295.250856 135.99249 306.13291 171.22316 318.05135 218.888185 C 329.96979 267.071308 336.188106 302.301979 336.188106 325.098295 Z M 336.188106 325.098295 "
     transform="matrix(0.00753821, 0, 0, -0.0075396, 120.360273, 31.040953)"
     id="path27" />
  <path
     fill-rule="nonzero"
     fill="rgb(0%, 0%, 0%)"
     fill-opacity="1"
     stroke-width="15.915973"
     stroke-linecap="butt"
     stroke-linejoin="miter"
     stroke="rgb(0%, 0%, 0%)"
     stroke-opacity="0.0942"
     stroke-miterlimit="4"
     d="M 20.902829 286.752018 C 21.421022 290.896802 22.457408 296.077783 24.011987 302.813059 C 25.566566 309.548334 29.193917 322.500786 35.930427 341.152318 C 42.666936 359.803849 49.403446 375.346792 56.139955 387.781146 C 62.876465 400.733599 73.240326 413.167953 87.749731 425.084209 C 102.777329 437.000465 117.286734 442.699544 131.796139 442.181446 C 146.823738 441.14525 160.81495 439.072858 174.806162 434.928073 C 188.797374 430.783288 199.161235 425.084209 204.861358 416.79464 C 211.079675 409.023168 216.261605 401.769795 220.925342 395.03452 C 225.58908 388.299244 228.180045 382.082067 229.216431 375.86489 L 230.77101 369.129615 C 230.77101 367.575321 231.289203 367.057222 231.807396 367.057222 L 243.207643 377.937282 C 283.108507 420.421326 329.745881 442.181446 384.15615 442.181446 C 395.556397 442.181446 405.920258 441.14525 415.247733 440.109054 C 424.575208 438.55476 432.866296 436.482367 441.157385 432.855681 C 448.930281 429.747092 455.148597 426.120405 459.812334 423.011817 C 464.476072 419.903228 469.658002 415.758443 474.839933 411.095561 C 480.540056 406.432678 483.649214 401.769795 485.203793 398.143108 C 486.24018 393.998323 488.831145 389.853539 492.976689 385.190656 C 497.122233 380.527773 498.15862 376.382988 497.122233 372.756302 C 495.567654 369.647713 496.60404 366.539124 500.231392 363.948634 C 503.34055 361.358143 503.858743 358.767653 501.785971 357.213359 L 510.077059 367.057222 C 552.050696 416.79464 601.797228 442.181446 658.798462 442.181446 C 695.071975 442.181446 724.090786 432.855681 745.854893 415.240345 C 768.137194 397.106912 779.537441 370.683909 780.055634 335.971337 C 780.055634 301.776862 767.100808 249.448955 742.227542 177.951418 C 716.836083 106.45388 703.881257 63.969837 703.881257 49.981188 C 704.917643 40.655422 706.472222 34.438245 709.063187 30.811558 C 711.654153 27.70297 716.836083 26.148676 724.090786 26.148676 C 742.745735 26.148676 759.846105 35.992539 775.91009 56.198365 C 791.974074 75.886093 804.9289 103.345292 814.774568 138.057864 C 816.84734 145.311238 818.920112 149.456022 820.992884 151.010317 C 823.065656 152.564611 828.247587 153.082709 837.056869 153.082709 C 850.529888 153.082709 856.748204 150.492219 856.748204 144.793139 C 856.748204 144.275041 855.711818 139.09406 853.120853 129.768295 C 847.420729 110.598665 840.166027 91.429036 830.838552 72.777504 C 821.511077 54.125973 806.483479 35.474441 785.237564 16.82291 C 763.473457 -1.828622 740.672963 -10.636289 715.799697 -10.118191 C 684.708114 -10.118191 661.907621 -0.792425 647.916408 16.82291 C 633.925196 34.956343 627.188687 53.607875 627.188687 72.777504 C 627.188687 85.729957 639.107127 125.62351 662.944007 192.976262 C 686.780887 260.329015 699.21752 311.102628 700.253906 344.779004 C 700.253906 384.15446 685.226307 403.842187 656.207497 403.842187 L 651.025567 403.842187 C 593.506139 403.842187 545.314186 370.165811 505.931515 302.813059 L 499.195006 290.896802 L 466.030651 157.227494 C 443.74835 69.668916 431.311717 22.521989 428.202559 15.786714 C 419.393277 -1.828622 404.883872 -11.154387 385.192537 -11.154387 C 376.383255 -11.154387 369.128552 -8.563897 363.946622 -3.901014 C 358.764691 0.761869 355.13734 4.906654 353.064568 8.015242 C 350.991796 11.123831 349.95541 14.750518 349.95541 17.859106 C 349.95541 25.112479 361.355657 72.777504 384.15615 160.85418 L 419.91147 306.957843 C 421.984242 316.801707 423.020629 329.75416 423.020629 344.779004 C 423.020629 384.15446 408.511223 403.842187 378.97422 403.842187 L 373.79229 403.842187 C 316.791055 403.842187 268.080909 370.165811 229.216431 302.813059 L 221.961729 290.896802 L 188.797374 157.227494 C 167.033266 69.668916 154.07844 22.521989 150.969282 15.786714 C 142.16 -1.828622 128.168788 -11.154387 107.959259 -11.154387 C 99.149978 -11.154387 92.413468 -9.081995 87.231538 -4.93721 C 81.531414 -0.792425 77.904063 2.834261 75.831291 6.979046 C 73.758519 11.123831 73.240326 14.232419 73.758519 16.82291 C 73.758519 25.630578 86.713345 80.548976 112.104804 181.060006 C 138.014456 283.643429 150.969282 337.525631 150.969282 342.188514 C 153.042054 352.032378 154.07844 360.840045 154.07844 369.129615 C 154.07844 392.962127 145.787351 404.878383 129.205174 404.878383 C 114.177576 404.878383 101.740943 395.552618 91.895275 376.901086 C 82.049607 358.249555 74.276712 338.043729 69.094781 315.765511 C 63.912851 294.005391 59.767307 282.089135 57.176341 280.016742 C 55.621762 278.462448 50.439832 277.94435 41.112357 277.94435 L 27.121145 277.94435 C 22.975601 282.089135 20.902829 285.197723 20.902829 286.752018 Z M 20.902829 286.752018 "
     transform="matrix(0.00753821, 0, 0, -0.0075396, 113.830711, 39.755744)"
     id="path29" />
  <path
     fill-rule="nonzero"
     fill="rgb(0%, 0%, 0%)"
     fill-opacity="1"
     stroke-width="15.915973"
     stroke-linecap="butt"
     stroke-linejoin="miter"
     stroke="rgb(0%, 0%, 0%)"
     stroke-opacity="0.0942"
     stroke-miterlimit="4"
     d="M 117.10576 58.788856 C 117.10576 37.028736 125.396848 26.148676 141.979026 26.148676 C 166.852292 26.148676 187.580013 60.861248 205.198577 130.804491 C 208.825928 144.275041 212.453279 151.528415 215.044245 152.046513 C 216.080631 152.564611 219.707982 153.082709 224.889912 153.082709 L 229.035457 153.082709 C 235.253773 153.082709 238.881124 153.082709 240.953897 153.082709 C 243.026669 153.082709 244.581248 152.564611 246.135827 151.010317 C 247.172213 149.456022 248.208599 147.38363 248.208599 143.756943 C 247.172213 140.130257 246.135827 134.431178 245.099441 128.214 C 243.544862 121.478725 239.91751 108.526273 234.217387 89.874741 C 227.999071 71.22321 221.262561 55.680267 214.007858 43.245913 C 206.753156 30.29346 196.389295 17.859106 182.916276 5.94285 C 169.443257 -5.973406 154.415659 -11.672485 136.797095 -11.154387 C 112.960215 -11.154387 90.677915 -3.901014 69.950193 11.123831 C 49.222471 25.630578 38.85861 50.499286 37.822224 85.211859 C 37.822224 92.98333 38.340417 98.682409 38.85861 101.790998 L 104.150934 359.803849 C 146.12457 530.258123 166.852292 617.816701 166.852292 622.997682 C 166.852292 625.070074 166.852292 626.624368 165.815906 628.178663 C 165.297713 629.214859 163.743133 630.769153 162.188554 631.805349 C 160.115782 633.359644 158.561203 633.877742 157.006624 633.877742 C 155.452045 633.877742 152.86108 634.39584 149.233728 634.913938 C 145.088184 635.432036 142.497219 635.950134 140.94264 635.950134 C 139.906254 635.950134 136.797095 636.468232 132.133358 636.98633 C 127.469621 637.504428 123.842269 637.504428 121.769497 636.98633 C 115.551181 636.98633 110.887443 636.98633 108.814671 636.98633 C 106.741899 636.98633 104.150934 637.504428 101.041775 638.022526 C 97.414424 638.540625 95.859845 639.576821 94.823459 641.131115 C 94.305266 642.167311 93.787073 644.239704 93.787073 646.830194 C 93.787073 648.384488 94.823459 653.047371 95.859845 660.818843 C 99.487196 673.771295 103.114548 680.50657 106.741899 682.060865 C 110.887443 683.097061 135.242516 685.169453 178.770732 687.759944 C 189.134592 688.79614 200.534839 689.314238 212.971472 689.832336 C 225.408105 690.868532 235.771966 691.904728 243.026669 692.940925 C 250.281371 694.495219 253.908723 694.495219 253.908723 693.977121 C 262.199811 693.977121 265.827163 691.38663 265.827163 686.205649 C 265.827163 678.434178 241.47209 578.441245 192.761944 386.226852 C 144.569991 193.49436 119.178532 92.465232 118.142146 83.139466 C 118.142146 81.585172 118.142146 78.994681 118.142146 74.849897 C 118.142146 71.22321 117.623953 67.596523 117.10576 65.006033 Z M 117.10576 58.788856 "
     transform="matrix(0.00753821, 0, 0, -0.0075396, 120.449263, 39.755744)"
     id="path31" />
  <path
     fill-rule="nonzero"
     fill="rgb(0%, 0%, 0%)"
     fill-opacity="1"
     stroke-width="19.795986"
     stroke-linecap="butt"
     stroke-linejoin="miter"
     stroke="rgb(0%, 0%, 0%)"
     stroke-opacity="0.0758"
     stroke-miterlimit="4"
     d="M 109.073605 428.952224 C 91.027082 428.952224 76.847672 434.751829 65.890855 446.99544 C 55.578557 459.239051 49.777889 473.415864 49.777889 490.814679 C 49.777889 538.500322 67.824411 579.097558 103.272937 613.89519 C 138.076944 648.692821 182.548731 666.091637 234.754741 666.091637 C 295.984013 666.091637 346.256468 647.40402 386.861142 610.028786 C 427.465817 572.653553 448.090414 524.323509 448.734933 465.038656 C 448.734933 436.04063 442.289746 408.975806 428.754855 383.199783 C 415.864482 356.779359 399.751515 334.225339 381.060475 314.893321 C 362.369434 295.561304 335.944169 271.074082 301.140162 240.787255 C 277.292972 220.166436 243.778002 189.879609 201.239771 149.282372 L 141.944056 93.219522 L 217.997256 91.930721 C 322.409278 91.930721 378.4824 93.863923 384.927587 97.085926 C 389.439217 98.374727 397.81796 128.017153 408.774777 186.013205 L 408.774777 189.235208 L 448.734933 189.235208 L 448.734933 186.013205 C 448.090414 184.080004 444.223302 153.793177 435.84456 95.152724 C 428.110336 36.512271 422.954187 5.581043 421.020631 3.003441 L 421.020631 -0.218562 L 49.777889 -0.218562 L 49.777889 30.712666 C 49.777889 35.867871 51.711445 40.378675 56.223075 46.17828 C 60.090187 51.333484 69.757967 62.932695 85.870933 80.975911 C 105.206493 102.24113 121.963978 120.928747 136.143388 137.038761 C 141.944056 143.482767 153.545391 155.726378 170.302876 173.769594 C 186.415843 191.812811 198.017178 204.056422 203.817846 211.144828 C 210.263033 217.588834 219.930812 228.543644 232.821185 244.009258 C 246.356077 259.474871 255.379338 270.429681 261.180006 278.162488 C 266.336155 285.250895 274.070379 295.561304 283.738159 307.804915 C 294.050457 320.692926 301.140162 331.647736 305.007274 340.024944 C 308.874386 348.402151 314.030535 358.06816 319.831203 369.02297 C 326.276389 379.97778 330.143501 390.288189 332.721576 401.242999 C 335.944169 411.553408 337.877725 421.863817 339.811281 430.885425 C 341.744837 440.551434 343.033874 451.506244 343.033874 463.749855 C 343.033874 506.280293 331.432539 542.366725 308.874386 573.297953 C 286.316233 603.58478 254.090301 619.050394 212.196588 619.050394 C 190.282954 619.050394 170.947395 613.250789 154.18991 602.295979 C 137.432425 590.696769 125.831089 579.741959 118.741384 568.787149 C 112.296198 558.47674 109.073605 552.032734 109.073605 550.099532 C 109.073605 549.455132 110.362642 548.810731 114.229754 548.810731 C 125.831089 548.810731 138.076944 544.299927 150.967317 535.278319 C 163.85769 525.61231 170.302876 510.146697 170.302876 488.881477 C 170.302876 472.127062 164.502208 458.59465 154.18991 446.99544 C 143.233093 435.396229 128.409164 429.596624 109.073605 428.952224 Z M 109.073605 428.952224 "
     transform="matrix(0.00606072, 0, 0, -0.00606184, 122.944404, 37.5768)"
     id="path33" />
  <path
     fill-rule="nonzero"
     fill="rgb(0%, 0%, 0%)"
     fill-opacity="1"
     d="M 112.765625 32.898438 L 127.421875 32.898438 L 127.421875 32.257813 L 112.765625 32.257813 Z M 112.765625 32.898438 "
     id="path35" />
  <path
     fill-rule="nonzero"
     fill="rgb(0%, 0%, 0%)"
     fill-opacity="1"
     stroke-width="11.252594"
     stroke-linecap="butt"
     stroke-linejoin="miter"
     stroke="rgb(0%, 0%, 0%)"
     stroke-opacity="0.1333"
     stroke-miterlimit="4"
     d="M 131.057541 289.050643 C 131.057541 310.295775 136.186615 331.907202 147.17749 353.884925 C 157.802002 375.862647 176.486489 396.375188 202.864589 415.056252 C 229.609051 433.737316 261.84895 442.528405 299.950649 442.16211 C 341.34961 442.16211 371.391334 433.004726 390.075821 415.056252 C 408.760308 397.107779 418.285733 376.961533 419.018458 354.983811 C 419.018458 333.738679 413.156658 317.987978 402.165784 308.098003 C 390.808546 297.841732 377.985859 292.713597 364.064085 291.981006 C 355.271385 291.981006 347.21141 294.545074 339.88416 300.039504 C 332.55691 305.16764 328.526923 313.958729 328.16056 326.046476 C 328.16056 336.669042 331.09146 345.826426 336.95326 353.884925 C 343.181423 361.943423 348.67686 368.170444 354.172297 371.833398 C 359.301372 375.862647 363.697722 378.060419 366.994984 378.060419 C 367.727709 378.060419 368.094072 378.426715 368.094072 379.159306 C 368.094072 380.990782 365.529534 383.921145 361.133185 387.950395 C 356.370472 391.979644 347.944135 395.642597 335.854173 398.939256 C 324.130573 402.235914 310.941523 404.433686 297.019749 405.166277 C 265.146212 405.166277 241.699013 396.375188 227.044513 379.159306 C 212.390013 361.577127 204.696401 343.994949 203.963676 326.046476 C 203.963676 309.196889 210.191839 297.841732 223.014526 290.88212 C 235.837213 284.288803 254.155337 278.794373 277.968899 274.032533 C 302.148824 269.270693 319.367861 264.508853 329.992373 259.014422 C 373.955872 239.600767 395.937621 207.73307 395.937621 163.045034 C 395.937621 144.36397 392.273996 125.682906 384.946746 107.001841 C 377.619497 88.320777 366.628622 69.639713 351.974122 50.958649 C 337.319623 32.277585 316.436961 17.62577 288.959774 7.003204 C 261.84895 -3.619362 230.341776 -9.480088 195.170976 -9.846383 C 143.513865 -9.846383 107.243979 -0.322704 85.994954 19.090951 C 64.74593 38.504606 53.755055 60.848624 53.02233 86.855596 C 53.02233 112.862567 59.983218 131.543632 73.904992 142.898788 C 87.826767 154.253945 102.847629 160.114671 117.868491 160.114671 C 128.126641 160.114671 137.285703 156.818013 146.078403 150.957287 C 154.50474 145.09656 159.267452 134.84029 160.000177 119.82218 C 160.000177 102.606297 154.138378 87.954482 142.048415 75.866735 C 129.958453 64.145282 119.700303 57.918261 110.907604 57.918261 C 109.808516 57.18567 108.709429 56.819375 107.976704 56.819375 C 107.243979 56.819375 106.877616 56.45308 106.877616 54.987898 C 107.610341 53.156421 110.174879 50.226058 114.937591 46.9294 C 119.700303 43.632741 129.958453 39.237197 146.078403 34.109062 C 161.83199 28.614631 180.516477 26.416859 201.032776 27.14945 C 224.846338 27.14945 245.729 30.812403 262.948037 38.138311 C 280.167074 45.464218 292.989761 54.621603 301.049736 65.976759 C 309.109711 77.331916 314.605148 87.588187 317.902411 97.111866 C 321.199673 106.269251 323.031486 114.694044 323.031486 122.019952 C 323.031486 140.701016 316.070598 154.62024 302.148824 164.14392 C 287.860687 173.301304 272.107099 179.16203 254.155337 180.993507 C 235.837213 182.824984 216.420001 187.953119 195.170976 196.011618 C 173.55559 204.070116 158.168365 215.791568 147.910215 231.175974 C 136.552978 247.659266 131.057541 267.072921 131.057541 289.050643 Z M 131.057541 289.050643 "
     transform="matrix(0.0106623, 0, 0, -0.0106642, 128.700287, 35.242652)"
     id="path37" />
  <path
     fill-rule="nonzero"
     fill="rgb(0%, 0%, 0%)"
     fill-opacity="1"
     d="M 87.730469 23.886719 L 134.765625 23.886719 L 134.765625 23.25 L 87.730469 23.25 Z M 87.730469 23.886719 "
     id="path39" />
  <path
     fill="none"
     stroke-width="1"
     stroke-linecap="butt"
     stroke-linejoin="miter"
     stroke="rgb(0%, 0%, 0%)"
     stroke-opacity="1"
     stroke-miterlimit="10"
     d="M 8.001814 31.002444 L 81.628774 31.002444 "
     transform="matrix(0.751678, 0, 0, 0.751678, 0.375839, 0.375839)"
     id="path41" />
  <path
     fill-rule="nonzero"
     fill="rgb(0%, 0%, 0%)"
     fill-opacity="1"
     stroke-width="1"
     stroke-linecap="butt"
     stroke-linejoin="miter"
     stroke="rgb(0%, 0%, 0%)"
     stroke-opacity="1"
     stroke-miterlimit="10"
     d="M 86.877449 31.002444 L 79.877484 34.499829 L 81.628774 31.002444 L 79.877484 27.499863 Z M 86.877449 31.002444 "
     transform="matrix(0.751678, 0, 0, 0.751678, 0.375839, 0.375839)"
     id="path43" />
  <path
     fill="none"
     stroke-width="1"
     stroke-linecap="butt"
     stroke-linejoin="miter"
     stroke="rgb(0%, 0%, 0%)"
     stroke-opacity="1"
     stroke-miterlimit="10"
     d="M 208.002321 30.690642 L 281.62928 30.690642 "
     transform="matrix(0.751678, 0, 0, 0.751678, 0.375839, 0.375839)"
     id="path45" />
  <path
     fill-rule="nonzero"
     fill="rgb(0%, 0%, 0%)"
     fill-opacity="1"
     d="M 216.015625 23.445313 L 210.753906 26.074219 L 212.070313 23.445313 L 210.753906 20.8125 Z M 216.015625 23.445313 "
     id="path47" />
  <g
     clip-path="url(#clip-0)"
     id="g51">
    <path
       fill="none"
       stroke-width="1"
       stroke-linecap="butt"
       stroke-linejoin="miter"
       stroke="#000000"
       stroke-opacity="1"
       stroke-miterlimit="10"
       d="m 286.87796,30.690642 -6.99997,3.497384 1.75129,-3.497384 -1.75129,-3.502581 z m 0,0"
       transform="matrix(0.751678,0,0,0.751678,0.375839,0.375839)"
       id="path49" />
  </g>
  <path
     fill-rule="nonzero"
     fill="rgb(0%, 0%, 0%)"
     fill-opacity="1"
     stroke-width="11.233297"
     stroke-linecap="butt"
     stroke-linejoin="miter"
     stroke="rgb(0%, 0%, 0%)"
     stroke-opacity="0.1314"
     stroke-miterlimit="4"
     d="M 35.991162 443.037944 C 36.722496 446.435674 40.013501 484.565754 45.864177 558.183234 C 52.08052 631.423189 55.005857 669.175743 55.005857 671.063371 L 55.005857 677.10378 L 666.035776 677.10378 L 666.035776 671.063371 C 666.767111 667.665641 670.058116 629.158036 675.908791 555.918081 C 682.125134 482.678126 685.050471 444.925572 685.050471 443.037944 L 685.050471 436.997535 L 644.827078 436.997535 L 644.827078 443.037944 C 644.827078 444.170521 644.095743 455.873813 641.90174 478.147819 C 640.073404 500.044301 636.416732 521.940782 630.931723 543.837264 C 625.812382 566.111271 618.499038 582.344869 610.088692 592.915584 C 598.753008 606.884029 580.469647 617.83227 554.872942 625.005255 C 540.977588 628.402985 515.380883 629.913087 478.082827 629.913087 L 442.978774 629.913087 C 425.792415 629.913087 415.9194 626.137832 414.091064 617.83227 C 413.35973 616.699693 412.994062 523.82841 412.994062 338.840895 L 412.994062 62.869724 C 417.747736 56.45179 426.158082 51.921483 438.956435 50.033856 C 451.754787 48.146228 481.373832 46.636126 528.179236 45.881075 L 558.163947 45.881075 L 558.163947 -0.177041 L 544.999927 -0.177041 L 361.069318 2.843163 C 244.421475 1.710586 182.989383 0.57801 177.138708 -0.177041 L 163.974688 -0.177041 L 163.974688 45.881075 L 193.9594 45.881075 C 240.764803 45.881075 270.383848 47.013651 283.1822 48.901279 C 295.614886 51.166432 304.390899 55.696739 309.144573 62.869724 L 309.144573 549.877672 C 309.144573 596.690839 307.316237 621.607525 304.025232 625.005255 C 300.734227 628.402985 289.76421 629.913087 271.115182 629.913087 L 223.944111 629.913087 C 177.504375 629.913087 142.400322 620.474949 118.99762 600.84362 C 106.930602 590.272905 98.154589 574.794358 93.035248 554.030453 C 87.55024 533.266549 83.5279 510.615016 80.96823 486.075856 C 78.408559 461.15917 76.580223 446.8132 75.848889 443.037944 L 75.848889 436.997535 L 35.991162 436.997535 Z M 35.991162 443.037944 "
     transform="matrix(0.0106825, 0, 0, -0.010347, 33.080367, 16.205199)"
     id="path53" />
  <path
     fill-rule="nonzero"
     fill="rgb(0%, 0%, 0%)"
     fill-opacity="1"
     stroke-width="11.233297"
     stroke-linecap="butt"
     stroke-linejoin="miter"
     stroke="rgb(0%, 0%, 0%)"
     stroke-opacity="0.1314"
     stroke-miterlimit="4"
     d="M 179.130103 250.920786 C 168.891421 250.920786 159.749741 249.033158 150.973728 244.880377 C 142.197714 241.105122 135.615705 237.329867 130.862031 233.932137 C 126.474024 230.534407 119.526347 224.493998 111.116001 215.05586 L 96.85498 227.136677 L 82.959625 238.084918 C 82.959625 238.839969 86.981965 243.747801 95.026644 253.185939 C 103.071322 262.246552 111.847336 272.439742 120.989016 283.010457 C 130.496364 293.581172 137.444041 300.754158 141.832047 304.151887 C 157.19007 313.2125 172.182426 318.120332 187.174782 318.120332 C 201.801471 318.120332 223.741504 312.079924 252.994881 299.999106 C 282.248258 287.918289 304.553959 281.87788 319.911982 281.87788 C 330.150664 281.87788 339.292344 284.143034 348.068357 287.918289 C 356.844371 292.07107 363.426381 295.846326 368.180054 298.86653 C 372.568061 302.26426 379.515738 308.682194 387.926084 318.120332 L 401.821438 306.039515 L 416.08246 295.091274 C 388.657418 255.828618 364.523382 231.289458 344.046018 221.851319 C 334.53867 217.321013 324.299988 215.05586 312.964305 215.05586 C 299.06895 215.05586 277.494585 221.096268 247.87554 233.177086 C 218.622163 244.880377 195.585128 250.920786 179.130103 250.920786 Z M 179.130103 250.920786 "
     transform="matrix(0.0106825, 0, 0, -0.010347, 34.266125, 10.33846)"
     id="path55" />
  <path
     fill-rule="nonzero"
     fill="rgb(0%, 0%, 0%)"
     fill-opacity="1"
     stroke-width="11.233297"
     stroke-linecap="butt"
     stroke-linejoin="miter"
     stroke="rgb(0%, 0%, 0%)"
     stroke-opacity="0.1314"
     stroke-miterlimit="4"
     d="M 93.959405 250.122392 C 93.959405 296.180509 97.25041 339.595946 103.83242 381.123755 C 110.780097 422.274039 118.459108 458.138966 126.869454 487.963484 C 135.645467 518.165527 148.078153 547.234994 164.16751 575.926935 C 179.891201 604.618876 192.689553 626.892883 201.831234 643.126481 C 211.338581 658.982554 225.233935 676.348729 243.882963 694.84748 C 262.531992 713.723757 273.502008 725.049524 277.15868 728.824779 C 280.449685 732.97756 288.494364 740.150545 302.024051 749.966209 L 318.844743 749.966209 C 328.352091 749.966209 333.105764 746.946005 333.105764 740.905596 C 333.105764 739.017969 327.255089 731.844983 315.919405 720.141692 C 304.583721 708.060874 291.054034 690.317174 274.964677 666.91059 C 258.875319 643.504007 242.785962 614.812065 225.96527 580.834767 C 209.510245 546.857468 195.249224 501.176877 183.91354 443.037944 C 172.577856 384.899011 167.092848 320.719669 167.092848 250.122392 C 167.092848 179.147591 172.577856 115.345774 183.91354 57.961892 C 195.249224 0.57801 209.144578 -45.480106 224.868268 -80.967507 C 240.957626 -116.454908 257.412651 -145.146849 273.867675 -167.043331 C 290.688367 -188.939812 304.583721 -206.683513 315.919405 -219.896907 C 327.255089 -233.487826 333.105764 -240.283286 333.105764 -241.038337 C 333.105764 -247.078746 327.986423 -250.09895 318.113408 -250.09895 L 302.024051 -250.09895 L 273.867675 -225.937315 C 211.338581 -169.308484 165.630179 -98.711208 137.108136 -14.145487 C 108.220426 70.79776 93.959405 158.761211 93.959405 250.122392 Z M 93.959405 250.122392 "
     transform="matrix(0.0106825, 0, 0, -0.010347, 40.793151, 16.205199)"
     id="path57" />
  <path
     fill-rule="nonzero"
     fill="rgb(0%, 0%, 0%)"
     fill-opacity="1"
     stroke-width="11.233297"
     stroke-linecap="butt"
     stroke-linejoin="miter"
     stroke="rgb(0%, 0%, 0%)"
     stroke-opacity="0.1314"
     stroke-miterlimit="4"
     d="M 130.961868 289.007523 C 130.961868 310.148954 136.446876 332.045435 147.051226 353.941916 C 157.655575 375.838398 176.304603 396.224777 202.99831 415.101054 C 229.692017 433.599806 261.870732 442.660419 299.900122 441.905367 C 341.220518 441.905367 371.205229 432.844755 389.854257 415.101054 C 408.503285 396.979828 418.3763 376.970974 419.107635 355.074493 C 419.107635 333.555537 413.256959 318.07699 401.921276 307.8838 C 390.585592 298.068136 378.152907 292.782779 363.891885 292.027728 C 355.481539 292.027728 347.43686 294.670406 340.123516 299.955764 C 332.810172 305.241122 328.787832 313.924209 328.056498 326.005026 C 328.056498 336.575741 330.981836 346.01388 336.832511 353.941916 C 343.048854 361.869953 348.533862 367.910361 354.01887 372.063142 C 359.503878 375.838398 363.526218 378.103551 366.817223 378.103551 C 367.548557 378.103551 367.914224 378.481077 367.914224 378.858602 C 367.914224 381.123755 365.720221 384.14396 360.966547 387.919215 C 356.212874 392.071996 348.168195 395.847251 336.101177 398.867456 C 324.034158 402.265186 310.870139 404.152813 296.974784 404.907864 C 265.161737 404.907864 241.759035 396.224777 227.132346 378.858602 C 212.505657 361.492427 204.826646 344.126252 204.095311 326.005026 C 204.095311 309.393902 210.311654 297.690611 223.110007 290.895151 C 235.542692 284.477217 253.826053 278.814334 277.960089 273.906502 C 302.094125 269.376195 319.280485 264.468363 329.884834 259.183005 C 374.130567 239.551677 396.0706 207.839532 396.0706 162.913992 C 396.0706 144.415241 392.413928 125.538964 385.100584 107.040212 C 377.787239 88.163935 366.817223 69.665184 351.824867 51.166432 C 337.198178 32.290155 316.355147 17.566659 288.930106 6.995944 C 261.505064 -3.574771 230.423351 -9.237654 194.953631 -9.992706 C 143.760221 -9.992706 107.193499 -0.177041 85.9848 19.076761 C 64.776102 38.330564 53.806085 60.982096 53.074751 87.031359 C 53.074751 113.080621 60.022428 131.579372 73.917782 142.905139 C 88.178804 154.230905 102.805492 159.893788 118.163516 159.893788 C 128.03653 159.893788 137.178211 156.873584 145.954224 150.833175 C 154.730237 145.170292 159.483911 134.599577 159.849578 119.876081 C 159.849578 102.509906 153.998903 88.163935 141.931885 76.083118 C 129.864866 64.002301 119.626184 57.961892 110.850171 57.961892 C 109.75317 57.206841 108.656168 56.829315 107.924833 56.829315 C 107.193499 56.829315 106.827832 56.45179 106.827832 54.941688 C 107.559166 53.05406 110.484504 50.411381 114.872511 47.013651 C 119.626184 43.615921 129.864866 39.46314 145.954224 34.177783 C 162.043582 28.5149 180.326942 26.249746 201.169974 27.004797 C 224.938343 27.004797 245.781374 30.780053 262.967733 37.953038 C 280.154092 45.503549 292.952445 54.564162 300.997124 65.889928 C 309.041803 77.215694 314.526811 87.78641 317.817816 96.847023 C 321.474488 106.285161 322.937157 114.590723 322.937157 122.141234 C 322.937157 140.639985 315.98948 154.60843 302.094125 164.046569 C 287.833104 173.484708 272.109414 179.147591 253.826053 181.035218 C 235.908359 182.922846 216.16233 187.830678 194.953631 196.13624 C 173.744932 204.064276 158.021242 215.767568 148.148227 230.86859 C 136.812544 247.479714 130.961868 267.111042 130.961868 289.007523 Z M 130.961868 289.007523 "
     transform="matrix(0.0106825, 0, 0, -0.010347, 44.948653, 16.205199)"
     id="path59" />
  <path
     fill-rule="nonzero"
     fill="rgb(0%, 0%, 0%)"
     fill-opacity="1"
     stroke-width="11.233297"
     stroke-linecap="butt"
     stroke-linejoin="miter"
     stroke="rgb(0%, 0%, 0%)"
     stroke-opacity="0.1314"
     stroke-miterlimit="4"
     d="M 60.173456 748.833633 L 63.830128 749.966209 C 67.4868 749.966209 70.777805 749.966209 74.06881 749.966209 L 86.135828 749.966209 L 113.926537 726.1821 C 176.821298 669.175743 222.164033 598.578467 251.051743 514.012746 C 279.573786 429.447025 293.834807 341.483573 293.834807 250.122392 C 293.834807 204.819327 290.543802 161.026365 283.961792 119.12103 C 277.379783 76.838169 269.700771 41.350768 260.924758 11.903776 C 252.514412 -17.165691 240.081726 -46.612683 223.992369 -76.059675 C 207.903011 -105.506668 195.470326 -127.780674 185.962978 -142.881696 C 176.821298 -158.360243 162.925944 -175.348893 145.00825 -193.847644 C 127.090557 -212.723921 116.486207 -223.672162 112.829535 -227.069892 C 109.53853 -230.467622 101.859519 -236.50803 90.158168 -245.946169 C 87.964164 -247.833797 86.501496 -249.343899 86.135828 -250.09895 L 74.06881 -250.09895 C 68.583802 -250.09895 64.92713 -250.09895 63.098794 -250.09895 C 60.90479 -250.09895 59.442121 -248.966373 57.979453 -247.078746 C 56.516784 -244.813592 55.785449 -242.170914 55.054115 -238.018133 C 55.785449 -237.263082 59.442121 -233.110301 66.024131 -225.182264 C 169.507954 -117.587485 221.067031 40.595717 221.067031 250.122392 C 221.067031 459.271542 169.507954 617.83227 66.024131 725.049524 C 59.442121 732.97756 55.785449 737.507866 55.054115 737.885392 C 55.054115 743.17075 56.516784 746.946005 60.173456 748.833633 Z M 60.173456 748.833633 "
     transform="matrix(0.0106825, 0, 0, -0.010347, 49.958758, 16.205199)"
     id="path61" />
  <path
     fill-rule="nonzero"
     fill="rgb(0%, 0%, 0%)"
     fill-opacity="1"
     stroke-width="11.403062"
     stroke-linecap="butt"
     stroke-linejoin="miter"
     stroke="rgb(0%, 0%, 0%)"
     stroke-opacity="0.1307"
     stroke-miterlimit="4"
     d="M 55.884211 339.94074 C 55.884211 395.24856 66.040064 446.844445 85.975625 493.98601 C 105.911187 541.498768 131.865032 580.102883 163.83716 610.16955 C 196.18543 639.865024 231.166699 663.25021 269.909395 679.953914 C 308.652091 696.657617 348.147072 704.823873 388.018196 704.823873 C 476.787868 704.823873 554.273259 670.302885 620.850513 600.889715 C 687.80391 531.847739 721.280608 444.988478 722.032893 341.05432 C 722.032893 286.860081 712.253184 237.120162 693.069907 191.092178 C 673.510488 145.064194 648.308929 106.460078 617.089086 74.908638 C 585.493101 43.72839 550.13569 19.972011 509.888423 4.010694 C 470.017299 -11.950623 429.39389 -20.488072 388.018196 -21.972845 C 346.642501 -23.457619 306.395235 -14.92017 266.900253 2.897114 C 227.781415 21.085592 192.047861 44.841971 160.075733 74.166251 C 128.103605 103.490531 102.902046 141.723453 84.847197 188.865018 C 67.168492 236.377776 57.388782 286.488887 55.884211 339.94074 Z M 609.942375 338.82716 C 609.942375 398.218107 603.171807 450.185186 590.006813 495.09959 C 576.84182 539.6428 558.410829 574.163789 535.089983 597.920168 C 511.769137 622.04774 487.696005 639.493831 462.870588 651.000827 C 438.421314 662.507823 412.091327 668.075724 383.880626 668.075724 C 349.2755 668.075724 317.679515 658.053502 289.092671 638.009057 C 260.505828 617.964612 237.561125 593.83704 221.010847 565.997533 C 185.653435 512.174487 167.974729 436.451029 167.974729 338.82716 C 167.974729 295.768723 170.607728 260.876541 175.873725 234.893002 C 184.525007 183.66831 201.82757 140.23868 228.157558 104.975305 C 254.111402 69.71193 286.08353 44.099584 324.07394 28.138267 C 345.514073 19.972011 366.578063 15.888884 388.018196 15.888884 C 406.073044 15.888884 424.127893 18.487238 442.182741 24.055139 C 459.861447 29.251847 479.797009 39.274069 500.860999 54.121806 C 522.301132 68.598349 540.35598 87.529214 555.025544 110.914399 C 569.695109 134.299585 582.48396 165.851026 594.144383 204.826335 C 605.428663 244.172837 610.694661 289.087241 609.942375 338.82716 Z M 222.89156 263.103702 L 222.89156 421.974486 L 263.138827 421.974486 L 263.138827 387.824691 L 514.025993 387.824691 L 514.025993 421.974486 L 553.897116 421.974486 L 553.897116 263.103702 L 514.025993 263.103702 L 514.025993 296.882303 L 263.138827 296.882303 L 263.138827 263.103702 Z M 222.89156 263.103702 "
     transform="matrix(0.010385, 0, 0, -0.0105235, 168.384485, 15.409394)"
     id="path63" />
  <path
     fill-rule="nonzero"
     fill="rgb(0%, 0%, 0%)"
     fill-opacity="1"
     stroke-width="11.403062"
     stroke-linecap="butt"
     stroke-linejoin="miter"
     stroke="rgb(0%, 0%, 0%)"
     stroke-opacity="0.1307"
     stroke-miterlimit="4"
     d="M 94.115005 250.111932 C 94.115005 296.139916 97.500289 339.569547 103.894715 381.14321 C 110.665283 422.345679 118.188136 457.980248 126.839418 488.046915 C 135.4907 518.113582 147.903408 547.437862 164.077543 576.019756 C 179.875536 604.601649 192.664387 626.873254 202.067954 642.834571 C 211.47152 659.167082 225.3888 676.241979 243.819791 695.172844 C 262.626925 713.732515 273.535062 724.868317 276.920346 728.951445 C 280.30563 733.034573 288.580769 740.087248 302.121906 750.10947 L 319.048326 750.10947 C 328.451893 750.10947 332.965605 747.139923 332.965605 740.829635 C 332.965605 738.973667 327.323465 731.920992 316.039185 720.042803 C 304.754905 708.164613 290.837625 690.347329 275.039633 666.962144 C 258.865498 643.576958 242.691363 614.995065 226.141085 580.84527 C 209.214664 547.066669 195.297385 501.038685 184.013105 443.132511 C 172.728825 384.855144 167.086685 320.638682 167.086685 250.111932 C 167.086685 179.213989 172.728825 115.36872 184.013105 57.83374 C 195.297385 0.669953 208.838522 -45.729224 225.012657 -80.992599 C 241.186792 -116.255974 257.360927 -144.837868 273.911205 -167.109473 C 290.837625 -189.009885 304.754905 -206.827169 316.039185 -219.818939 C 327.323465 -233.181902 332.965605 -240.234577 332.965605 -240.976963 C 332.965605 -246.916058 328.075751 -249.885606 317.919898 -249.885606 L 302.121906 -249.885606 L 273.911205 -226.129227 C 211.47152 -169.336633 165.582114 -98.809883 136.99527 -14.177783 C 108.408427 70.82551 94.115005 158.798351 94.115005 250.111932 Z M 94.115005 250.111932 "
     transform="matrix(0.010385, 0, 0, -0.0105235, 176.46402, 15.409394)"
     id="path65" />
  <path
     fill-rule="nonzero"
     fill="rgb(0%, 0%, 0%)"
     fill-opacity="1"
     stroke-width="11.403062"
     stroke-linecap="butt"
     stroke-linejoin="miter"
     stroke="rgb(0%, 0%, 0%)"
     stroke-opacity="0.1307"
     stroke-miterlimit="4"
     d="M 130.908299 289.087241 C 130.908299 310.245266 136.174296 332.145678 147.082434 354.04609 C 157.614429 375.946502 176.421563 396.36214 203.127693 414.921811 C 229.833823 433.481482 262.182093 442.761318 300.172504 442.018931 C 341.172056 442.018931 371.26347 433.110289 390.070604 414.921811 C 408.501595 397.104527 418.281305 377.060082 419.03359 355.15967 C 419.03359 333.630452 413.39145 318.040328 402.10717 308.018106 C 390.822889 297.995884 378.034038 292.799176 364.116759 292.056789 C 355.465478 292.056789 347.190339 294.655143 340.043628 299.851851 C 332.520774 305.419752 328.759347 313.957201 328.007062 325.83539 C 328.007062 336.599999 331.016203 345.879835 337.034486 354.04609 C 343.052769 361.841152 348.694909 368.15144 353.960907 371.863374 C 359.226904 375.946502 363.740616 378.173662 367.125901 378.173662 C 367.502043 378.173662 367.878186 378.173662 367.878186 378.916049 C 367.878186 381.14321 365.62133 384.112757 361.107618 387.824691 C 356.217763 391.907819 347.942624 395.619753 335.906058 398.960494 C 323.869493 402.301235 311.080642 404.157202 297.163362 404.899589 C 264.815092 404.899589 241.494246 396.36214 226.824682 378.916049 C 212.155117 361.841152 204.632264 344.023868 203.879978 325.83539 C 203.879978 309.50288 210.274404 297.62469 223.063255 290.943209 C 235.852106 284.261727 253.906955 278.693826 277.980086 273.868311 C 302.053217 269.41399 319.35578 264.217282 329.887775 259.020574 C 373.896469 239.718516 396.088887 207.795882 396.088887 162.881478 C 396.088887 144.321807 392.32746 125.762136 385.180749 106.831272 C 377.657895 88.271601 366.749758 69.71193 352.080193 51.152259 C 337.410629 32.221394 316.346639 17.744851 288.888224 6.980242 C 261.805951 -3.784368 230.209966 -9.352269 194.852554 -10.094656 C 143.69715 -10.094656 107.21131 -0.443627 86.14732 18.858431 C 64.707188 38.160489 53.79905 61.174481 53.046765 87.15802 C 53.046765 113.14156 59.817333 131.701231 74.110755 142.837034 C 88.028034 154.34403 102.697598 159.911931 118.119448 159.911931 C 127.899158 159.911931 137.302724 156.942384 145.954006 151.003289 C 154.605288 145.064194 159.495142 134.670778 159.871285 119.823042 C 159.871285 102.748144 153.853002 87.900407 141.816437 76.022218 C 130.156014 64.144028 119.624019 57.83374 110.972737 57.83374 C 109.844309 57.462547 108.715881 57.091353 107.963596 57.091353 C 107.21131 57.091353 106.835168 56.348967 106.835168 54.864193 C 107.587453 53.008226 110.220452 50.409872 115.110307 47.069131 C 119.624019 43.72839 130.156014 39.274069 145.954006 34.077361 C 162.128141 28.50946 180.18299 26.282299 200.870837 27.024686 C 224.943968 27.024686 245.631816 30.736621 262.934379 38.160489 C 280.236942 45.213164 293.025793 54.492999 300.924789 65.999996 C 308.823785 77.506992 314.842068 87.529214 317.85121 97.180243 C 321.236494 106.460078 323.117207 114.626334 323.117207 122.050202 C 323.117207 140.609873 315.970496 154.715223 302.053217 163.995059 C 288.135938 173.274894 271.961803 178.842795 253.906955 181.069956 C 235.852106 182.925923 216.292687 188.122631 194.852554 195.917693 C 173.788564 204.083948 157.990572 215.590944 147.834719 231.181068 C 136.550439 247.513578 130.908299 266.815636 130.908299 289.087241 Z M 130.908299 289.087241 "
     transform="matrix(0.010385, 0, 0, -0.0105235, 180.503796, 15.409394)"
     id="path67" />
  <path
     fill-rule="nonzero"
     fill="rgb(0%, 0%, 0%)"
     fill-opacity="1"
     stroke-width="11.403062"
     stroke-linecap="butt"
     stroke-linejoin="miter"
     stroke="rgb(0%, 0%, 0%)"
     stroke-opacity="0.1307"
     stroke-miterlimit="4"
     d="M 59.867131 748.99589 L 64.0047 750.10947 C 67.389984 750.10947 70.775269 750.10947 74.160553 750.10947 L 85.820976 750.10947 L 114.031676 725.981898 C 176.847504 669.189304 222.360768 598.662554 250.947611 514.030454 C 279.534455 429.398354 293.827876 341.425514 293.827876 250.111932 C 293.827876 204.826335 290.818735 161.025511 284.048167 119.080655 C 277.277599 77.135798 269.754745 41.50123 261.103463 12.176949 C 252.452182 -17.518524 240.039473 -46.842804 223.865338 -76.167085 C 208.067346 -105.491365 195.278495 -127.76297 185.874928 -142.9819 C 176.847504 -158.200831 162.930225 -175.275728 144.875376 -193.835399 C 126.820527 -212.766264 116.288533 -223.530873 112.903248 -226.871614 C 109.517964 -230.212354 101.995111 -236.522642 89.958545 -246.173671 C 88.077832 -248.029638 86.573261 -249.514412 85.820976 -249.885606 L 74.160553 -249.885606 C 68.518412 -249.885606 65.133128 -249.885606 62.876272 -249.885606 C 60.995559 -249.885606 59.490988 -249.143219 57.986417 -246.916058 C 56.481847 -245.060091 55.729561 -242.090544 54.977276 -238.007416 C 55.729561 -237.265029 59.490988 -233.181902 65.885414 -225.015646 C 169.32465 -117.740748 220.856197 40.758843 220.856197 250.111932 C 220.856197 459.465022 169.32465 617.593419 65.885414 724.868317 C 59.490988 733.034573 55.729561 737.488894 54.977276 737.860087 C 54.977276 743.427988 56.481847 747.139923 59.867131 748.99589 Z M 59.867131 748.99589 "
     transform="matrix(0.010385, 0, 0, -0.0105235, 185.374372, 15.409394)"
     id="path69" />
</svg>
