<?xml version="1.0" encoding="UTF-8" standalone="no"?>
<svg 
   width="162.959991pt"
   height="173.03999pt"
   viewBox="0 0 162.959991 173.03999"
   version="1.1"
   id="svg47"
   xmlns="http://www.w3.org/2000/svg"
   xmlns:svg="http://www.w3.org/2000/svg" content="%3Cmxfile%20host%3D%22app.diagrams.net%22%20modified%3D%222023-04-05T09%3A56%3A20.928Z%22%20agent%3D%22Mozilla%2F5.0%20(Windows%20NT%2010.0%3B%20Win64%3B%20x64%3B%20rv%3A109.0)%20Gecko%2F20100101%20Firefox%2F111.0%22%20etag%3D%22sVLSIxxccHBmXl8qX-Bg%22%20version%3D%2221.1.2%22%3E%20%20%20%3Cdiagram%20id%3D%22Sg6q7kJZT-NUwE1IqfYf%22%20name%3D%22systeme%22%3E%20%20%20%20%20%3CmxGraphModel%20dx%3D%22840%22%20dy%3D%22420%22%20grid%3D%221%22%20gridSize%3D%2210%22%20guides%3D%221%22%20tooltips%3D%221%22%20connect%3D%221%22%20arrows%3D%221%22%20fold%3D%221%22%20page%3D%220%22%20pageScale%3D%221%22%20pageWidth%3D%22850%22%20pageHeight%3D%221100%22%20math%3D%221%22%20shadow%3D%220%22%3E%20%20%20%20%20%20%20%3Croot%3E%20%20%20%20%20%20%20%20%20%3CmxCell%20id%3D%220%22%20%2F%3E%20%20%20%20%20%20%20%20%20%3CmxCell%20id%3D%221%22%20parent%3D%220%22%20%2F%3E%20%20%20%20%20%20%20%20%20%3CmxCell%20id%3D%22bqrCqfCxWgRSeligEEdM-8%22%20value%3D%22%22%20style%3D%22group%3Brotation%3D45%3B%22%20vertex%3D%221%22%20connectable%3D%220%22%20parent%3D%221%22%3E%20%20%20%20%20%20%20%20%20%20%20%3CmxGeometry%20x%3D%22367%22%20y%3D%22180%22%20width%3D%22200%22%20height%3D%2250%22%20as%3D%22geometry%22%20%2F%3E%20%20%20%20%20%20%20%20%20%3C%2FmxCell%3E%20%20%20%20%20%20%20%20%20%3CmxCell%20id%3D%22bqrCqfCxWgRSeligEEdM-2%22%20value%3D%22%22%20style%3D%22rounded%3D1%3BwhiteSpace%3Dwrap%3Bhtml%3D1%3BarcSize%3D50%3Brotation%3D45%3B%22%20vertex%3D%221%22%20parent%3D%22bqrCqfCxWgRSeligEEdM-8%22%3E%20%20%20%20%20%20%20%20%20%20%20%3CmxGeometry%20x%3D%22-1%22%20y%3D%2226%22%20width%3D%22180%22%20height%3D%2220%22%20as%3D%22geometry%22%20%2F%3E%20%20%20%20%20%20%20%20%20%3C%2FmxCell%3E%20%20%20%20%20%20%20%20%20%3CmxCell%20id%3D%22bqrCqfCxWgRSeligEEdM-3%22%20value%3D%22%22%20style%3D%22endArrow%3Dclassic%3BstartArrow%3Dclassic%3Bhtml%3D1%3Brounded%3D0%3B%22%20edge%3D%221%22%20parent%3D%22bqrCqfCxWgRSeligEEdM-8%22%3E%20%20%20%20%20%20%20%20%20%20%20%3CmxGeometry%20width%3D%2250%22%20height%3D%2250%22%20relative%3D%221%22%20as%3D%22geometry%22%3E%20%20%20%20%20%20%20%20%20%20%20%20%20%3CmxPoint%20x%3D%2247%22%20y%3D%22-35%22%20as%3D%22sourcePoint%22%20%2F%3E%20%20%20%20%20%20%20%20%20%20%20%20%20%3CmxPoint%20x%3D%22160%22%20y%3D%2278%22%20as%3D%22targetPoint%22%20%2F%3E%20%20%20%20%20%20%20%20%20%20%20%3C%2FmxGeometry%3E%20%20%20%20%20%20%20%20%20%3C%2FmxCell%3E%20%20%20%20%20%20%20%20%20%3CmxCell%20id%3D%22bqrCqfCxWgRSeligEEdM-5%22%20value%3D%22%24%24l%24%24%22%20style%3D%22text%3Bhtml%3D1%3BstrokeColor%3Dnone%3BfillColor%3Dnone%3Balign%3Dcenter%3BverticalAlign%3Dmiddle%3BwhiteSpace%3Dwrap%3Brounded%3D0%3Brotation%3D45%3B%22%20vertex%3D%221%22%20parent%3D%22bqrCqfCxWgRSeligEEdM-8%22%3E%20%20%20%20%20%20%20%20%20%20%20%3CmxGeometry%20x%3D%2281%22%20y%3D%224%22%20width%3D%2260%22%20height%3D%2220%22%20as%3D%22geometry%22%20%2F%3E%20%20%20%20%20%20%20%20%20%3C%2FmxCell%3E%20%20%20%20%20%20%20%20%20%3CmxCell%20id%3D%22bqrCqfCxWgRSeligEEdM-7%22%20value%3D%22%22%20style%3D%22endArrow%3Dnone%3Bdashed%3D1%3Bhtml%3D1%3Brounded%3D0%3B%22%20edge%3D%221%22%20parent%3D%22bqrCqfCxWgRSeligEEdM-8%22%3E%20%20%20%20%20%20%20%20%20%20%20%3CmxGeometry%20width%3D%2250%22%20height%3D%2250%22%20relative%3D%221%22%20as%3D%22geometry%22%3E%20%20%20%20%20%20%20%20%20%20%20%20%20%3CmxPoint%20x%3D%22160%22%20y%3D%22106%22%20as%3D%22sourcePoint%22%20%2F%3E%20%20%20%20%20%20%20%20%20%20%20%20%20%3CmxPoint%20x%3D%2219%22%20y%3D%22-35%22%20as%3D%22targetPoint%22%20%2F%3E%20%20%20%20%20%20%20%20%20%20%20%3C%2FmxGeometry%3E%20%20%20%20%20%20%20%20%20%3C%2FmxCell%3E%20%20%20%20%20%20%20%20%20%3CmxCell%20id%3D%22bqrCqfCxWgRSeligEEdM-1%22%20value%3D%22%22%20style%3D%22endArrow%3Dnone%3Bdashed%3D1%3Bhtml%3D1%3Brounded%3D0%3B%22%20edge%3D%221%22%20parent%3D%221%22%3E%20%20%20%20%20%20%20%20%20%20%20%3CmxGeometry%20width%3D%2250%22%20height%3D%2250%22%20relative%3D%221%22%20as%3D%22geometry%22%3E%20%20%20%20%20%20%20%20%20%20%20%20%20%3CmxPoint%20x%3D%22400%22%20y%3D%22340%22%20as%3D%22sourcePoint%22%20%2F%3E%20%20%20%20%20%20%20%20%20%20%20%20%20%3CmxPoint%20x%3D%22400%22%20y%3D%22140%22%20as%3D%22targetPoint%22%20%2F%3E%20%20%20%20%20%20%20%20%20%20%20%3C%2FmxGeometry%3E%20%20%20%20%20%20%20%20%20%3C%2FmxCell%3E%20%20%20%20%20%20%20%20%20%3CmxCell%20id%3D%22bqrCqfCxWgRSeligEEdM-14%22%20value%3D%22%24%24%5Ctheta%24%24%22%20style%3D%22text%3Bhtml%3D1%3BstrokeColor%3Dnone%3BfillColor%3Dnone%3Balign%3Dcenter%3BverticalAlign%3Dmiddle%3BwhiteSpace%3Dwrap%3Brounded%3D0%3B%22%20vertex%3D%221%22%20parent%3D%221%22%3E%20%20%20%20%20%20%20%20%20%20%20%3CmxGeometry%20x%3D%22437%22%20y%3D%22310%22%20width%3D%2260%22%20height%3D%2220%22%20as%3D%22geometry%22%20%2F%3E%20%20%20%20%20%20%20%20%20%3C%2FmxCell%3E%20%20%20%20%20%20%20%20%20%3CmxCell%20id%3D%22bqrCqfCxWgRSeligEEdM-15%22%20value%3D%22%22%20style%3D%22curved%3D1%3BendArrow%3Dclassic%3Bhtml%3D1%3Brounded%3D0%3B%22%20edge%3D%221%22%20parent%3D%221%22%3E%20%20%20%20%20%20%20%20%20%20%20%3CmxGeometry%20width%3D%2250%22%20height%3D%2250%22%20relative%3D%221%22%20as%3D%22geometry%22%3E%20%20%20%20%20%20%20%20%20%20%20%20%20%3CmxPoint%20x%3D%22400%22%20y%3D%22340%22%20as%3D%22sourcePoint%22%20%2F%3E%20%20%20%20%20%20%20%20%20%20%20%20%20%3CmxPoint%20x%3D%22530%22%20y%3D%22290%22%20as%3D%22targetPoint%22%20%2F%3E%20%20%20%20%20%20%20%20%20%20%20%20%20%3CArray%20as%3D%22points%22%3E%20%20%20%20%20%20%20%20%20%20%20%20%20%20%20%3CmxPoint%20x%3D%22490%22%20y%3D%22340%22%20%2F%3E%20%20%20%20%20%20%20%20%20%20%20%20%20%3C%2FArray%3E%20%20%20%20%20%20%20%20%20%20%20%3C%2FmxGeometry%3E%20%20%20%20%20%20%20%20%20%3C%2FmxCell%3E%20%20%20%20%20%20%20%20%20%3CmxCell%20id%3D%22bqrCqfCxWgRSeligEEdM-16%22%20value%3D%22%22%20style%3D%22endArrow%3Dclassic%3Bhtml%3D1%3Brounded%3D0%3B%22%20edge%3D%221%22%20parent%3D%221%22%3E%20%20%20%20%20%20%20%20%20%20%20%3CmxGeometry%20width%3D%2250%22%20height%3D%2250%22%20relative%3D%221%22%20as%3D%22geometry%22%3E%20%20%20%20%20%20%20%20%20%20%20%20%20%3CmxPoint%20x%3D%22460%22%20y%3D%22220%22%20as%3D%22sourcePoint%22%20%2F%3E%20%20%20%20%20%20%20%20%20%20%20%20%20%3CmxPoint%20x%3D%22460%22%20y%3D%22280%22%20as%3D%22targetPoint%22%20%2F%3E%20%20%20%20%20%20%20%20%20%20%20%3C%2FmxGeometry%3E%20%20%20%20%20%20%20%20%20%3C%2FmxCell%3E%20%20%20%20%20%20%20%20%20%3CmxCell%20id%3D%22bqrCqfCxWgRSeligEEdM-17%22%20value%3D%22%24%24P%20%3D%20mg%24%24%22%20style%3D%22text%3Bhtml%3D1%3BstrokeColor%3Dnone%3BfillColor%3Dnone%3Balign%3Dcenter%3BverticalAlign%3Dmiddle%3BwhiteSpace%3Dwrap%3Brounded%3D0%3B%22%20vertex%3D%221%22%20parent%3D%221%22%3E%20%20%20%20%20%20%20%20%20%20%20%3CmxGeometry%20x%3D%22400%22%20y%3D%22240%22%20width%3D%2260%22%20height%3D%2220%22%20as%3D%22geometry%22%20%2F%3E%20%20%20%20%20%20%20%20%20%3C%2FmxCell%3E%20%20%20%20%20%20%20%20%20%3CmxCell%20id%3D%22bqrCqfCxWgRSeligEEdM-18%22%20value%3D%22%22%20style%3D%22curved%3D1%3BendArrow%3Dclassic%3Bhtml%3D1%3Brounded%3D0%3B%22%20edge%3D%221%22%20parent%3D%221%22%3E%20%20%20%20%20%20%20%20%20%20%20%3CmxGeometry%20width%3D%2250%22%20height%3D%2250%22%20relative%3D%221%22%20as%3D%22geometry%22%3E%20%20%20%20%20%20%20%20%20%20%20%20%20%3CmxPoint%20x%3D%22400%22%20y%3D%22130%22%20as%3D%22sourcePoint%22%20%2F%3E%20%20%20%20%20%20%20%20%20%20%20%20%20%3CmxPoint%20x%3D%22370%22%20y%3D%22160%22%20as%3D%22targetPoint%22%20%2F%3E%20%20%20%20%20%20%20%20%20%20%20%20%20%3CArray%20as%3D%22points%22%3E%20%20%20%20%20%20%20%20%20%20%20%20%20%20%20%3CmxPoint%20x%3D%22370%22%20y%3D%22130%22%20%2F%3E%20%20%20%20%20%20%20%20%20%20%20%20%20%3C%2FArray%3E%20%20%20%20%20%20%20%20%20%20%20%3C%2FmxGeometry%3E%20%20%20%20%20%20%20%20%20%3C%2FmxCell%3E%20%20%20%20%20%20%20%20%20%3CmxCell%20id%3D%22bqrCqfCxWgRSeligEEdM-19%22%20value%3D%22%24%24%5Ctau%24%24%22%20style%3D%22text%3Bhtml%3D1%3BstrokeColor%3Dnone%3BfillColor%3Dnone%3Balign%3Dcenter%3BverticalAlign%3Dmiddle%3BwhiteSpace%3Dwrap%3Brounded%3D0%3B%22%20vertex%3D%221%22%20parent%3D%221%22%3E%20%20%20%20%20%20%20%20%20%20%20%3CmxGeometry%20x%3D%22350%22%20y%3D%22120%22%20width%3D%2230%22%20height%3D%2220%22%20as%3D%22geometry%22%20%2F%3E%20%20%20%20%20%20%20%20%20%3C%2FmxCell%3E%20%20%20%20%20%20%20%3C%2Froot%3E%20%20%20%20%20%3C%2FmxGraphModel%3E%20%20%20%3C%2Fdiagram%3E%20%3C%2Fmxfile%3E%20">
  <defs
     id="defs5">
    <clipPath
       id="clip-0">
      <path
         clip-rule="nonzero"
         d="M 34 124 L 150 124 L 150 171.261719 L 34 171.261719 Z M 34 124 "
         id="path2" />
    </clipPath>
  </defs>
  <path
     fill-rule="nonzero"
     fill="rgb(100%, 100%, 100%)"
     fill-opacity="1"
     stroke-width="1"
     stroke-linecap="butt"
     stroke-linejoin="miter"
     stroke="rgb(0%, 0%, 0%)"
     stroke-opacity="1"
     stroke-miterlimit="4"
     d="M 34.998859 90.998487 L 195.001155 90.998487 C 195.655697 90.998487 196.306561 91.061 196.950071 91.189702 C 197.593581 91.318404 198.218705 91.509618 198.825442 91.763345 C 199.435858 92.013394 200.009501 92.322279 200.557403 92.686322 C 201.101629 93.046687 201.609082 93.465888 202.072409 93.929215 C 202.535737 94.392542 202.95126 94.896319 203.315303 95.444221 C 203.679346 95.992124 203.98823 96.565767 204.23828 97.176182 C 204.488329 97.779243 204.679544 98.404367 204.808246 99.047877 C 204.936948 99.691386 204.99946 100.342251 205.003137 101.000469 C 204.99946 101.658688 204.936948 102.309552 204.808246 102.953062 C 204.679544 103.596572 204.488329 104.221696 204.23828 104.824757 C 203.98823 105.435172 203.679346 106.008815 203.315303 106.556718 C 202.947583 107.100943 202.535737 107.608397 202.072409 108.071724 C 201.609082 108.535051 201.101629 108.946897 200.557403 109.314617 C 200.009501 109.67866 199.435858 109.987545 198.825442 110.237594 C 198.218705 110.491321 197.597258 110.678858 196.953748 110.80756 C 196.310238 110.936262 195.655697 111.002452 195.001155 111.002452 L 34.998859 111.002452 C 34.344318 111.002452 33.689776 110.936262 33.046266 110.80756 C 32.402757 110.678858 31.78131 110.491321 31.174572 110.237594 C 30.564157 109.987545 29.990514 109.67866 29.442611 109.314617 C 28.898386 108.946897 28.390932 108.535051 27.927605 108.071724 C 27.464278 107.608397 27.052432 107.100943 26.684712 106.556718 C 26.320669 106.008815 26.011784 105.435172 25.761735 104.824757 C 25.511685 104.221696 25.320471 103.596572 25.191769 102.953062 C 25.063067 102.309552 25.000554 101.658688 24.996877 101.000469 C 25.000554 100.342251 25.063067 99.691386 25.191769 99.047877 C 25.320471 98.404367 25.511685 97.779243 25.761735 97.176182 C 26.011784 96.565767 26.320669 95.992124 26.684712 95.444221 C 27.048754 94.896319 27.464278 94.392542 27.927605 93.929215 C 28.390932 93.465888 28.898386 93.046687 29.442611 92.686322 C 29.990514 92.322279 30.564157 92.013394 31.174572 91.763345 C 31.78131 91.509618 32.406434 91.318404 33.049944 91.189702 C 33.693453 91.061 34.344318 90.998487 34.998859 90.998487 Z M 34.998859 90.998487 "
     transform="matrix(0.531145, 0.531145, -0.531145, 0.531145, 79.322032, -38.485326)"
     id="path7" />
  <path
     fill="none"
     stroke-width="1"
     stroke-linecap="butt"
     stroke-linejoin="miter"
     stroke="rgb(0%, 0%, 0%)"
     stroke-opacity="1"
     stroke-miterlimit="10"
     d="M 77.499979 34.498324 L 181.501686 138.50003 "
     transform="matrix(0.751152, 0, 0, 0.751152, 0.375576, 0.375576)"
     id="path9" />
  <path
     fill-rule="nonzero"
     fill="rgb(0%, 0%, 0%)"
     fill-opacity="1"
     stroke-width="1"
     stroke-linecap="butt"
     stroke-linejoin="miter"
     stroke="rgb(0%, 0%, 0%)"
     stroke-opacity="1"
     stroke-miterlimit="10"
     d="M 73.792133 30.790478 L 81.218226 33.271043 L 77.499979 34.498324 L 76.267498 38.221771 Z M 73.792133 30.790478 "
     transform="matrix(0.751152, 0, 0, 0.751152, 0.375576, 0.375576)"
     id="path11" />
  <path
     fill-rule="nonzero"
     fill="rgb(0%, 0%, 0%)"
     fill-opacity="1"
     stroke-width="1"
     stroke-linecap="butt"
     stroke-linejoin="miter"
     stroke="rgb(0%, 0%, 0%)"
     stroke-opacity="1"
     stroke-miterlimit="10"
     d="M 185.209532 142.207876 L 177.778238 139.732512 L 181.501686 138.50003 L 182.728967 134.781783 Z M 185.209532 142.207876 "
     transform="matrix(0.751152, 0, 0, 0.751152, 0.375576, 0.375576)"
     id="path13" />
  <path
     fill-rule="nonzero"
     fill="rgb(0%, 0%, 0%)"
     fill-opacity="1"
     d="M 101.03125 60.761719 C 100.882813 60.910156 100.867188 61.042969 100.988281 61.160156 C 101.164063 61.335938 101.550781 61.25 102.148438 60.898438 C 102.265625 60.839844 102.335938 60.8125 102.359375 60.828125 C 102.375 60.832031 102.402344 60.855469 102.4375 60.894531 L 102.46875 60.921875 C 102.511719 60.964844 102.539063 60.992188 102.554688 61.007813 C 102.566406 61.023438 102.574219 61.039063 102.574219 61.058594 C 102.574219 61.074219 102.566406 61.097656 102.542969 61.117188 C 102.511719 61.140625 102.46875 61.167969 102.414063 61.207031 C 102.359375 61.242188 102.246094 61.300781 102.078125 61.382813 C 101.90625 61.46875 101.753906 61.527344 101.617188 61.558594 C 101.476563 61.59375 101.320313 61.601563 101.144531 61.589844 C 100.96875 61.574219 100.820313 61.503906 100.703125 61.375 C 100.53125 61.207031 100.421875 60.996094 100.371094 60.75 C 100.324219 60.503906 100.414063 60.261719 100.644531 60.019531 C 100.699219 59.964844 100.742188 59.929688 100.769531 59.914063 L 102.976563 58.628906 C 104.429688 57.777344 105.171875 57.335938 105.207031 57.296875 C 105.222656 57.285156 105.230469 57.269531 105.234375 57.257813 C 105.238281 57.242188 105.238281 57.226563 105.234375 57.203125 C 105.226563 57.179688 105.21875 57.160156 105.210938 57.152344 C 105.203125 57.144531 105.183594 57.121094 105.160156 57.089844 C 105.136719 57.054688 105.121094 57.035156 105.109375 57.023438 C 105.101563 57.015625 105.082031 56.992188 105.054688 56.953125 C 105.023438 56.914063 105 56.890625 104.980469 56.882813 C 104.933594 56.835938 104.902344 56.804688 104.890625 56.789063 C 104.875 56.777344 104.859375 56.753906 104.839844 56.726563 C 104.820313 56.699219 104.8125 56.675781 104.816406 56.664063 C 104.820313 56.648438 104.832031 56.632813 104.847656 56.613281 C 104.859375 56.605469 104.894531 56.578125 104.957031 56.535156 C 105.066406 56.472656 105.140625 56.453125 105.179688 56.472656 C 105.214844 56.492188 105.402344 56.648438 105.734375 56.945313 C 105.808594 57.011719 105.894531 57.085938 105.988281 57.171875 C 106.082031 57.257813 106.160156 57.324219 106.222656 57.367188 C 106.285156 57.410156 106.3125 57.433594 106.308594 57.4375 C 106.367188 57.496094 106.375 57.542969 106.339844 57.578125 C 106.289063 57.625 105.441406 58.128906 103.789063 59.085938 C 102.136719 60.046875 101.273438 60.550781 101.203125 60.605469 C 101.191406 60.613281 101.175781 60.632813 101.148438 60.660156 C 101.121094 60.6875 101.097656 60.707031 101.074219 60.71875 Z M 101.03125 60.761719 "
     id="path15" />
  <path
     fill-rule="nonzero"
     fill="rgb(0%, 0%, 0%)"
     fill-opacity="1"
     d="M 139.824219 129.089844 L 138.230469 127.496094 L 138.761719 126.964844 L 140.355469 128.558594 M 136.636719 125.902344 L 135.042969 124.308594 L 135.574219 123.777344 L 137.167969 125.371094 M 133.449219 122.714844 L 131.855469 121.121094 L 132.386719 120.589844 L 133.980469 122.183594 M 130.265625 119.527344 L 128.671875 117.933594 L 129.203125 117.402344 L 130.792969 118.996094 M 127.078125 116.339844 L 125.484375 114.746094 L 126.015625 114.214844 L 127.609375 115.808594 M 123.890625 113.152344 L 122.296875 111.558594 L 122.828125 111.027344 L 124.421875 112.621094 M 120.703125 109.96875 L 119.109375 108.375 L 119.640625 107.84375 L 121.234375 109.4375 M 117.515625 106.78125 L 115.921875 105.1875 L 116.453125 104.65625 L 118.046875 106.25 M 114.328125 103.59375 L 112.734375 102 L 113.265625 101.46875 L 114.859375 103.0625 M 111.140625 100.40625 L 109.550781 98.8125 L 110.082031 98.28125 L 111.671875 99.875 M 107.957031 97.21875 L 106.363281 95.625 L 106.894531 95.09375 L 108.488281 96.6875 M 104.769531 94.03125 L 103.175781 92.4375 L 103.707031 91.90625 L 105.300781 93.5 M 101.582031 90.847656 L 99.988281 89.253906 L 100.519531 88.722656 L 102.113281 90.316406 M 98.394531 87.660156 L 96.800781 86.066406 L 97.332031 85.535156 L 98.925781 87.128906 M 95.207031 84.472656 L 93.613281 82.878906 L 94.144531 82.347656 L 95.738281 83.941406 M 92.019531 81.285156 L 90.429688 79.691406 L 90.957031 79.160156 L 92.550781 80.753906 M 88.835938 78.097656 L 87.242188 76.503906 L 87.773438 75.972656 L 89.367188 77.566406 M 85.648438 74.910156 L 84.054688 73.316406 L 84.585938 72.785156 L 86.179688 74.378906 M 82.460938 71.722656 L 80.867188 70.132813 L 81.398438 69.601563 L 82.992188 71.195313 M 79.273438 68.539063 L 77.679688 66.945313 L 78.210938 66.414063 L 79.804688 68.007813 M 76.085938 65.351563 L 74.492188 63.757813 L 75.023438 63.226563 L 76.617188 64.820313 M 72.898438 62.164063 L 71.304688 60.570313 L 71.835938 60.039063 L 73.429688 61.632813 M 69.714844 58.976563 L 68.121094 57.382813 L 68.652344 56.851563 L 70.246094 58.445313 M 66.527344 55.789063 L 64.933594 54.195313 L 65.464844 53.664063 L 67.058594 55.257813 M 63.339844 52.601563 L 61.746094 51.011719 L 62.277344 50.480469 L 63.871094 52.070313 M 60.152344 49.417969 L 58.558594 47.824219 L 59.089844 47.292969 L 60.683594 48.886719 M 56.964844 46.230469 L 55.371094 44.636719 L 55.902344 44.105469 L 57.496094 45.699219 M 53.777344 43.042969 L 52.183594 41.449219 L 52.714844 40.917969 L 54.308594 42.511719 M 50.59375 39.855469 L 49 38.261719 L 49.53125 37.730469 L 51.125 39.324219 M 47.40625 36.667969 L 45.8125 35.074219 L 46.34375 34.542969 L 47.9375 36.136719 M 44.21875 33.480469 L 42.625 31.886719 L 43.15625 31.359375 L 44.75 32.949219 M 41.03125 30.296875 L 39.4375 28.703125 L 39.96875 28.171875 L 41.5625 29.765625 M 37.84375 27.109375 L 36.25 25.515625 L 36.78125 24.984375 L 38.375 26.578125 M 34.65625 23.921875 L 33.910156 23.175781 L 34.441406 22.644531 L 35.1875 23.390625 "
     id="path17" />
  <path
     fill-rule="nonzero"
     fill="rgb(0%, 0%, 0%)"
     fill-opacity="1"
     d="M 44.316406 169.386719 L 44.316406 167.132813 L 45.070313 167.132813 L 45.070313 169.386719 M 44.316406 164.878906 L 44.316406 162.625 L 45.070313 162.625 L 45.070313 164.878906 M 44.316406 160.371094 L 44.316406 158.117188 L 45.070313 158.117188 L 45.070313 160.371094 M 44.316406 155.863281 L 44.316406 153.609375 L 45.070313 153.609375 L 45.070313 155.863281 M 44.316406 151.355469 L 44.316406 149.105469 L 45.070313 149.105469 L 45.070313 151.355469 M 44.316406 146.851563 L 44.316406 144.597656 L 45.070313 144.597656 L 45.070313 146.851563 M 44.316406 142.34375 L 44.316406 140.089844 L 45.070313 140.089844 L 45.070313 142.34375 M 44.316406 137.835938 L 44.316406 135.582031 L 45.070313 135.582031 L 45.070313 137.835938 M 44.316406 133.328125 L 44.316406 131.074219 L 45.070313 131.074219 L 45.070313 133.328125 M 44.316406 128.824219 L 44.316406 126.570313 L 45.070313 126.570313 L 45.070313 128.824219 M 44.316406 124.316406 L 44.316406 122.0625 L 45.070313 122.0625 L 45.070313 124.316406 M 44.316406 119.808594 L 44.316406 117.554688 L 45.070313 117.554688 L 45.070313 119.808594 M 44.316406 115.300781 L 44.316406 113.046875 L 45.070313 113.046875 L 45.070313 115.300781 M 44.316406 110.796875 L 44.316406 108.542969 L 45.070313 108.542969 L 45.070313 110.796875 M 44.316406 106.289063 L 44.316406 104.035156 L 45.070313 104.035156 L 45.070313 106.289063 M 44.316406 101.78125 L 44.316406 99.527344 L 45.070313 99.527344 L 45.070313 101.78125 M 44.316406 97.273438 L 44.316406 95.019531 L 45.070313 95.019531 L 45.070313 97.273438 M 44.316406 92.765625 L 44.316406 90.515625 L 45.070313 90.515625 L 45.070313 92.765625 M 44.316406 88.261719 L 44.316406 86.007813 L 45.070313 86.007813 L 45.070313 88.261719 M 44.316406 83.753906 L 44.316406 81.5 L 45.070313 81.5 L 45.070313 83.753906 M 44.316406 79.246094 L 44.316406 76.992188 L 45.070313 76.992188 L 45.070313 79.246094 M 44.316406 74.738281 L 44.316406 72.484375 L 45.070313 72.484375 L 45.070313 74.738281 M 44.316406 70.234375 L 44.316406 67.980469 L 45.070313 67.980469 L 45.070313 70.234375 M 44.316406 65.726563 L 44.316406 63.472656 L 45.070313 63.472656 L 45.070313 65.726563 M 44.316406 61.21875 L 44.316406 58.964844 L 45.070313 58.964844 L 45.070313 61.21875 M 44.316406 56.710938 L 44.316406 54.457031 L 45.070313 54.457031 L 45.070313 56.710938 M 44.316406 52.203125 L 44.316406 49.953125 L 45.070313 49.953125 L 45.070313 52.203125 M 44.316406 47.699219 L 44.316406 45.445313 L 45.070313 45.445313 L 45.070313 47.699219 M 44.316406 43.191406 L 44.316406 40.9375 L 45.070313 40.9375 L 45.070313 43.191406 M 44.316406 38.683594 L 44.316406 36.429688 L 45.070313 36.429688 L 45.070313 38.683594 M 44.316406 34.175781 L 44.316406 31.925781 L 45.070313 31.925781 L 45.070313 34.175781 M 44.316406 29.671875 L 44.316406 27.417969 L 45.070313 27.417969 L 45.070313 29.671875 M 44.316406 25.164063 L 44.316406 22.910156 L 45.070313 22.910156 L 45.070313 25.164063 M 44.316406 20.65625 L 44.316406 19.15625 L 45.070313 19.15625 L 45.070313 20.65625 "
     id="path19" />
  <path
     fill-rule="nonzero"
     fill="rgb(0%, 0%, 0%)"
     fill-opacity="1"
     stroke-width="11.434038"
     stroke-linecap="butt"
     stroke-linejoin="miter"
     stroke="rgb(0%, 0%, 0%)"
     stroke-opacity="0.1255"
     stroke-miterlimit="4"
     d="M 34.846154 200.169021 C 34.846154 267.909741 47.853951 339.74468 73.869544 414.929436 C 99.885137 490.486393 135.250083 555.249499 179.964384 609.963157 C 224.678684 664.676816 271.018959 695.941764 318.985209 704.130202 C 319.798196 704.130202 322.237158 704.130202 327.115081 704.130202 C 331.586511 704.130202 335.651448 704.502404 338.903397 704.874606 C 375.081331 702.269193 403.129392 685.892316 423.047581 656.116175 C 449.063173 615.918385 462.07097 562.321332 462.07097 494.952814 C 462.07097 418.279251 447.030705 340.489084 416.950176 260.837908 C 386.869647 181.558933 348.659244 116.795827 301.912476 66.176388 C 255.165707 15.184747 210.8579 -10.124973 168.176068 -10.124973 L 160.859183 -10.124973 C 136.876058 -10.124973 116.144882 -3.425341 99.072149 9.973922 C 81.592923 23.373185 68.585126 40.866668 60.04876 62.826572 C 51.512393 85.158677 45.008495 107.490783 40.943559 129.822888 C 36.878622 152.527196 34.846154 175.975907 34.846154 200.169021 Z M 382.80471 566.04335 C 382.80471 634.156272 365.325484 668.026632 329.960537 668.026632 C 305.977412 668.026632 282.807275 653.138561 260.043631 622.990219 C 237.279987 592.841876 218.581279 558.971516 203.947508 521.006937 C 189.313737 483.042358 177.931915 449.544199 169.802043 420.884664 C 162.078663 392.225128 157.607233 375.848251 157.20074 371.009628 C 189.720231 370.265225 221.833229 369.893023 253.946226 369.893023 L 351.098206 371.009628 C 351.5047 371.754032 354.350155 382.547883 358.821585 404.135585 C 363.699509 425.351085 368.983926 452.149612 375.081331 484.158963 C 381.178736 516.168314 383.617697 543.339042 382.80471 566.04335 Z M 112.892933 132.056099 C 112.892933 61.337765 130.778653 25.978598 166.1436 25.978598 C 175.899447 25.978598 186.468282 29.328414 197.850104 36.028045 C 209.231926 42.727677 223.05271 55.382537 238.905961 73.992625 C 255.165707 92.602713 271.018959 121.63445 286.872211 161.087836 C 303.131957 200.169021 318.985209 248.927451 334.838461 306.990926 L 340.122878 324.112207 L 145.005931 324.112207 C 145.005931 321.878996 142.160475 309.224136 136.063071 286.147627 C 129.965666 262.698916 124.681249 236.644793 119.803325 207.985258 C 115.331895 179.325722 112.892933 154.016003 112.892933 132.056099 Z M 112.892933 132.056099 "
     transform="matrix(0.00960962, 0, 0, -0.010495, 92.391704, 156.88202)"
     id="path21" />
  <g
     clip-path="url(#clip-0)"
     id="g25">
    <path
       fill="none"
       stroke-width="1"
       stroke-linecap="butt"
       stroke-linejoin="miter"
       stroke="#000000"
       stroke-opacity="1"
       stroke-miterlimit="10"
       d="m 59.002351,225.00257 c 59.996379,0 102.004769,-15.01339 126.019969,-45.03499"
       transform="matrix(0.751152,0,0,0.751152,0.375576,0.375576)"
       id="path23" />
  </g>
  <path
     fill-rule="nonzero"
     fill="rgb(0%, 0%, 0%)"
     fill-opacity="1"
     stroke-width="1"
     stroke-linecap="butt"
     stroke-linejoin="miter"
     stroke="rgb(0%, 0%, 0%)"
     stroke-opacity="1"
     stroke-miterlimit="10"
     d="M 188.298537 175.869712 L 186.660428 183.52982 L 185.022319 179.967584 L 181.200066 179.151129 Z M 188.298537 175.869712 "
     transform="matrix(0.751152, 0, 0, 0.751152, 0.375576, 0.375576)"
     id="path27" />
  <path
     fill="none"
     stroke-width="1"
     stroke-linecap="butt"
     stroke-linejoin="miter"
     stroke="rgb(0%, 0%, 0%)"
     stroke-opacity="1"
     stroke-miterlimit="10"
     d="M 118.998735 104.999406 L 118.998735 158.630567 "
     transform="matrix(0.751152, 0, 0, 0.751152, 0.375576, 0.375576)"
     id="path29" />
  <path
     fill-rule="nonzero"
     fill="rgb(0%, 0%, 0%)"
     fill-opacity="1"
     stroke-width="1"
     stroke-linecap="butt"
     stroke-linejoin="miter"
     stroke="rgb(0%, 0%, 0%)"
     stroke-opacity="1"
     stroke-miterlimit="10"
     d="M 118.998735 163.877715 L 115.498903 156.87805 L 118.998735 158.630567 L 122.498568 156.87805 Z M 118.998735 163.877715 "
     transform="matrix(0.751152, 0, 0, 0.751152, 0.375576, 0.375576)"
     id="path31" />
  <path
     fill-rule="nonzero"
     fill="rgb(0%, 0%, 0%)"
     fill-opacity="1"
     stroke-width="11.448715"
     stroke-linecap="butt"
     stroke-linejoin="miter"
     stroke="rgb(0%, 0%, 0%)"
     stroke-opacity="0.1289"
     stroke-miterlimit="4"
     d="M 287.12784 628.101047 C 287.12784 632.718954 268.121185 635.797559 230.107875 636.952036 C 214.082656 636.952036 203.64763 637.336861 199.175476 638.106512 C 194.330642 638.491338 192.094565 641.954768 192.094565 648.111978 C 192.094565 648.496803 192.839924 652.345059 193.957962 658.887094 C 198.057437 672.35599 201.038873 679.667676 202.902271 680.822153 C 205.138348 682.361455 269.611903 683.131106 397.068296 683.131106 C 523.77933 682.361455 591.234321 681.206978 600.178629 680.052501 C 642.664094 672.740815 678.441327 656.193315 707.137649 631.179652 C 735.833971 605.781163 750.368472 571.916511 751.113831 529.970522 C 751.113831 478.788719 729.12574 431.839998 685.149558 389.124358 C 638.937299 343.714938 579.681256 314.853019 507.008752 302.923426 C 502.163918 302.153775 467.504723 301.768949 401.91313 300.999298 L 306.879854 300.999298 L 277.065493 182.088192 C 256.9408 104.738249 246.878453 63.561911 246.878453 58.944004 C 246.878453 56.250225 247.251132 54.710923 247.996492 53.941271 C 248.741851 53.17162 250.977928 52.017144 255.077402 50.093016 C 259.176877 48.168888 264.76707 47.399236 271.84798 48.168888 C 279.30157 48.553713 290.481956 48.168888 305.016457 45.859934 L 335.948856 45.859934 C 340.048331 40.08755 341.911728 36.239294 341.911728 35.084818 C 341.911728 24.309701 339.675651 14.304236 334.830818 5.068422 C 331.849381 1.604992 326.259189 0.0656893 319.178278 0.0656893 C 316.942201 0.0656893 304.643777 0.450515 281.910327 0.83534 C 259.176877 1.604992 226.0084 1.989817 182.032218 1.989817 C 140.664792 1.989817 108.987034 1.989817 86.998943 1.989817 C 65.010852 1.989817 53.085107 1.604992 50.84903 0.83534 C 38.923286 0.83534 32.960414 4.298771 32.960414 10.840806 C 32.960414 12.380108 34.078452 16.998015 35.94185 25.079352 C 38.550606 35.854469 41.159363 41.626853 44.140799 43.166155 C 46.749556 44.320632 54.203146 45.475109 66.874249 45.859934 C 85.135545 45.859934 104.887559 47.014411 126.87565 48.938539 C 136.192638 50.862667 142.52819 55.095748 145.882306 60.868132 C 148.118383 63.561911 171.969871 156.304878 218.182131 339.097031 C 264.02171 521.50436 287.12784 618.095582 287.12784 628.101047 Z M 644.900171 553.829709 C 644.900171 562.680697 644.154812 569.607558 643.036773 574.995116 C 641.546055 580.382674 638.564619 587.694361 634.092465 596.930175 C 629.247631 606.165989 621.048682 613.477675 609.122938 618.865233 C 596.824514 624.252791 580.799295 629.64035 559.929242 635.027908 C 555.457088 635.797559 528.624163 636.182384 480.175827 636.952036 C 468.622762 636.952036 457.069697 636.952036 445.143953 636.952036 C 432.845529 636.952036 423.155862 636.56721 416.074951 636.182384 C 408.621361 635.412733 404.521886 635.412733 404.149207 636.182384 C 395.204898 635.412733 389.242026 632.334129 385.887911 626.94657 C 384.769872 623.098315 378.43432 597.315 366.881256 549.981453 C 355.70087 502.647906 344.147805 456.853661 331.849381 411.829067 C 319.923637 367.189299 313.960765 344.48459 313.960765 344.099764 C 313.960765 342.560462 341.166369 342.175636 394.832219 342.175636 L 429.864093 342.175636 C 504.772675 342.175636 558.065845 358.723136 590.116283 391.818137 C 608.004899 409.904939 621.794041 436.457905 631.111029 471.092208 C 640.428017 505.726511 644.900171 533.433953 644.900171 553.829709 Z M 644.900171 553.829709 "
     transform="matrix(0.0104815, 0, 0, -0.0101507, 48.8264, 104.582698)"
     id="path33" />
  <path
     fill-rule="nonzero"
     fill="rgb(0%, 0%, 0%)"
     fill-opacity="1"
     stroke-width="11.448715"
     stroke-linecap="butt"
     stroke-linejoin="miter"
     stroke="rgb(0%, 0%, 0%)"
     stroke-opacity="0.1289"
     stroke-miterlimit="4"
     d="M 55.861311 347.178369 C 55.861311 355.644532 60.706144 362.186567 70.023132 367.189299 L 706.932416 367.189299 C 716.994763 361.801741 721.839597 354.87488 721.839597 347.178369 C 721.839597 339.481857 717.367443 333.324648 708.050455 327.937089 L 390.154832 327.167438 L 71.88653 327.167438 C 61.451503 330.246043 55.861311 337.172903 55.861311 347.178369 Z M 55.861311 152.841447 C 55.861311 162.846913 61.451503 169.773773 71.88653 172.852378 L 708.050455 172.852378 C 717.367443 166.310343 721.839597 159.768308 721.839597 152.841447 C 721.839597 144.375284 716.994763 137.833249 706.932416 132.830517 L 70.023132 132.830517 C 60.706144 137.833249 55.861311 144.375284 55.861311 152.841447 Z M 55.861311 152.841447 "
     transform="matrix(0.0104815, 0, 0, -0.0101507, 59.609801, 104.582698)"
     id="path35" />
  <path
     fill-rule="nonzero"
     fill="rgb(0%, 0%, 0%)"
     fill-opacity="1"
     stroke-width="11.448715"
     stroke-linecap="butt"
     stroke-linejoin="miter"
     stroke="rgb(0%, 0%, 0%)"
     stroke-opacity="0.1289"
     stroke-miterlimit="4"
     d="M 20.831222 287.145577 C 21.576581 290.993833 22.694619 296.381391 24.185337 302.923426 C 25.303376 309.850287 29.402851 322.164706 36.111082 341.021159 C 42.819313 359.492787 49.154865 375.270637 55.863096 387.969881 C 62.571327 400.669125 73.379033 412.983544 87.913534 424.913137 C 102.820714 436.84273 117.355215 442.615114 131.889716 441.845463 C 146.796897 441.460637 160.958718 439.151684 175.120539 434.918603 C 188.909681 431.070347 198.972028 424.913137 204.9349 416.8318 C 210.897772 409.135288 216.487965 401.823602 220.960119 394.896741 C 225.804953 388.354706 228.41371 381.812672 229.159069 376.040288 L 231.022466 369.113427 C 231.022466 367.574125 231.395146 367.189299 232.140505 367.189299 L 242.94821 377.964416 C 282.824918 420.680056 330.155216 441.845463 383.821066 441.845463 C 395.37413 441.845463 405.809157 441.460637 415.126145 439.921335 C 424.443132 438.766858 433.014761 436.457905 440.841031 432.994475 C 449.03998 429.531044 455.375532 426.45244 459.847686 422.989009 C 464.692519 419.525579 469.537353 415.677323 475.127546 411.059416 C 480.345059 406.441509 483.699175 401.823602 484.817213 397.975346 C 486.307931 394.12709 488.916688 389.509183 493.016162 384.891276 C 497.115637 380.273369 498.233675 376.425113 497.115637 372.961683 C 495.624919 369.498253 496.742957 366.804474 500.097073 364.110695 C 503.451189 361.416915 503.823868 359.107962 501.960471 357.183834 L 510.15942 367.189299 C 551.899525 416.8318 601.838579 441.845463 658.858545 441.845463 C 695.008457 441.845463 724.077459 432.994475 746.06555 414.907672 C 768.053641 396.820869 779.234027 370.652729 779.979386 336.018427 C 779.979386 302.153775 767.308282 249.43267 741.966076 177.85511 C 716.623869 106.662377 703.952766 63.946737 703.952766 50.093016 C 704.698125 40.857202 706.188843 34.315167 709.170279 30.851736 C 711.779035 27.773132 716.623869 25.849004 724.077459 25.849004 C 742.711435 25.849004 759.854692 35.854469 775.879911 55.865399 C 791.90513 75.87633 804.948913 103.198947 815.01126 137.833249 C 816.874657 145.144936 819.110734 149.762843 820.974132 150.917319 C 822.83753 152.456622 828.427722 152.841447 836.999351 152.841447 C 850.415813 152.841447 857.124045 150.147668 857.124045 145.144936 C 857.124045 144.375284 855.633326 139.372552 853.02457 130.136738 C 847.807057 110.510633 840.353467 91.654179 831.036479 73.182551 C 821.719491 54.326097 806.439631 35.854469 784.824219 16.998015 C 763.581487 -1.858439 740.848037 -10.709427 715.87851 -9.939776 C 684.573431 -9.939776 661.839981 -1.088787 648.050839 16.998015 C 633.889017 35.084818 627.180786 53.556446 627.180786 73.182551 C 627.180786 85.49697 639.106531 125.518831 662.958019 192.863308 C 687.182188 260.207786 699.480611 311.004764 699.853291 344.869415 C 699.853291 384.506451 685.31879 404.132556 655.877109 404.132556 L 651.032275 404.132556 C 593.63963 404.132556 545.191294 370.267904 506.059945 302.923426 L 498.979034 290.993833 L 466.183238 157.074529 C 443.822467 69.719121 431.151363 22.770399 428.169927 15.843538 C 419.225619 -1.858439 405.063798 -11.094253 384.939104 -11.094253 C 376.367475 -11.094253 369.286565 -8.785299 364.069051 -4.167392 C 358.851538 0.83534 355.124743 4.683596 352.888666 8.147027 C 351.025269 11.225631 349.90723 14.689062 349.90723 18.152492 C 349.90723 25.464178 361.460295 73.182551 383.821066 160.922785 L 419.970978 307.156508 C 421.834376 317.161973 422.952414 329.476392 422.952414 344.869415 C 422.952414 384.506451 408.417913 404.132556 378.976232 404.132556 L 374.131398 404.132556 C 316.738754 404.132556 268.290417 370.267904 229.159069 302.923426 L 222.078158 290.993833 L 188.909681 157.074529 C 166.92159 69.719121 154.250487 22.770399 150.896371 15.843538 C 142.324742 -1.858439 128.162921 -11.094253 108.038227 -11.094253 C 99.466599 -11.094253 92.385688 -9.170125 87.168175 -4.937043 C 81.577982 -1.088787 77.851187 3.144294 75.98779 6.99255 C 74.124392 10.840806 73.379033 14.304236 74.124392 16.998015 C 74.124392 25.849004 86.795495 80.494237 112.137702 180.933715 C 137.852588 283.682147 150.896371 337.172903 150.896371 342.175636 C 153.132448 352.181101 153.877807 361.03209 153.877807 369.113427 C 153.877807 392.972614 145.678858 404.902207 128.90828 404.902207 C 114.373779 404.902207 102.075355 395.666393 92.013008 376.809939 C 81.950662 358.338311 74.497071 337.942555 68.906879 316.007496 C 63.689366 294.072438 59.589891 282.142845 56.981134 279.833891 C 55.490416 278.679414 50.272903 277.909763 40.955915 277.909763 L 27.166774 277.909763 C 23.067299 282.142845 20.831222 284.836624 20.831222 287.145577 Z M 20.831222 287.145577 "
     transform="matrix(0.0104815, 0, 0, -0.0101507, 70.676188, 104.582698)"
     id="path37" />
  <path
     fill-rule="nonzero"
     fill="rgb(0%, 0%, 0%)"
     fill-opacity="1"
     stroke-width="11.448715"
     stroke-linecap="butt"
     stroke-linejoin="miter"
     stroke="rgb(0%, 0%, 0%)"
     stroke-opacity="0.1289"
     stroke-miterlimit="4"
     d="M 311.180978 43.166155 C 301.118632 34.315167 286.211451 25.079352 266.832117 15.073887 C 247.825461 5.068422 227.328088 0.0656893 206.085356 0.0656893 C 163.972571 0.0656893 130.431415 15.073887 105.089209 45.090283 C 79.747002 75.106679 66.703219 113.204412 65.95786 160.153133 C 65.95786 230.19139 91.672746 294.457263 143.102519 352.950753 C 194.159612 411.829067 251.179577 441.460637 314.162414 441.845463 C 345.467493 441.845463 374.163816 426.067614 400.99674 394.12709 L 403.978177 397.975346 C 405.468895 399.899474 406.959613 401.823602 408.82301 404.132556 C 411.059087 406.056683 414.040523 408.750463 418.139998 411.829067 C 421.866793 415.292498 426.338947 417.601451 431.183781 419.140753 C 435.655935 420.29523 440.873448 421.449707 446.83632 421.834533 C 456.153308 421.834533 463.979578 419.140753 469.94245 412.983544 C 475.905322 406.826335 479.259438 400.669125 480.004797 394.12709 C 480.004797 384.121625 460.998142 303.308252 422.984832 152.071796 C 384.971521 0.83534 364.846828 -76.514603 362.98343 -79.978033 C 351.057686 -116.151638 325.3428 -145.783208 285.838772 -168.872743 C 246.707423 -192.347104 201.613202 -204.276697 150.928789 -205.046349 C 57.013552 -205.046349 10.055933 -182.341639 10.055933 -136.93222 C 10.055933 -119.615068 16.018806 -104.222045 27.94455 -91.137975 C 39.870294 -77.669079 55.150154 -71.127044 74.156809 -71.127044 C 83.846477 -71.127044 93.163464 -73.820823 102.107773 -79.978033 C 110.679401 -86.135242 115.151556 -96.525533 115.896915 -111.148905 C 115.896915 -117.69094 115.151556 -123.84815 114.033517 -130.005359 C 112.542799 -136.162568 110.306722 -140.780476 106.952606 -143.85908 C 103.598491 -147.322511 100.989734 -150.785941 99.126337 -153.864545 C 96.89026 -157.327976 94.654182 -160.021755 92.045426 -161.945883 L 90.182028 -163.870011 L 90.927387 -163.870011 C 97.635619 -166.178964 117.760312 -166.948615 150.928789 -166.948615 C 176.270995 -166.948615 196.395689 -163.10036 210.93019 -155.019022 C 226.21005 -147.707336 240.744551 -136.547394 254.161013 -121.924022 C 267.204796 -107.300649 276.521784 -91.5228 282.111976 -74.9753 C 285.838772 -62.276056 291.428964 -41.495474 298.137195 -13.018381 C 306.708824 18.922143 311.180978 37.778597 311.180978 43.166155 Z M 383.853483 327.937089 L 380.126688 339.097031 C 377.890611 346.408718 376.399893 351.41145 374.909175 354.105229 C 373.791136 356.799008 371.555059 361.416915 368.946303 367.95895 C 366.337546 374.500985 362.98343 379.503718 358.883956 381.812672 C 355.157161 384.506451 350.685006 388.354706 345.840173 392.972614 C 341.368019 397.590521 335.405147 400.669125 327.951556 401.823602 C 320.497966 403.362904 313.417055 404.517381 305.963465 404.902207 C 276.521784 404.902207 248.198141 387.20023 220.992537 352.181101 C 200.867843 326.012961 184.469945 286.375926 171.053482 232.885169 C 157.63702 179.779238 150.928789 140.911854 150.928789 117.052668 C 150.928789 64.331562 171.798841 38.163422 213.166267 38.163422 C 250.434218 38.163422 286.95681 61.252958 323.106723 107.816854 L 330.932992 117.822319 Z M 383.853483 327.937089 "
     transform="matrix(0.0104815, 0, 0, -0.0101507, 79.878973, 104.582698)"
     id="path39" />
  <path
     fill="none"
     stroke-width="1"
     stroke-linecap="butt"
     stroke-linejoin="miter"
     stroke="rgb(0%, 0%, 0%)"
     stroke-opacity="1"
     stroke-miterlimit="10"
     d="M 59.002351 15.002229 C 39.001823 15.002229 29.001559 22.875552 29.001559 38.632599 "
     transform="matrix(0.751152, 0, 0, 0.751152, 0.375576, 0.375576)"
     id="path41" />
  <path
     fill-rule="nonzero"
     fill="rgb(0%, 0%, 0%)"
     fill-opacity="1"
     stroke-width="1"
     stroke-linecap="butt"
     stroke-linejoin="miter"
     stroke="rgb(0%, 0%, 0%)"
     stroke-opacity="1"
     stroke-miterlimit="10"
     d="M 29.001559 43.879747 L 25.501727 36.880082 L 29.001559 38.632599 L 32.501391 36.880082 Z M 29.001559 43.879747 "
     transform="matrix(0.751152, 0, 0, 0.751152, 0.375576, 0.375576)"
     id="path43" />
  <path
     fill-rule="nonzero"
     fill="rgb(0%, 0%, 0%)"
     fill-opacity="1"
     stroke-width="10.324141"
     stroke-linecap="butt"
     stroke-linejoin="miter"
     stroke="rgb(0%, 0%, 0%)"
     stroke-opacity="0.1357"
     stroke-miterlimit="4"
     d="M 39.018473 284.056204 C 24.903437 284.056204 17.845919 287.525338 17.845919 294.078146 C 17.845919 298.703658 26.919871 313.351112 45.067775 338.020508 C 62.879606 362.689904 81.02751 382.733789 98.839342 398.152161 C 122.364402 415.88329 143.873029 426.290691 164.037367 428.988906 C 168.070234 430.145284 223.858235 430.916203 332.073513 430.916203 C 438.608431 430.916203 493.724287 430.145284 497.08501 428.988906 C 510.191829 425.519773 516.913275 416.654208 516.913275 402.006754 C 516.913275 392.755731 513.888624 383.890166 507.839323 376.18098 C 502.126094 368.086335 494.396431 362.689904 484.986407 359.991689 C 480.95354 358.835311 449.026672 358.064392 388.869731 358.064392 C 329.048863 358.064392 299.138429 357.293474 299.138429 356.137096 C 298.466284 355.366177 293.089127 327.998566 283.006959 274.034262 C 272.92479 220.069957 262.170476 164.949275 251.080091 109.057674 C 239.653633 53.166074 233.604331 23.485706 232.932187 20.016573 C 229.571464 9.99463 223.522163 1.899985 215.120355 -3.881905 C 206.382476 -10.049254 196.636379 -13.132929 185.882066 -13.132929 C 164.037367 -13.132929 152.946981 -1.954608 152.946981 20.016573 L 152.946981 30.038515 L 203.021753 191.931427 C 210.415343 215.829905 218.481078 242.812057 226.882886 272.106965 C 235.620765 301.401873 242.678283 322.602135 248.05544 336.093211 L 254.104741 356.908014 C 254.104741 357.678933 238.645416 358.064392 208.062837 358.064392 C 206.718548 358.064392 203.021753 358.064392 196.972451 358.064392 C 190.92315 358.064392 186.218138 358.449852 182.857415 358.835311 C 131.102282 358.835311 90.437534 337.635049 60.863173 294.849065 C 57.50245 289.838093 55.149944 286.754419 53.13351 285.9835 C 51.117076 285.212582 46.412064 284.827122 39.018473 284.056204 Z M 39.018473 284.056204 "
     transform="matrix(0.0116232, 0, 0, -0.010134, 15.023041, 14.136442)"
     id="path45" />
</svg>
