<?xml version="1.0" encoding="UTF-8" standalone="no"?>
<svg 
   width="223.92pt"
   height="48.959999pt"
   viewBox="0 0 223.92 48.959999"
   version="1.1"
   id="svg49"
   xmlns="http://www.w3.org/2000/svg"
   xmlns:svg="http://www.w3.org/2000/svg" content="%3Cmxfile%20host%3D%22app.diagrams.net%22%20modified%3D%222023-04-05T09%3A18%3A57.143Z%22%20agent%3D%22Mozilla%2F5.0%20(Windows%20NT%2010.0%3B%20Win64%3B%20x64%3B%20rv%3A109.0)%20Gecko%2F20100101%20Firefox%2F111.0%22%20etag%3D%22DJVVdFd6Abd8F0l62E36%22%20version%3D%2221.1.2%22%3E%20%20%20%3Cdiagram%20id%3D%22Ch3I1_RwLx95VNuDKR7u%22%20name%3D%22gravite%22%3E%20%20%20%20%20%3CmxGraphModel%20dx%3D%221468%22%20dy%3D%22309%22%20grid%3D%221%22%20gridSize%3D%2210%22%20guides%3D%221%22%20tooltips%3D%221%22%20connect%3D%221%22%20arrows%3D%221%22%20fold%3D%221%22%20page%3D%220%22%20pageScale%3D%221%22%20pageWidth%3D%22850%22%20pageHeight%3D%221100%22%20math%3D%221%22%20shadow%3D%220%22%3E%20%20%20%20%20%20%20%3Croot%3E%20%20%20%20%20%20%20%20%20%3CmxCell%20id%3D%220%22%20%2F%3E%20%20%20%20%20%20%20%20%20%3CmxCell%20id%3D%221%22%20parent%3D%220%22%20%2F%3E%20%20%20%20%20%20%20%20%20%3CmxCell%20id%3D%22akQxMUoxC8suQJYGT3V0-1%22%20value%3D%22%24%24%5Cfrac%7Bmgl%7D%7B2%7D%24%24%22%20style%3D%22rounded%3D0%3BwhiteSpace%3Dwrap%3Bhtml%3D1%3B%22%20vertex%3D%221%22%20parent%3D%221%22%3E%20%20%20%20%20%20%20%20%20%20%20%3CmxGeometry%20x%3D%22-200%22%20y%3D%22250%22%20width%3D%22120%22%20height%3D%2260%22%20as%3D%22geometry%22%20%2F%3E%20%20%20%20%20%20%20%20%20%3C%2FmxCell%3E%20%20%20%20%20%20%20%20%20%3CmxCell%20id%3D%22akQxMUoxC8suQJYGT3V0-2%22%20value%3D%22%22%20style%3D%22endArrow%3Dclassic%3Bhtml%3D1%3Brounded%3D0%3BentryX%3D0%3BentryY%3D0.5%3BentryDx%3D0%3BentryDy%3D0%3B%22%20edge%3D%221%22%20parent%3D%221%22%20target%3D%22akQxMUoxC8suQJYGT3V0-1%22%3E%20%20%20%20%20%20%20%20%20%20%20%3CmxGeometry%20width%3D%2250%22%20height%3D%2250%22%20relative%3D%221%22%20as%3D%22geometry%22%3E%20%20%20%20%20%20%20%20%20%20%20%20%20%3CmxPoint%20x%3D%22-280%22%20y%3D%22280%22%20as%3D%22sourcePoint%22%20%2F%3E%20%20%20%20%20%20%20%20%20%20%20%20%20%3CmxPoint%20x%3D%22-150%22%20y%3D%22280%22%20as%3D%22targetPoint%22%20%2F%3E%20%20%20%20%20%20%20%20%20%20%20%3C%2FmxGeometry%3E%20%20%20%20%20%20%20%20%20%3C%2FmxCell%3E%20%20%20%20%20%20%20%20%20%3CmxCell%20id%3D%22akQxMUoxC8suQJYGT3V0-3%22%20value%3D%22%22%20style%3D%22endArrow%3Dclassic%3Bhtml%3D1%3Brounded%3D0%3BentryX%3D0%3BentryY%3D0.5%3BentryDx%3D0%3BentryDy%3D0%3B%22%20edge%3D%221%22%20parent%3D%221%22%3E%20%20%20%20%20%20%20%20%20%20%20%3CmxGeometry%20width%3D%2250%22%20height%3D%2250%22%20relative%3D%221%22%20as%3D%22geometry%22%3E%20%20%20%20%20%20%20%20%20%20%20%20%20%3CmxPoint%20x%3D%22-80%22%20y%3D%22279.69%22%20as%3D%22sourcePoint%22%20%2F%3E%20%20%20%20%20%20%20%20%20%20%20%20%20%3CmxPoint%20y%3D%22279.69%22%20as%3D%22targetPoint%22%20%2F%3E%20%20%20%20%20%20%20%20%20%20%20%3C%2FmxGeometry%3E%20%20%20%20%20%20%20%20%20%3C%2FmxCell%3E%20%20%20%20%20%20%20%20%20%3CmxCell%20id%3D%22akQxMUoxC8suQJYGT3V0-4%22%20value%3D%22%24%24%5CTheta(s)%24%24%22%20style%3D%22text%3Bhtml%3D1%3BstrokeColor%3Dnone%3BfillColor%3Dnone%3Balign%3Dcenter%3BverticalAlign%3Dmiddle%3BwhiteSpace%3Dwrap%3Brounded%3D0%3B%22%20vertex%3D%221%22%20parent%3D%221%22%3E%20%20%20%20%20%20%20%20%20%20%20%3CmxGeometry%20x%3D%22-260%22%20y%3D%22250%22%20width%3D%2260%22%20height%3D%2230%22%20as%3D%22geometry%22%20%2F%3E%20%20%20%20%20%20%20%20%20%3C%2FmxCell%3E%20%20%20%20%20%20%20%20%20%3CmxCell%20id%3D%22akQxMUoxC8suQJYGT3V0-5%22%20value%3D%22%24%24%5Ctext%7BT%7D_e(s)%24%24%22%20style%3D%22text%3Bhtml%3D1%3BstrokeColor%3Dnone%3BfillColor%3Dnone%3Balign%3Dcenter%3BverticalAlign%3Dmiddle%3BwhiteSpace%3Dwrap%3Brounded%3D0%3B%22%20vertex%3D%221%22%20parent%3D%221%22%3E%20%20%20%20%20%20%20%20%20%20%20%3CmxGeometry%20x%3D%22-80%22%20y%3D%22250%22%20width%3D%2260%22%20height%3D%2230%22%20as%3D%22geometry%22%20%2F%3E%20%20%20%20%20%20%20%20%20%3C%2FmxCell%3E%20%20%20%20%20%20%20%3C%2Froot%3E%20%20%20%20%20%3C%2FmxGraphModel%3E%20%20%20%3C%2Fdiagram%3E%20%3C%2Fmxfile%3E%20">
  <defs
     id="defs5">
    <clipPath
       id="clip-0">
      <path
         clip-rule="nonzero"
         d="M 200 10 L 223.921875 10 L 223.921875 37 L 200 37 Z M 200 10 "
         id="path2" />
    </clipPath>
  </defs>
  <path
     fill-rule="nonzero"
     fill="rgb(100%, 100%, 100%)"
     fill-opacity="1"
     stroke-width="1"
     stroke-linecap="butt"
     stroke-linejoin="miter"
     stroke="rgb(0%, 0%, 0%)"
     stroke-opacity="1"
     stroke-miterlimit="4"
     d="M 87.999938 1.001849 L 208.002321 1.001849 L 208.002321 60.997843 L 87.999938 60.997843 Z M 87.999938 1.001849 "
     transform="matrix(0.751678, 0, 0, 0.751678, 0.375839, 0.375839)"
     id="path7" />
  <path
     fill-rule="nonzero"
     fill="rgb(0%, 0%, 0%)"
     fill-opacity="1"
     stroke-width="11.13775"
     stroke-linecap="butt"
     stroke-linejoin="miter"
     stroke="rgb(0%, 0%, 0%)"
     stroke-opacity="0.1336"
     stroke-miterlimit="4"
     d="M 21.055468 287.105785 C 21.780582 291.159207 22.505696 296.318108 23.955924 302.950981 C 25.406152 309.583855 29.394279 322.481108 35.920304 340.905755 C 42.808887 359.698895 49.334912 375.175599 55.860938 388.072852 C 62.749521 400.601612 73.263673 413.130373 88.128509 424.922147 C 102.630788 437.082414 117.495624 442.609808 131.997903 441.872822 C 146.500182 441.504329 161.002462 438.924879 175.142184 434.871456 C 188.919349 430.818034 199.070944 424.922147 204.871856 417.183795 C 211.035324 409.07695 216.473679 401.707091 220.824363 395.074218 C 225.537604 388.441345 228.438059 382.176965 229.163173 375.912585 L 230.975958 368.911219 C 230.975958 367.80574 231.338515 367.068754 232.063629 367.068754 L 242.940338 378.123543 C 282.821606 420.500231 329.954013 441.872822 383.975003 441.872822 C 395.214269 441.872822 405.728421 441.504329 415.154903 440.030358 C 424.218827 438.556386 432.920195 436.345428 440.896448 433.028992 C 448.872702 429.712555 455.398727 426.396119 460.111968 423.079682 C 464.825209 419.763246 469.538449 415.709823 474.976804 410.919415 C 480.415159 406.497499 483.678172 402.075584 485.128399 398.022162 C 486.21607 393.968739 489.116526 389.546824 493.104653 385.124909 C 497.09278 380.3345 498.180451 376.281078 497.09278 372.964641 C 495.642552 369.648205 496.730223 366.700261 499.993236 364.120811 C 503.256248 361.172867 503.981362 358.961909 502.168577 357.119445 L 510.144831 367.068754 C 551.838883 417.183795 601.509189 441.872822 659.155749 441.872822 C 695.048889 441.872822 724.053448 433.028992 746.169423 414.972837 C 767.922842 396.916683 779.162108 370.753684 779.887222 336.115347 C 779.887222 301.845503 767.197728 249.151011 741.81874 178.031873 C 716.802308 106.544241 704.112814 64.167552 704.112814 50.16482 C 704.837928 40.584003 706.288156 34.319623 708.826055 31.003187 C 711.72651 27.68675 716.802308 25.844286 724.053448 25.844286 C 742.543854 25.844286 759.946588 36.162088 775.899095 56.060707 C 791.851602 75.959326 804.903654 103.227804 815.055249 137.866141 C 816.868034 145.236 819.043376 149.657916 820.856161 151.131887 C 823.031503 152.237366 828.469857 152.974352 837.171225 152.974352 C 850.223276 152.974352 857.111858 150.394902 857.111858 144.867507 C 857.111858 144.499014 855.661631 139.340113 853.123732 130.127789 C 847.685377 110.597663 840.434237 91.804523 831.007756 73.011383 C 821.581275 54.218242 806.353882 35.793595 784.96302 17.000455 C 763.572158 -1.792685 740.731069 -10.636516 716.077194 -9.89953 C 684.534737 -9.89953 662.056205 -1.0557 647.916482 17.000455 C 634.139317 35.056609 626.888178 53.84975 626.888178 73.011383 C 626.888178 85.540143 638.852558 125.705874 663.143875 193.140083 C 687.072636 260.2058 699.399573 311.057826 700.124687 344.959177 C 700.124687 384.387923 685.259851 403.918049 655.892736 403.918049 L 651.179495 403.918049 C 593.532936 403.918049 545.312858 370.385191 506.156704 302.950981 L 498.905565 291.159207 L 465.91288 157.027775 C 444.159461 69.694946 431.469967 22.527849 427.844397 15.894976 C 419.505587 -2.161178 405.003307 -11.005009 385.062674 -11.005009 C 376.361306 -11.005009 369.472724 -8.794051 364.034369 -4.003643 C 358.596014 0.786765 354.970445 4.840188 353.15766 8.156624 C 350.982318 11.473061 349.894647 14.789497 349.894647 18.105934 C 349.894647 25.475793 361.49647 73.011383 383.975003 161.081197 L 419.868144 307.004404 C 422.043485 316.953713 423.131156 329.482474 423.131156 344.959177 C 423.131156 384.387923 408.26632 403.918049 378.899205 403.918049 L 373.823407 403.918049 C 316.539405 403.918049 268.319327 370.385191 229.163173 302.950981 L 221.912034 291.159207 L 188.919349 157.027775 C 167.16593 69.694946 154.476436 22.527849 150.850866 15.894976 C 142.512056 -2.161178 128.009777 -11.005009 108.069143 -11.005009 C 99.367775 -11.005009 92.479193 -9.162544 87.040838 -5.109122 C 81.602483 -1.0557 77.976914 2.997723 76.164129 7.051145 C 73.988787 11.104568 73.263673 14.421004 73.988787 17.000455 C 73.988787 25.844286 86.678281 80.381242 112.05727 180.979816 C 138.161372 283.789348 150.850866 337.220826 150.850866 342.011234 C 153.026208 351.960543 154.113879 361.172867 154.113879 368.911219 C 154.113879 392.86326 145.775068 405.023528 129.097448 405.023528 C 114.232611 405.023528 101.905674 395.811204 92.116636 377.018064 C 81.96504 358.224923 74.351344 337.957811 68.912989 315.848235 C 63.837192 294.107151 59.486508 281.946884 56.948609 280.104419 C 55.498381 278.630447 50.422583 277.893461 40.996102 277.893461 L 26.85638 277.893461 C 22.868253 281.946884 21.055468 284.894827 21.055468 287.105785 Z M 21.055468 287.105785 "
     transform="matrix(0.0107742, 0, 0, -0.0106006, 102.343457, 20.137246)"
     id="path9" />
  <path
     fill-rule="nonzero"
     fill="rgb(0%, 0%, 0%)"
     fill-opacity="1"
     stroke-width="11.13775"
     stroke-linecap="butt"
     stroke-linejoin="miter"
     stroke="rgb(0%, 0%, 0%)"
     stroke-opacity="0.1336"
     stroke-miterlimit="4"
     d="M 310.850863 43.163454 C 301.061825 34.319623 286.196989 25.1073 266.981469 15.15799 C 247.765949 4.840188 227.462759 0.0497793 206.071897 0.0497793 C 164.015287 0.0497793 130.297489 15.15799 104.9185 45.005919 C 79.539512 74.853847 66.48746 113.177114 66.124904 159.975718 C 66.124904 229.989378 91.503892 294.475644 142.986983 353.066022 C 194.470074 411.656401 251.391519 441.504329 314.113876 441.872822 C 345.293776 441.872822 374.298334 426.027626 401.127551 393.968739 L 404.028007 398.022162 C 405.478234 399.864626 406.928462 402.075584 409.103804 403.918049 C 410.916589 406.129007 414.179602 408.708457 418.167729 412.024894 C 422.155855 415.34133 426.506539 417.552288 430.857223 419.02626 C 435.570464 420.500231 441.008818 421.237217 447.172287 421.974203 C 456.236211 421.974203 463.849908 419.02626 470.013376 413.130373 C 476.176845 406.865992 479.439858 400.601612 480.164972 393.968739 C 480.164972 384.01943 460.949452 303.319474 422.880969 151.868873 C 385.175044 0.786765 364.871853 -76.596754 363.059068 -79.91319 C 351.094688 -116.025499 325.353142 -145.504935 285.834432 -169.088483 C 246.678278 -192.303539 201.721213 -204.463806 150.963236 -204.832299 C 57.060979 -204.832299 9.928572 -182.354229 9.928572 -137.029597 C 9.928572 -119.710428 16.092041 -104.233725 28.056421 -90.967979 C 40.020801 -77.702232 55.248194 -71.069359 74.101157 -71.069359 C 83.890195 -71.069359 93.316677 -74.017303 102.018044 -79.91319 C 110.719412 -86.17757 115.432652 -96.495373 116.157766 -110.866598 C 116.157766 -117.499471 115.432652 -124.132344 113.982425 -130.028231 C 112.532197 -135.924118 110.356855 -140.714526 107.093842 -144.030963 C 103.830829 -147.347399 100.930373 -150.663836 99.117588 -153.980272 C 96.942247 -157.296709 94.766905 -159.87616 91.866449 -162.087117 L 90.053664 -163.929582 L 91.141335 -163.929582 C 97.667361 -166.14054 117.607994 -166.877526 150.963236 -166.877526 C 176.342225 -166.877526 196.282858 -162.824103 211.147695 -155.085751 C 226.375088 -147.715892 240.51481 -136.661104 253.929418 -121.921386 C 267.344026 -107.181668 276.770507 -91.704964 281.846305 -75.122782 C 285.834432 -62.225529 291.272787 -41.589924 298.161369 -12.847474 C 306.50018 18.84292 310.850863 37.63606 310.850863 43.163454 Z M 384.087373 328.008502 L 380.099246 339.06329 C 377.923904 346.433149 376.473676 351.223557 375.023448 354.171501 C 373.57322 356.750952 371.760436 361.172867 368.85998 368.174233 C 366.322081 374.807106 363.059068 379.229021 359.070941 382.176965 C 355.082815 384.756416 350.732131 388.441345 346.01889 392.86326 C 341.305649 397.653669 335.504738 400.601612 327.891041 402.075584 C 320.639902 403.181063 313.388762 404.286542 306.137623 405.023528 C 276.770507 405.023528 248.491063 387.335866 220.936733 351.960543 C 200.996099 326.166037 184.318478 286.368799 170.90387 232.937322 C 157.489262 179.505844 150.963236 141.182578 150.963236 116.862043 C 150.963236 64.167552 171.628984 38.004553 212.960479 38.004553 C 250.303848 38.004553 286.922103 61.219608 323.177801 108.018213 L 331.154054 117.967522 Z M 384.087373 328.008502 "
     transform="matrix(0.0107742, 0, 0, -0.0106006, 111.803184, 20.137246)"
     id="path11" />
  <path
     fill-rule="nonzero"
     fill="rgb(0%, 0%, 0%)"
     fill-opacity="1"
     stroke-width="11.13775"
     stroke-linecap="butt"
     stroke-linejoin="miter"
     stroke="rgb(0%, 0%, 0%)"
     stroke-opacity="0.1336"
     stroke-miterlimit="4"
     d="M 117.007884 59.008651 C 117.007884 36.899074 125.346695 25.844286 142.024316 25.844286 C 166.67819 25.844286 187.706495 60.851116 205.10923 130.864775 C 209.097357 144.499014 212.360369 151.50038 214.898268 151.868873 C 216.348496 152.605859 219.611509 152.974352 225.049864 152.974352 L 229.03799 152.974352 C 234.838902 152.974352 238.827029 152.974352 241.002371 152.974352 C 243.177713 152.974352 244.62794 152.237366 246.078168 151.131887 C 247.165839 149.657916 247.890953 147.446958 247.890953 144.130521 C 247.165839 140.077099 246.440725 134.549705 244.990497 127.916832 C 243.54027 121.283959 239.9147 108.755199 234.113788 89.962058 C 227.950319 71.168918 221.424294 55.692214 214.173154 43.163454 C 206.559458 30.266201 196.407862 18.105934 182.993254 5.945666 C 169.578646 -5.846108 154.351253 -11.741995 136.948518 -11.005009 C 113.019758 -11.005009 90.541225 -3.63515 69.875477 11.104568 C 49.20973 25.844286 38.695577 50.16482 37.970463 85.17165 C 37.970463 92.910002 38.33302 98.805889 39.058134 102.122326 L 103.955833 360.067388 C 146.012443 529.942637 167.040747 617.643958 167.040747 623.171352 C 167.040747 625.013817 166.67819 626.487789 165.953076 627.96176 C 165.227962 629.435732 164.140291 630.541211 161.96495 632.015183 C 160.152165 633.489155 158.33938 633.857648 156.889152 633.857648 C 155.801481 633.857648 152.901025 634.226141 148.912898 634.963126 C 144.924772 635.700112 142.386873 636.068605 140.936645 636.068605 C 139.486417 636.068605 136.585961 636.437098 131.87272 637.174084 C 127.15948 637.542577 123.896467 637.542577 122.083682 637.174084 C 115.195099 637.174084 110.844416 637.174084 109.031631 637.174084 C 106.856289 637.174084 104.31839 637.174084 101.055377 637.91107 C 97.792365 638.648056 95.617023 639.753535 94.891909 640.859014 C 94.166795 642.332985 94.166795 644.17545 94.166795 647.123394 C 94.166795 648.228872 94.529352 653.019281 95.97958 661.126126 C 99.242592 673.654886 102.868162 680.656252 106.856289 682.130224 C 110.844416 683.235702 135.135733 685.44666 179.005128 688.026111 C 189.156723 688.763097 200.395989 689.500083 213.085483 689.868575 C 225.774978 690.605561 235.564016 691.71104 243.177713 692.816519 C 250.428852 694.290491 254.054422 694.658984 254.054422 693.921998 C 262.030675 693.921998 266.018802 691.342547 266.018802 686.183646 C 266.018802 678.813787 241.727485 578.583706 193.14485 385.861894 C 144.199658 193.508576 119.183226 92.173016 118.095555 82.960692 C 118.095555 81.486721 118.095555 78.90727 118.095555 74.853847 C 118.095555 71.168918 117.732998 67.483989 117.007884 64.904538 Z M 117.007884 59.008651 "
     transform="matrix(0.0107742, 0, 0, -0.0106006, 116.942462, 20.137246)"
     id="path13" />
  <path
     fill-rule="nonzero"
     fill="rgb(0%, 0%, 0%)"
     fill-opacity="1"
     stroke-width="11.13775"
     stroke-linecap="butt"
     stroke-linejoin="miter"
     stroke="rgb(0%, 0%, 0%)"
     stroke-opacity="0.1336"
     stroke-miterlimit="4"
     d="M 109.122227 429.025615 C 90.994378 429.025615 76.492099 434.921502 65.977947 447.08177 C 55.463795 458.873544 50.02544 473.613262 50.02544 490.93243 C 50.02544 538.46802 67.790732 579.370737 102.958759 614.009074 C 138.489342 648.647411 182.358737 665.96658 234.929498 665.96658 C 295.839071 665.96658 346.234491 647.17344 386.840872 609.955652 C 427.80981 572.737864 448.475558 524.465288 448.838115 465.137924 C 448.838115 436.395474 442.31209 409.126996 428.897481 382.963997 C 415.84543 357.169491 399.530366 334.322928 381.03996 315.161295 C 362.186998 295.631169 335.720338 270.942141 300.914868 241.094212 C 276.986108 220.458607 243.630866 189.5052 200.849143 148.970976 L 142.114912 92.960048 L 217.88932 91.854569 C 322.668287 91.854569 378.502062 93.697034 385.028087 97.01347 C 389.741328 98.487442 397.717581 127.966878 408.956848 185.82027 L 408.956848 189.136707 L 448.838115 189.136707 L 448.838115 185.82027 C 448.475558 183.977806 444.124874 153.761384 436.148621 95.171006 C 428.172367 36.212134 423.09657 5.62722 420.921228 3.047769 L 420.921228 0.0998253 L 50.02544 0.0998253 L 50.02544 31.053233 C 50.02544 35.843641 51.838225 40.634049 55.826352 46.161444 C 60.177035 51.320345 69.966074 63.112119 85.918581 81.168274 C 105.496657 102.172372 122.174278 120.965512 135.951444 137.179201 C 142.114912 143.812075 153.354178 155.972342 170.031799 174.028496 C 186.70942 192.084651 197.948687 204.244918 204.112155 210.877791 C 209.913067 217.510664 219.702105 228.565452 233.116714 244.042156 C 246.168765 259.150367 255.595246 270.573648 261.033601 277.943507 C 266.471955 285.313366 274.085652 295.262676 283.87469 308.159929 C 294.026286 320.688689 300.914868 331.374984 304.902995 339.850322 C 308.891122 348.694153 313.96692 358.274969 320.130388 368.961265 C 325.9313 379.64756 330.281984 390.333856 332.819882 401.020151 C 335.720338 411.706447 337.89568 421.655756 340.071022 430.86808 C 341.883807 440.448897 342.971478 451.503685 342.971478 464.032445 C 342.971478 506.040641 331.732211 542.15295 308.891122 573.106357 C 286.412589 603.691272 254.145018 619.167976 212.088409 619.167976 C 189.972433 619.167976 170.756913 613.272089 154.079292 601.848807 C 137.401671 590.794019 125.799848 579.73923 118.911266 569.052935 C 112.38524 558.36664 109.122227 552.102259 109.122227 549.891302 C 109.122227 549.154316 110.572455 549.154316 113.835468 549.154316 C 126.162405 549.154316 138.489342 544.363908 151.178837 535.151584 C 163.505774 525.570767 170.031799 510.462556 170.031799 489.089966 C 170.031799 472.507783 164.593445 458.505051 154.079292 447.08177 C 143.202583 435.658488 128.337747 429.762601 109.122227 429.025615 Z M 109.122227 429.025615 "
     transform="matrix(0.0107742, 0, 0, -0.0106006, 108.554767, 34.575277)"
     id="path15" />
  <path
     fill-rule="nonzero"
     fill="rgb(0%, 0%, 0%)"
     fill-opacity="1"
     d="M 101.265625 24.972656 L 121.230469 24.972656 L 121.230469 24.335938 L 101.265625 24.335938 Z M 101.265625 24.972656 "
     id="path17" />
  <path
     fill="none"
     stroke-width="1"
     stroke-linecap="butt"
     stroke-linejoin="miter"
     stroke="rgb(0%, 0%, 0%)"
     stroke-opacity="1"
     stroke-miterlimit="10"
     d="M 8.001814 31.002444 L 81.628774 31.002444 "
     transform="matrix(0.751678, 0, 0, 0.751678, 0.375839, 0.375839)"
     id="path19" />
  <path
     fill-rule="nonzero"
     fill="rgb(0%, 0%, 0%)"
     fill-opacity="1"
     stroke-width="1"
     stroke-linecap="butt"
     stroke-linejoin="miter"
     stroke="rgb(0%, 0%, 0%)"
     stroke-opacity="1"
     stroke-miterlimit="10"
     d="M 86.877449 31.002444 L 79.877484 34.499829 L 81.628774 31.002444 L 79.877484 27.499863 Z M 86.877449 31.002444 "
     transform="matrix(0.751678, 0, 0, 0.751678, 0.375839, 0.375839)"
     id="path21" />
  <path
     fill="none"
     stroke-width="1"
     stroke-linecap="butt"
     stroke-linejoin="miter"
     stroke="rgb(0%, 0%, 0%)"
     stroke-opacity="1"
     stroke-miterlimit="10"
     d="M 208.002321 30.690642 L 281.62928 30.690642 "
     transform="matrix(0.751678, 0, 0, 0.751678, 0.375839, 0.375839)"
     id="path23" />
  <path
     fill-rule="nonzero"
     fill="rgb(0%, 0%, 0%)"
     fill-opacity="1"
     d="M 216.015625 23.445313 L 210.753906 26.074219 L 212.070313 23.445313 L 210.753906 20.8125 Z M 216.015625 23.445313 "
     id="path25" />
  <g
     clip-path="url(#clip-0)"
     id="g29">
    <path
       fill="none"
       stroke-width="1"
       stroke-linecap="butt"
       stroke-linejoin="miter"
       stroke="#000000"
       stroke-opacity="1"
       stroke-miterlimit="10"
       d="m 286.87796,30.690642 -6.99997,3.497384 1.75129,-3.497384 -1.75129,-3.502581 z m 0,0"
       transform="matrix(0.751678,0,0,0.751678,0.375839,0.375839)"
       id="path27" />
  </g>
  <path
     fill-rule="nonzero"
     fill="rgb(0%, 0%, 0%)"
     fill-opacity="1"
     stroke-width="11.403062"
     stroke-linecap="butt"
     stroke-linejoin="miter"
     stroke="rgb(0%, 0%, 0%)"
     stroke-opacity="0.1307"
     stroke-miterlimit="4"
     d="M 56.002381 339.94074 C 56.002381 395.24856 66.158233 446.844445 86.093795 493.98601 C 106.029357 541.498768 131.983202 580.102883 163.955329 610.16955 C 195.927457 639.865024 231.284868 663.25021 270.027564 679.953914 C 308.77026 696.657617 347.889099 704.823873 388.136365 704.823873 C 476.529894 704.823873 554.391429 670.302885 620.968682 600.889715 C 687.545936 531.847739 721.398777 444.988478 722.151063 341.05432 C 722.151063 286.860081 712.371353 237.120162 692.811934 191.092178 C 673.628657 145.064194 648.427098 106.460078 616.831113 74.908638 C 585.611271 43.72839 549.877716 19.972011 510.006593 4.010694 C 470.135469 -11.950623 429.51206 -20.488072 388.136365 -21.972845 C 346.760671 -23.457619 306.513404 -14.92017 267.018423 2.897114 C 227.523442 21.085592 192.16603 44.841971 159.81776 74.166251 C 127.845632 103.490531 103.020215 141.723453 84.965367 188.865018 C 66.910518 236.377776 57.506951 286.488887 56.002381 339.94074 Z M 610.060545 338.82716 C 610.060545 398.218107 603.289977 450.185186 590.124983 495.09959 C 576.583847 539.6428 558.152855 574.163789 534.832009 597.920168 C 511.511163 622.04774 487.814175 639.493831 462.988758 651.000827 C 438.163341 662.507823 411.833354 668.075724 383.998796 668.075724 C 349.393669 668.075724 317.797684 658.053502 288.834698 638.009057 C 260.247855 617.964612 237.679294 593.83704 221.129016 565.997533 C 185.771604 512.174487 168.092899 436.451029 168.092899 338.82716 C 168.092899 295.768723 170.725897 260.876541 175.991895 234.893002 C 184.643176 183.66831 201.94574 140.23868 227.899584 104.975305 C 253.853429 69.71193 285.825557 44.099584 323.815967 28.138267 C 345.2561 19.972011 366.696232 15.888884 388.136365 15.888884 C 405.815071 15.888884 423.869919 18.487238 441.924768 24.055139 C 459.979616 29.251847 479.539036 39.274069 500.979168 54.121806 C 522.419301 68.598349 540.474149 87.529214 555.143714 110.914399 C 569.813278 134.299585 582.602129 165.851026 593.88641 204.826335 C 605.17069 244.172837 610.81283 289.087241 610.060545 338.82716 Z M 223.00973 263.103702 L 223.00973 421.974486 L 262.880853 421.974486 L 262.880853 387.824691 L 514.144162 387.824691 L 514.144162 421.974486 L 554.015286 421.974486 L 554.015286 263.103702 L 514.144162 263.103702 L 514.144162 296.882303 L 262.880853 296.882303 L 262.880853 263.103702 Z M 223.00973 263.103702 "
     transform="matrix(0.010385, 0, 0, -0.0105235, 33.082477, 15.409394)"
     id="path31" />
  <path
     fill-rule="nonzero"
     fill="rgb(0%, 0%, 0%)"
     fill-opacity="1"
     stroke-width="11.403062"
     stroke-linecap="butt"
     stroke-linejoin="miter"
     stroke="rgb(0%, 0%, 0%)"
     stroke-opacity="0.1307"
     stroke-miterlimit="4"
     d="M 93.85583 250.111932 C 93.85583 296.139916 97.241114 339.569547 104.011682 381.14321 C 110.782251 422.345679 118.305104 457.980248 126.956386 488.046915 C 135.607667 518.113582 148.020376 547.437862 163.818368 576.019756 C 179.992503 604.601649 192.781354 626.873254 202.184921 642.834571 C 211.212346 659.167082 225.505767 676.241979 243.936758 695.172844 C 262.743892 713.732515 273.65203 724.868317 277.037314 728.951445 C 280.422598 733.034573 288.697737 740.087248 301.862731 750.10947 L 319.165294 750.10947 C 328.192718 750.10947 333.082573 747.139923 333.082573 740.829635 C 333.082573 738.973667 327.440433 731.920992 316.156153 720.042803 C 304.49573 708.164613 290.954593 690.347329 275.156601 666.962144 C 258.982466 643.576958 242.80833 614.995065 225.88191 580.84527 C 209.331632 547.066669 195.414353 501.038685 184.130073 443.132511 C 172.845792 384.855144 166.82751 320.638682 166.82751 250.111932 C 166.82751 179.213989 172.845792 115.36872 184.130073 57.83374 C 195.414353 0.669953 208.955489 -45.729224 225.129625 -80.992599 C 240.927617 -116.255974 257.477895 -144.837868 274.028173 -167.109473 C 290.578451 -189.009885 304.49573 -206.827169 316.156153 -219.818939 C 327.440433 -233.181902 333.082573 -240.234577 333.082573 -240.976963 C 333.082573 -246.916058 327.816576 -249.885606 318.036866 -249.885606 L 301.862731 -249.885606 L 274.028173 -226.129227 C 211.212346 -169.336633 165.699082 -98.809883 137.112238 -14.177783 C 108.149252 70.82551 93.85583 158.798351 93.85583 250.111932 Z M 93.85583 250.111932 "
     transform="matrix(0.010385, 0, 0, -0.0105235, 41.162024, 15.409394)"
     id="path33" />
  <path
     fill-rule="nonzero"
     fill="rgb(0%, 0%, 0%)"
     fill-opacity="1"
     stroke-width="11.403062"
     stroke-linecap="butt"
     stroke-linejoin="miter"
     stroke="rgb(0%, 0%, 0%)"
     stroke-opacity="0.1307"
     stroke-miterlimit="4"
     d="M 131.025267 289.087241 C 131.025267 310.245266 136.291264 332.145678 146.823259 354.04609 C 157.731397 375.946502 176.162388 396.36214 202.868518 414.921811 C 229.574648 433.481482 261.922919 442.761318 299.913329 442.018931 C 341.289023 442.018931 371.380438 433.110289 390.187572 414.921811 C 408.618563 397.104527 418.398272 377.060082 419.150558 355.15967 C 419.150558 333.630452 413.508418 318.040328 401.847995 308.018106 C 390.563714 297.995884 378.151006 292.799176 363.857584 292.056789 C 355.206303 292.056789 347.307306 294.655143 340.160595 299.851851 C 332.637742 305.419752 328.500172 313.957201 328.12403 325.83539 C 328.12403 336.599999 331.133171 345.879835 337.151454 354.04609 C 343.169737 361.841152 348.811877 368.15144 354.077875 371.863374 C 359.343872 375.946502 363.481441 378.173662 366.866726 378.173662 C 367.619011 378.173662 367.995154 378.173662 367.995154 378.916049 C 367.995154 381.14321 365.738298 384.112757 360.848443 387.824691 C 356.334731 391.907819 348.059592 395.619753 336.023026 398.960494 C 323.98646 402.301235 310.821467 404.157202 296.904188 404.899589 C 264.93206 404.899589 241.611214 396.36214 226.941649 378.916049 C 212.272085 361.841152 204.749232 344.023868 203.996946 325.83539 C 203.996946 309.50288 210.391372 297.62469 223.180223 290.943209 C 235.592931 284.261727 254.023922 278.693826 278.097054 273.868311 C 302.170185 269.41399 319.472748 264.217282 330.004743 259.020574 C 374.013436 239.718516 395.829712 207.795882 395.829712 162.881478 C 395.829712 144.321807 392.444428 125.762136 384.921574 106.831272 C 377.774863 88.271601 366.490583 69.71193 351.821018 51.152259 C 337.151454 32.221394 316.463607 17.744851 289.005191 6.980242 C 261.546776 -3.784368 230.326934 -9.352269 194.969522 -10.094656 C 143.814118 -10.094656 107.328278 -0.443627 85.888145 18.858431 C 64.824155 38.160489 53.539875 61.174481 53.163732 87.15802 C 53.163732 113.14156 59.934301 131.701231 73.85158 142.837034 C 88.145001 154.34403 102.814566 159.911931 117.860273 159.911931 C 128.016125 159.911931 137.419692 156.942384 146.070974 151.003289 C 154.722255 145.064194 159.235968 134.670778 159.988253 119.823042 C 159.988253 102.748144 153.96997 87.900407 141.933404 76.022218 C 129.896839 64.144028 119.740986 57.83374 111.089705 57.83374 C 109.585134 57.462547 108.832849 57.091353 108.080563 57.091353 C 107.328278 57.091353 106.952135 56.348967 106.952135 54.864193 C 107.704421 53.008226 110.337419 50.409872 114.851132 47.069131 C 119.740986 43.72839 129.896839 39.274069 146.070974 34.077361 C 161.868966 28.50946 180.299957 26.282299 200.987805 27.024686 C 225.060936 27.024686 245.748783 30.736621 263.051347 38.160489 C 280.35391 45.213164 293.142761 54.492999 301.041757 65.999996 C 308.940753 77.506992 314.582893 87.529214 317.968177 97.180243 C 321.353462 106.460078 322.858032 114.626334 322.858032 122.050202 C 322.858032 140.609873 316.087464 154.715223 302.170185 163.995059 C 287.876763 173.274894 272.078771 178.842795 254.023922 181.069956 C 235.969074 182.925923 216.409655 188.122631 194.969522 195.917693 C 173.529389 204.083948 158.107539 215.590944 147.951687 231.181068 C 136.667407 247.513578 131.025267 266.815636 131.025267 289.087241 Z M 131.025267 289.087241 "
     transform="matrix(0.010385, 0, 0, -0.0105235, 45.2018, 15.409394)"
     id="path35" />
  <path
     fill-rule="nonzero"
     fill="rgb(0%, 0%, 0%)"
     fill-opacity="1"
     stroke-width="11.403062"
     stroke-linecap="butt"
     stroke-linejoin="miter"
     stroke="rgb(0%, 0%, 0%)"
     stroke-opacity="0.1307"
     stroke-miterlimit="4"
     d="M 59.984561 748.99589 L 64.12213 750.10947 C 67.507414 750.10947 70.516556 750.10947 73.90184 750.10947 L 85.938406 750.10947 L 114.149106 725.981898 C 176.588791 669.189304 222.478198 598.662554 251.065041 514.030454 C 279.651885 429.398354 293.945306 341.425514 293.945306 250.111932 C 293.945306 204.826335 290.560022 161.025511 284.165597 119.080655 C 277.395028 77.135798 269.496032 41.50123 260.844751 12.176949 C 252.193469 -17.518524 240.156903 -46.842804 223.982768 -76.167085 C 208.184776 -105.491365 195.395925 -127.76297 185.992358 -142.9819 C 176.588791 -158.200831 163.047654 -175.275728 144.992806 -193.835399 C 126.937957 -212.766264 116.405962 -223.530873 113.020678 -226.871614 C 109.635394 -230.212354 102.112541 -236.522642 90.075975 -246.173671 C 87.819119 -248.029638 86.690691 -249.514412 85.938406 -249.885606 L 73.90184 -249.885606 C 68.635842 -249.885606 64.874416 -249.885606 62.993702 -249.885606 C 61.112989 -249.885606 59.232275 -249.143219 58.103847 -246.916058 C 56.599277 -245.060091 55.846991 -242.090544 55.094706 -238.007416 C 55.846991 -237.265029 59.232275 -233.181902 66.002844 -225.015646 C 169.44208 -117.740748 220.973627 40.758843 220.973627 250.111932 C 220.973627 459.465022 169.44208 617.593419 66.002844 724.868317 C 59.232275 733.034573 55.846991 737.488894 55.094706 737.860087 C 55.094706 743.427988 56.599277 747.139923 59.984561 748.99589 Z M 59.984561 748.99589 "
     transform="matrix(0.010385, 0, 0, -0.0105235, 50.072372, 15.409394)"
     id="path37" />
  <path
     fill-rule="nonzero"
     fill="rgb(0%, 0%, 0%)"
     fill-opacity="1"
     stroke-width="11.190652"
     stroke-linecap="butt"
     stroke-linejoin="miter"
     stroke="rgb(0%, 0%, 0%)"
     stroke-opacity="0.1328"
     stroke-miterlimit="4"
     d="M 35.903931 443.132511 C 36.632489 446.473252 39.911 484.706174 46.103743 557.831278 C 51.932208 631.327575 54.84644 668.818111 54.84644 671.045271 L 54.84644 676.984366 L 666.106649 676.984366 L 666.106649 671.045271 C 666.835207 667.704531 670.113718 629.471608 675.942183 555.975311 C 682.134926 482.850207 685.049159 444.988478 685.049159 443.132511 L 685.049159 436.822223 L 644.978466 436.822223 L 644.978466 443.132511 C 644.978466 444.246091 643.885628 456.124281 642.064233 478.024693 C 639.878559 499.925104 636.235769 521.825516 631.135862 544.097121 C 625.671677 565.997533 618.750375 582.330044 610.007679 593.094653 C 598.715029 606.82881 580.501078 617.593419 555.001546 625.017287 C 541.158943 628.358028 515.295132 629.842802 478.138671 629.842802 L 443.167884 629.842802 C 425.682491 629.842802 415.846957 626.130867 414.025562 617.964612 C 413.297004 616.851032 412.932725 523.681483 412.932725 338.82716 L 412.932725 63.030448 C 417.668352 56.348967 426.411049 51.894646 439.160815 50.038678 C 451.546302 48.182711 481.417182 46.697938 528.044898 45.955551 L 557.915778 45.955551 L 557.915778 -0.0724334 L 545.166012 -0.0724334 L 360.840824 2.897114 C 244.271535 1.783534 183.072658 0.669953 176.879914 -0.0724334 L 164.130148 -0.0724334 L 164.130148 45.955551 L 194.001029 45.955551 C 240.628744 45.955551 270.499625 47.069131 282.885112 48.925098 C 295.634878 51.152259 304.377574 55.60658 309.113202 63.030448 L 309.113202 550.036216 C 309.113202 596.806587 307.291806 621.676546 304.013295 625.017287 C 300.734784 628.358028 289.806413 629.842802 270.863904 629.842802 L 223.871909 629.842802 C 177.244193 629.842802 142.273407 620.191773 118.959549 600.889715 C 106.938341 590.496299 98.195644 574.534982 93.095738 554.119344 C 87.631553 533.332512 83.624483 510.689714 81.07453 485.819754 C 78.160298 461.320989 76.703182 446.844445 75.974624 443.132511 L 75.974624 436.822223 L 35.903931 436.822223 Z M 35.903931 443.132511 "
     transform="matrix(0.0107232, 0, 0, -0.0105235, 166.130619, 15.409394)"
     id="path39" />
  <path
     fill-rule="nonzero"
     fill="rgb(0%, 0%, 0%)"
     fill-opacity="1"
     stroke-width="15.828362"
     stroke-linecap="butt"
     stroke-linejoin="miter"
     stroke="rgb(0%, 0%, 0%)"
     stroke-opacity="0.0939"
     stroke-miterlimit="4"
     d="M 39.145433 167.959591 C 39.145433 205.761467 45.328387 240.413186 58.209541 271.914749 C 70.575449 303.416313 87.063326 329.142589 107.157926 350.143631 C 127.252526 370.619647 149.408111 387.945507 174.139926 402.121211 C 198.871742 415.771888 222.057819 426.272409 244.213404 433.097748 C 265.853743 439.923087 286.978835 442.548217 307.073435 442.023191 L 310.164912 442.023191 C 340.049189 442.023191 365.811497 434.672826 387.967082 419.972096 C 410.122667 405.271367 420.942836 383.745299 420.942836 354.868866 C 420.942836 295.015896 383.845113 255.638942 310.164912 236.738004 C 277.189158 228.337587 232.877988 223.612352 176.200911 223.087326 C 151.469096 223.087326 138.587942 222.5623 138.072695 220.987222 C 138.072695 219.412144 136.011711 207.861571 131.889742 185.810477 C 127.767772 163.759382 125.706788 144.858444 125.191542 128.057611 C 125.191542 96.556048 131.889742 71.879823 145.801388 54.028937 C 160.22828 36.178051 180.838127 26.727582 209.176665 26.202556 C 236.999958 25.152504 267.914727 31.452817 301.920974 45.103494 C 335.92722 58.229146 366.841989 80.28024 394.150036 111.256777 C 399.817744 117.55709 403.939713 121.232272 406.000697 121.232272 C 408.576928 121.232272 413.214144 118.082116 418.881851 111.781803 C 425.064805 106.006516 428.156282 101.281282 429.186774 98.131126 C 429.702021 94.455943 426.610544 89.205683 419.912344 81.855318 C 413.214144 74.504953 403.424467 65.57951 390.028067 55.078989 C 376.631666 44.578468 361.174282 34.077947 344.171158 24.102452 C 326.652789 14.126957 305.527697 5.72654 280.795881 -1.098798 C 256.579312 -7.924137 230.817004 -11.074293 205.054696 -11.074293 C 152.499588 -11.074293 111.795141 6.776592 82.941357 41.953338 C 54.087572 77.130084 39.660679 119.132168 39.145433 167.959591 Z M 373.024943 352.768762 C 368.902974 387.420481 346.232143 404.746341 305.012451 404.746341 C 282.856866 404.746341 262.762266 400.546132 244.213404 391.095664 C 225.149296 381.645195 210.207158 370.094621 198.871742 356.96897 C 187.536327 343.843319 177.74665 330.192641 170.017957 316.016938 C 161.774019 301.841234 156.621557 289.765635 154.045326 279.79014 C 151.469096 269.814645 149.923357 263.514333 148.892865 260.889202 C 148.892865 260.364176 155.591065 259.83915 168.987465 259.83915 C 244.213404 259.83915 296.768512 268.239567 327.168035 283.990349 C 357.052312 299.74113 372.509697 322.842277 373.024943 352.768762 Z M 373.024943 352.768762 "
     transform="matrix(0.00758133, 0, 0, -0.00744011, 174.226663, 16.987919)"
     id="path41" />
  <path
     fill-rule="nonzero"
     fill="rgb(0%, 0%, 0%)"
     fill-opacity="1"
     stroke-width="11.190652"
     stroke-linecap="butt"
     stroke-linejoin="miter"
     stroke="rgb(0%, 0%, 0%)"
     stroke-opacity="0.1328"
     stroke-miterlimit="4"
     d="M 94.053523 250.111932 C 94.053523 296.139916 97.332034 339.569547 103.889057 381.14321 C 110.810358 422.345679 118.460218 457.980248 126.838636 488.046915 C 135.581332 518.113582 147.966819 547.437862 163.995097 576.019756 C 180.023374 604.601649 192.77314 626.873254 201.880116 642.834571 C 211.35137 659.167082 225.193973 676.241979 244.136483 695.172844 C 262.714713 713.732515 273.643084 724.868317 276.921595 728.951445 C 280.200107 733.034573 288.578524 740.087248 302.056848 750.10947 L 319.177963 750.10947 C 328.284938 750.10947 333.020566 747.139923 333.020566 740.829635 C 333.020566 738.973667 327.192101 731.920992 315.899451 720.042803 C 304.606801 708.164613 291.128477 690.347329 275.1002 666.962144 C 259.071923 643.576958 242.679367 614.995065 225.922531 580.84527 C 209.165696 547.066669 195.323093 501.038685 184.030443 443.132511 C 172.737793 384.855144 166.909329 320.638682 166.909329 250.111932 C 166.909329 179.213989 172.737793 115.36872 184.030443 57.83374 C 195.323093 0.669953 209.165696 -45.729224 224.829694 -80.992599 C 240.857972 -116.255974 257.250528 -144.837868 274.007363 -167.109473 C 290.764198 -189.009885 304.606801 -206.827169 315.899451 -219.818939 C 327.192101 -233.181902 333.020566 -240.234577 333.020566 -240.976963 C 333.020566 -246.916058 327.920659 -249.885606 318.085125 -249.885606 L 302.056848 -249.885606 L 274.007363 -226.129227 C 211.35137 -169.336633 165.816492 -98.809883 137.038449 -14.177783 C 108.260405 70.82551 94.053523 158.798351 94.053523 250.111932 Z M 94.053523 250.111932 "
     transform="matrix(0.0107232, 0, 0, -0.0105235, 178.296129, 15.409394)"
     id="path43" />
  <path
     fill-rule="nonzero"
     fill="rgb(0%, 0%, 0%)"
     fill-opacity="1"
     stroke-width="11.190652"
     stroke-linecap="butt"
     stroke-linejoin="miter"
     stroke="rgb(0%, 0%, 0%)"
     stroke-opacity="0.1328"
     stroke-miterlimit="4"
     d="M 130.896135 289.087241 C 130.896135 310.245266 136.360321 332.145678 146.924412 354.04609 C 157.488504 375.946502 176.431014 396.36214 203.023383 414.921811 C 229.615752 433.481482 262.036585 442.761318 299.921604 442.018931 C 341.449413 442.018931 371.320294 433.110289 389.898524 414.921811 C 408.841034 397.104527 418.312288 377.060082 419.040846 355.15967 C 419.040846 333.630452 413.212382 318.040328 401.919732 308.018106 C 390.627082 297.995884 377.877316 292.799176 364.034713 292.056789 C 355.292016 292.056789 347.277878 294.655143 339.992297 299.851851 C 332.706717 305.419752 328.699647 313.957201 327.971089 325.83539 C 327.971089 336.599999 330.885322 345.879835 337.078065 354.04609 C 342.906529 361.841152 348.734994 368.15144 353.8349 371.863374 C 359.299086 375.946502 363.670434 378.173662 366.948945 378.173662 C 367.677503 378.173662 368.041782 378.173662 368.041782 378.916049 C 368.041782 381.14321 365.491829 384.112757 361.120481 387.824691 C 356.384854 391.907819 348.006436 395.619753 335.985228 398.960494 C 323.96402 402.301235 310.849975 404.157202 297.007372 404.899589 C 264.950817 404.899589 241.63696 396.36214 227.065799 378.916049 C 212.494637 361.841152 204.844778 344.023868 204.11622 325.83539 C 204.11622 309.50288 210.308963 297.62469 223.058729 290.943209 C 235.808495 284.261727 254.022447 278.693826 278.064862 273.868311 C 302.107278 269.41399 319.228393 264.217282 330.156763 259.020574 C 373.870247 239.718516 396.091268 207.795882 396.091268 162.881478 C 396.091268 144.321807 392.448477 125.762136 385.162897 106.831272 C 377.513037 88.271601 366.584666 69.71193 352.013505 51.152259 C 337.442344 32.221394 316.31416 17.744851 288.993233 6.980242 C 261.672306 -3.784368 230.34431 -9.352269 195.009244 -10.094656 C 143.645901 -10.094656 107.217998 -0.443627 86.089815 18.858431 C 64.597352 38.160489 53.668981 61.174481 52.940423 87.15802 C 52.940423 113.14156 59.861725 131.701231 74.068607 142.837034 C 87.91121 154.34403 102.84665 159.911931 118.146369 159.911931 C 127.981903 159.911931 137.453158 156.942384 145.831575 151.003289 C 154.574272 145.064194 159.309899 134.670778 160.038457 119.823042 C 160.038457 102.748144 153.845714 87.900407 141.824506 76.022218 C 130.167577 64.144028 119.603485 57.83374 110.860789 57.83374 C 109.767951 57.462547 108.675114 57.091353 107.946556 57.091353 C 107.217998 57.091353 106.853719 56.348967 106.853719 54.864193 C 107.582277 53.008226 110.49651 50.409872 114.867858 47.069131 C 119.603485 43.72839 130.167577 39.274069 145.831575 34.077361 C 161.859853 28.50946 180.438083 26.282299 200.837709 27.024686 C 224.880124 27.024686 245.644029 30.736621 263.129422 38.160489 C 280.250537 45.213164 293.000303 54.492999 301.014441 65.999996 C 309.02858 77.506992 314.492765 87.529214 318.135556 97.180243 C 321.414067 106.460078 322.871183 114.626334 322.871183 122.050202 C 322.871183 140.609873 315.949881 154.715223 302.107278 163.995059 C 287.900396 173.274894 271.872119 178.842795 254.022447 181.069956 C 236.172774 182.925923 216.501707 188.122631 195.009244 195.917693 C 173.516781 204.083948 157.852783 215.590944 148.017249 231.181068 C 136.7246 247.513578 130.896135 266.815636 130.896135 289.087241 Z M 130.896135 289.087241 "
     transform="matrix(0.0107232, 0, 0, -0.0105235, 182.467464, 15.409394)"
     id="path45" />
  <path
     fill-rule="nonzero"
     fill="rgb(0%, 0%, 0%)"
     fill-opacity="1"
     stroke-width="11.190652"
     stroke-linecap="butt"
     stroke-linejoin="miter"
     stroke="rgb(0%, 0%, 0%)"
     stroke-opacity="0.1328"
     stroke-miterlimit="4"
     d="M 60.05247 748.99589 L 64.05954 750.10947 C 67.338051 750.10947 70.616562 750.10947 73.895073 750.10947 L 85.916281 750.10947 L 113.965766 725.981898 C 176.621759 669.189304 222.156638 598.662554 250.934681 514.030454 C 279.712724 429.398354 293.919606 341.425514 293.919606 250.111932 C 293.919606 204.826335 290.641095 161.025511 284.084072 119.080655 C 277.162771 77.135798 269.512911 41.50123 261.134494 12.176949 C 252.391797 -17.518524 240.00631 -46.842804 223.978033 -76.167085 C 207.949756 -105.491365 195.19999 -127.76297 186.093014 -142.9819 C 176.621759 -158.200831 163.143435 -175.275728 144.929484 -193.835399 C 127.079811 -212.766264 116.151441 -223.530873 112.872929 -226.871614 C 109.594418 -230.212354 101.944558 -236.522642 89.923351 -246.173671 C 88.101955 -248.029638 86.644839 -249.514412 85.916281 -249.885606 L 73.895073 -249.885606 C 68.795167 -249.885606 65.152377 -249.885606 62.966702 -249.885606 C 61.145307 -249.885606 59.323912 -249.143219 57.866796 -246.916058 C 56.773959 -245.060091 55.681122 -242.090544 54.952564 -238.007416 C 55.681122 -237.265029 59.323912 -233.181902 65.880935 -225.015646 C 169.336179 -117.740748 221.063801 40.758843 221.063801 250.111932 C 221.063801 459.465022 169.336179 617.593419 65.880935 724.868317 C 59.323912 733.034573 55.681122 737.488894 54.952564 737.860087 C 54.952564 743.427988 56.773959 747.139923 60.05247 748.99589 Z M 60.05247 748.99589 "
     transform="matrix(0.0107232, 0, 0, -0.0105235, 187.496668, 15.409394)"
     id="path47" />
</svg>
